<?xml version="1.0" standalone="no"?>
<!DOCTYPE svg PUBLIC "-//W3C//DTD SVG 1.1//EN" "http://www.w3.org/Graphics/SVG/1.1/DTD/svg11.dtd" >
<svg xmlns="http://www.w3.org/2000/svg" xmlns:xlink="http://www.w3.org/1999/xlink" version="1.1">
<metadata>
Created by FontForge 20161013 at Sun Jun 21 12:02:59 2015
 By ,,,
Copyright 2014 by Joel Carrouche. All rights reserved.
</metadata>
<defs>
<font id="r0c0iLinotte-Light" horiz-adv-x="564" >
  <font-face 
    font-family="r0c0i Linotte"
    font-weight="300"
    font-stretch="normal"
    units-per-em="1000"
    panose-1="0 0 0 0 0 0 0 0 0 0"
    ascent="759"
    descent="-241"
    x-height="455"
    cap-height="680"
    bbox="-83 -236 1063 1061.8"
    underline-thickness="50"
    underline-position="-150"
    unicode-range="U+000D-1F426"
  />
<missing-glyph horiz-adv-x="668" 
d="M80 680h508v-680h-508v680zM125 45h418v590h-418v-590z" />
    <glyph glyph-name="f_f" unicode="ff" horiz-adv-x="629" 
d="M181 399v-49t1 -96t1 -115v-106q0 -41 -27 -41t-27 37v181v189h-62q-40 0 -48 8q-5 5 -5 15q0 28 44 28h71v62q0 94 42 153t138 59q65 0 65 -32q0 -24 -22 -24q-13 0 -30 4q-20 4 -33 3q-54 0 -82 -46t-28 -108v-72h237v32t1 27q2 25 6 56q5 32 12 53t21 45q13 22 32 37
q19 14 47 23t64 9q28 0 50 -8q16 -6 16 -24q0 -23 -24 -23q-7 0 -29 3q-24 3 -32 2q-22 0 -40 -9q-17 -8 -30 -20q-11 -10 -19 -33q-4 -11 -7 -20.5t-5 -17.5q-5 -15 -6 -45q-1 -15 -1.5 -25.5t-0.5 -17.5v-43h121q34 0 34 -27q0 -24 -29 -24l-125 1q0 -11 0.5 -104.5
t1.5 -270.5q0 -32 -27 -32q-16 0 -22 9t-6 32v16v37v61v103v149z" />
    <glyph glyph-name="fi" unicode="fi" horiz-adv-x="562" 
d="M401 453h10.5t11.5 1h11q25 0 34 -9t9 -32v-381q0 -17 -1 -21q-2 -7 -7 -11q-7 -5 -19 -5q-27 0 -27 34v372h-7h-115h-118v-75t1 -110t1 -110.5v-75.5q0 -32 -27 -32q-15 0 -21 7t-6 24v371l-63 -1h-17t-12 1q-10 2 -17 7q-8 6 -8 17q0 28 45 28l72 1v57q5 109 58 168
q54 60 147 60q44 0 76 -9q32 -11 32 -30q0 -11 -7 -18q-8 -8 -15 -8q-10 0 -38 6q-29 6 -54 6q-71 0 -108 -46q-38 -47 -38 -120v-68h51t65 1t62 1h42h-3z" />
    <glyph glyph-name="fl" unicode="fl" horiz-adv-x="572" 
d="M184 401v-141v-142v-20t1 -29t1 -29v-20q0 -25 -28 -25q-27 0 -27 37v90v41.5t-1 81.5q-2 101 0 152h-94q-24 0 -24 23q0 29 46 29h72v54q0 101 51 164t158 63q97 0 121 -7q11 -3 17 -12t6 -17v-30q-1 -37 -1 -77.5v-85.5v-193v-150q0 -37 1 -71.5t3 -66.5q1 -12 -7 -19
t-21 -7q-25 0 -27 41q-1 32 -1.5 104t-0.5 185v201t1 154q-17 2 -43.5 3t-61.5 1q-68 0 -104 -51t-36 -120v-63h121q18 0 26 -6t8 -22q0 -24 -27 -24z" />
    <glyph glyph-name="f_f_i" unicode="ffi" horiz-adv-x="847" 
d="M681 454h12t15 1h16q42 0 42 -41v-381q0 -29 -7 -33q-5 -4 -19 -4q-27 0 -27 34v372h-120h-117v-75t1 -110t1 -110.5v-75.5q0 -32 -27 -32q-15 0 -21 7t-6 24v372l-241 1v-49t1 -96t1 -115v-106q0 -41 -27 -41t-27 37v181v189h-60q-40 0 -48 8q-5 5 -5 15q0 28 44 28h69
v62q0 94 42 153t138 59q65 0 65 -32q0 -24 -22 -24q-11 0 -30 3q-20 3 -33 3q-54 0 -82 -46t-28 -108v-72h242v57q0 107 54 167t148 60q43 0 75 -9q32 -11 32 -30q0 -26 -22 -26q-10 0 -38 6q-29 6 -53 6q-71 0 -107 -45t-36 -119v-68h49t59 1t56 1h40z" />
    <glyph glyph-name="f_f_l" unicode="ffl" horiz-adv-x="852" 
d="M590 395h-63h-63q0 -11 0.5 -102t1.5 -264q0 -38 -27 -38q-15 0 -21 8q-6 7 -6 27v182v189h-117h-117v-49.5t1 -97.5t1 -116v-106q0 -38 -27 -38q-15 0 -21 8q-6 7 -6 27v183v189h-62q-40 0 -48 8q-5 5 -5 15q0 4 2 10q1 4 6 7q6 4 8 5q3 1 11 3q10 2 14 2h16h18h21h22
v63q0 95 42 152t138 57q65 0 65 -30q0 -24 -22 -24q-11 0 -30 3q-21 3 -33 2q-28 0 -47 -9t-31 -28q-6 -10 -10.5 -19l-8.5 -17q-7 -15 -10 -46q-3 -30 -3 -45v-45v-13h236v53q0 102 55 164q55 63 162 63q85 0 109 -7q11 -3 17 -12t6 -17v-30v-467q0 -23 0.5 -55.5
t1.5 -75.5q2 -10 2 -23v-23q1 -27 -27 -27q-20 0 -24 18q-5 20 -5 71q-2 118 -2 266.5t1 331.5q-17 2 -40.5 3t-52.5 1q-67 0 -108 -50q-40 -49 -40 -120v-62h121q18 0 26 -6t8 -22q0 -24 -27 -24z" />
    <glyph glyph-name="f_f_j" unicode="ffj" horiz-adv-x="850" 
d="M473 403v-75t1 -110t1 -110.5v-75.5q0 -32 -27 -32q-15 0 -21 7t-6 24v372l-241 1v-49t1 -96t1 -115v-106q0 -41 -27 -41t-27 37v181v189h-60q-40 0 -48 8q-5 5 -5 15q0 28 44 28h69v62q0 94 42 153t138 59q65 0 65 -32q0 -24 -22 -24q-11 0 -30 3q-20 3 -33 3
q-54 0 -82 -46t-28 -108v-72h242v57q0 107 54 167t148 60q43 0 75 -9q32 -11 32 -30q0 -11 -7 -18q-8 -8 -15 -8q-10 0 -38 6q-29 6 -53 6q-71 0 -107 -45t-36 -119v-68h49t59 1t56 1h40h27h18q22 0 33 -11q10 -10 10 -36v-428q0 -122 -34 -165q-35 -44 -112 -44
q-65 0 -65 29q0 16 7 23q8 8 16 8q1 0 23 -5q15 -4 28 -4q21 0 36 6t24 21t15 27q7 13 8 38q1 13 1.5 23t0.5 18v46v15v385z" />
    <glyph glyph-name="f_j" unicode="fj" horiz-adv-x="568" 
d="M409 449h10t11 1h12q22 0 31 -10q9 -11 9 -42v-423q0 -122 -34 -165q-35 -44 -112 -44q-65 0 -65 29q0 16 7 23q8 8 16 8q1 0 23 -5q15 -4 28 -4q21 0 36 6t24 21t15 27q7 13 8 38q1 13 1.5 23t0.5 18v46v15v386l-246 -1v-75t1 -110t1 -110.5v-75.5q0 -32 -27 -32
q-15 0 -21 7t-6 24v371h-31h-32h-17t-12 1q-10 2 -17 7q-8 6 -8 17q0 19 23 24q25 5 75 5h19v60q3 106 57 165q54 58 149 58q51 0 75 -8q28 -9 28 -29q0 -11 -6 -18t-14 -7q-17 0 -45 6q-29 6 -46 6q-67 0 -106 -45t-39 -118v-68h52t68 1t65 1h43z" />
    <glyph glyph-name=".notdef" horiz-adv-x="668" 
d="M80 680h508v-680h-508v680zM125 45h418v590h-418v-590z" />
    <glyph glyph-name=".null" horiz-adv-x="0" 
 />
    <glyph glyph-name="uni000D" unicode="&#xd;" horiz-adv-x="250" 
 />
    <glyph glyph-name="NULL" horiz-adv-x="0" 
 />
    <glyph glyph-name="space" unicode=" " horiz-adv-x="247" 
 />
    <glyph glyph-name="exclam" unicode="!" horiz-adv-x="219" 
d="M78 656q0 29 30 29q19 0 24 -12q5 -13 5 -45q0 -44 -1.5 -141.5t-3.5 -250.5q0 -27 -21 -27q-14 0 -18 9q-5 9 -6 33l-3 159zM107 -3q-18 0 -30 12t-12 30q0 19 12 33t32 14t32 -12t12 -31q0 -21 -13 -33q-14 -12 -33 -12v-1z" />
    <glyph glyph-name="quotedbl" unicode="&#x22;" horiz-adv-x="298" 
d="M54 680q0 26 28 26q23 0 23 -36v-30t-1 -45t-1 -44v-28q0 -30 -23 -30t-23 29v34t-1 54t-1 50v22zM191 683q0 12 8 18q7 6 18 6t18 -7t7 -18q0 -23 -3 -152l-3 -21q-2 -8 -6 -12t-14 -4q-23 0 -23 27v39t-1 50t-1 46v26v2z" />
    <glyph glyph-name="numbersign" unicode="#" horiz-adv-x="593" 
d="M345 181h-154l-22 -143q-3 -22 -9 -31t-22 -9q-29 0 -24 27l24 156h-89q-24 0 -22 26q0 25 33 25h86l32 203h-89q-23 0 -23 24q1 27 34 27h86l26 167q5 29 30 29q11 0 18 -7q7 -8 6 -18l-28 -172l154 -1l27 168q3 29 30 29q12 0 19 -7q7 -8 6 -18l-28 -173h95
q25 0 24 -24q0 -17 -9 -21q-10 -5 -36 -5h-80l-32 -204h96q24 0 24 -22q-1 -16 -12 -22t-36 -6h-82l-23 -143q-3 -22 -9 -31t-21 -9q-29 0 -24 27zM199 232l154 -1l32 204h-154z" />
    <glyph glyph-name="dollar" unicode="$" horiz-adv-x="514" 
d="M244 738q0 27 23 27q25 0 25 -29v-68q76 -5 137 -36q22 -13 22 -28q0 -11 -7 -18t-18 -7q-6 0 -27 8q-65 30 -132 30q-62 0 -108 -39t-46 -93q0 -26 11 -46q10 -18 32 -31q19 -11 42 -19q20 -7 53 -15l9 -3l8 -2q23 -5 41.5 -10.5t33.5 -11.5q32 -13 60 -31
q30 -19 45 -50q15 -30 15 -72q0 -76 -46 -126q-47 -51 -127 -63v-72q0 -32 -27 -32q-23 0 -23 29v72q-94 2 -161 39q-30 16 -30 36q0 9 8 19q7 9 18 9q6 0 24 -8q67 -40 146 -40q74 0 119 36q46 36 47 99q0 31 -12 54q-12 22 -36 37t-48 24q-25 9 -61 18q-23 5 -40.5 10
t-31.5 10q-27 9 -60 27q-32 17 -49 47q-16 28 -16 69q0 69 54 120q53 50 128 61v71z" />
    <glyph glyph-name="percent" unicode="%" horiz-adv-x="768" 
d="M546 665q4 8 14 13q9 4 19 0q14 -8 14 -18t-9 -25q-2 -5 -60 -99q-59 -95 -93 -159q-14 -25 -31 -54.5t-38 -64.5l-33 -55l-15 -25l-95 -166q-13 -25 -39 -13q-20 12 -7 34l192 321l179 309zM40 494q0 72 33 129t102 57q63 0 102 -48t39 -124q0 -74 -42 -123t-103 -49
q-54 0 -93 48t-39 112zM174 633q-86 0 -86 -135q0 -46 23 -83q22 -36 60 -36q44 0 70 33q25 32 25 95q0 56 -24 92t-67 36zM448 148q0 70 35 126q34 55 105 55q64 0 103 -48t39 -123q0 -76 -40 -122q-41 -47 -103 -47q-56 0 -96 48q-40 47 -40 113zM588 285q-46 0 -69 -38
q-22 -37 -22 -93q0 -52 23 -87q22 -34 65 -34q47 0 71 32t23 90q-4 130 -91 130z" />
    <glyph glyph-name="ampersand" unicode="&#x26;" horiz-adv-x="645" 
d="M381 638q0 -9 -6 -16t-15 -7q-10 0 -25 6q-39 17 -72 17q-48 0 -78 -33t-30 -79q0 -71 72 -155q93 -104 249 -230q19 35 19 77q0 40 -21 78t-55 42q-34 0 -34 24q0 28 29 28h7.5t13.5 -1t13.5 -1h7.5q8 0 38.5 1.5t84.5 3.5q31 1 31 -22q0 -13 -6 -19t-22 -7
q-27 -3 -90 -3q22 -15 37 -51t15 -70q0 -61 -26 -111q17 -14 39.5 -30t51.5 -36q20 -11 20 -24q0 -9 -6 -18t-15 -9q-14 0 -27 9q-20 12 -42.5 28.5t-48.5 36.5q-71 -77 -207 -77q-97 0 -165 59t-68 143q0 115 113 189q-56 79 -56 144q0 64 47 113q46 48 120 48q45 0 82 -17
q28 -13 28 -30zM282 41q102 0 164 59q-86 70 -255 243l-1 1h-1q-89 -56 -89 -147q0 -71 51 -114q50 -43 131 -43v1z" />
    <glyph glyph-name="quotesingle" unicode="'" horiz-adv-x="157" 
d="M50 680q2 26 30 26q25 0 25 -37q0 -14 -1 -48t-3 -88q-1 -8 -1 -13.5v-8.5q0 -5 -5 -12q-5 -6 -15 -6q-23 0 -24 27q-2 74 -3.5 114t-1.5 47z" />
    <glyph glyph-name="parenleft" unicode="(" horiz-adv-x="255" 
d="M196 702q11 14 24 14q7 0 15 -6q7 -6 7 -15t-4 -14q-29 -47 -45 -78q-17 -32 -39 -87q-23 -56 -33 -120q-5 -32 -8 -66.5t-3 -71.5q0 -131 30 -219q30 -89 90 -192q6 -12 6 -17q0 -8 -7 -15t-16 -7q-17 0 -30 24q-128 204 -126 426q2 80 15 152q14 74 37 129q24 57 42 90
q9 17 19.5 34.5t23.5 37.5z" />
    <glyph glyph-name="parenright" unicode=")" horiz-adv-x="255" 
d="M63 699q13 -20 23.5 -37.5t19.5 -34.5q18 -33 42 -90q23 -55 37 -129q13 -72 15 -152q1 -222 -126 -426q-14 -24 -30 -24q-8 0 -16 8q-7 7 -7 15q0 5 6 17q60 103 90 192q30 88 30 219q0 37 -3 71.5t-8 66.5q-11 64 -33 120q-23 55 -39 87q-17 31 -45 78q-4 5 -4 14t7 15
t15 6q13 0 24 -14z" />
    <glyph glyph-name="asterisk" unicode="*" horiz-adv-x="362" 
d="M50 526q-18 6 -18 22q0 9 8 15t21 2l101 -26l-3 104q0 28 20 28q22 0 22 -24l-1 -108l102 33q9 3 17 -3t8 -16q0 -9 -4 -12q-2 -2 -15 -7l-94 -30l75 -89q10 -10 10 -18t-6 -14t-14 -6h-5l-4 2l-4 2q-1 0 -4 3t-3 4q0 2 -3 5q-2 2 -2.5 3t-1.5 2l-70 91l-61 -90
q-15 -19 -25 -19q-21 0 -21 20q0 8 7 18l67 89z" />
    <glyph glyph-name="plus" unicode="+" horiz-adv-x="480" 
d="M48 246q-13 0 -19 9q-6 8 -4 20q1 13 12 18q9 4 34 4h143v181q0 14 8 20q7 6 18 6q14 0 20 -9t6 -31v-169h161q26 0 26 -24q0 -16 -7 -20q-8 -5 -30 -5q-11 -1 -48.5 -1h-101.5v-102v-78q0 -24 -28 -24q-23 0 -23 37v167h-165z" />
    <glyph glyph-name="comma" unicode="," horiz-adv-x="192" 
d="M40 -70q0 7 18 28t21 40q0 1 -6 6q-5 4 -12 14q-6 9 -6 20q0 19 12 31t32 12q19 0 33 -15q13 -14 13 -34q0 -64 -65 -114q-11 -8 -21 -8q-5 0 -12 5q-6 4 -6 14z" />
    <glyph glyph-name="hyphen" unicode="-" horiz-adv-x="347" 
d="M72 213q-28 0 -28 25t38 25h192q31 0 31 -21q0 -16 -9 -22t-34 -6h-191z" />
    <glyph glyph-name="period" unicode="." horiz-adv-x="192" 
d="M93 -3q-18 0 -30 12t-12 32t14 32q13 12 33 12t32 -13q12 -14 12 -33t-14 -30t-35 -11v-1z" />
    <glyph glyph-name="slash" unicode="/" horiz-adv-x="361" 
d="M289 688q7 25 25 25q10 0 18 -5t8 -15q0 -6 -14 -48l-258 -646q-7 -22 -21 -22q-9 0 -19 5q-9 4 -9 14q0 9 10 36l261 655z" />
    <glyph glyph-name="zero" unicode="0" horiz-adv-x="619" 
d="M61 304q0 66 12 128q12 61 39 120q27 58 78 93q52 35 122 35q116 0 182 -97q66 -98 66 -253q0 -151 -73 -243q-74 -93 -181 -93q-102 0 -174 90t-72 222zM311 624q-45 0 -80 -20t-56 -51q-22 -33 -35 -73q-7 -21 -11.5 -42t-7.5 -41q-6 -41 -6 -84q0 -65 21 -125t66 -102
t104 -42q89 0 146 77q57 76 57 204q0 125 -52 214q-53 90 -144 90z" />
    <glyph glyph-name="one" unicode="1" horiz-adv-x="414" 
d="M106 503q-14 -11 -24 -11t-18 8q-7 7 -7 17q0 12 13 24q25 20 46 37t39 31t30 24t19 15t12 9.5t9 7.5q16 13 36 13q11 0 19 -7q9 -8 9 -18q0 -35 -0.5 -89t-1.5 -126q-2 -75 0 -225q1 -75 1 -122.5v-67.5q0 -28 -29 -28q-26 0 -26 30q0 14 0.5 44t1.5 76t1.5 91t1.5 90
t1 85v75v129l-132 -108z" />
    <glyph glyph-name="two" unicode="2" horiz-adv-x="537" 
d="M256 629q-76 0 -141 -65l-5 -5l-5 -5l-4 -4q-2 -2 -6 -4l-6 -3q-4 -2 -6 -2h-6q-11 0 -18 6t-7 17q0 16 22 37q34 34 83 57t98 23q88 0 150 -55q63 -56 63 -141q0 -30 -6 -55t-24 -52q-19 -29 -30 -41q-12 -14 -45 -48q-17 -17 -28 -29t-18 -19l-197 -193h103t95 1
q23 0 57 0.5t82 1.5q31 0 31 -26q0 -29 -35 -27h-56h-71h-239q-36 0 -36 34q0 16 30 48q54 51 105 102.5t102 103.5q3 4 24 25l27 27q8 8 23 26q17 20 23 30q4 6 8 13.5t9 15.5q9 16 12 32q3 15 3 32q0 61 -45 103t-116 42v-3z" />
    <glyph glyph-name="three" unicode="3" horiz-adv-x="525" 
d="M415 218q0 70 -48 108q-49 38 -117 38h-21h-12t-10 -1q-15 -1 -25 6t-10 21q0 13 17 30q17 16 42.5 43t60.5 65q70 76 99 105q-94 0 -167.5 -1.5t-127.5 -3.5q-33 0 -33 26q0 14 9 20t21 6h12.5t34.5 -1t41.5 -1h32.5q17 0 43 0.5t62 1.5t62 1.5t42 0.5q22 0 31 -6t9 -25
q0 -14 -40 -54q-32 -32 -99 -102q-34 -35 -54 -56.5t-28 -29.5q90 4 159 -48q69 -53 69 -141q0 -101 -59 -165q-59 -63 -165 -63q-92 0 -171 49q-29 18 -29 35q0 11 8 19q7 7 17 7q6 0 9 -1q6 -2 8 -3l9 -6q3 -2 6 -3.5t5 -3.5q76 -44 146 -44q71 0 117 49q47 50 47 124z
" />
    <glyph glyph-name="four" unicode="4" horiz-adv-x="559" 
d="M364 369q0 42 25 42q16 0 22 -8t6 -30l-1 -176l96 2q32 2 32 -23q0 -27 -27 -27h-102v-121q0 -33 -24 -33q-29 0 -29 34v56v63q-48 2 -152 0q-52 -1 -84 -1h-45q-41 0 -41 32q0 16 14 42q64 115 121 222.5t108 209.5q14 26 33 26q11 0 21 -8q8 -7 10 -17q0 -6 -6 -19
l-148 -263l-91 -176l262 2l1 172z" />
    <glyph glyph-name="five" unicode="5" horiz-adv-x="541" 
d="M120 641q6 34 42 34h269q30 0 30 -26q0 -27 -35 -27l-258 4l-6 -48l-32 -203q80 44 154 44q95 0 150 -58t55 -141q0 -101 -66 -165q-65 -64 -162 -64q-78 0 -163 47q-44 23 -44 44q0 11 9 20t20 9q6 0 12 -3q7 -4 14 -9q9 -7 12 -8q82 -47 142 -47q69 0 120 48t51 121
q0 67 -39 112t-112 45q-48 0 -107 -25t-68 -25q-16 -1 -27 8t-9 26q4 40 24 156q10 58 15.5 91.5t7.5 43.5z" />
    <glyph glyph-name="six" unicode="6" horiz-adv-x="568" 
d="M311 630q-80 0 -138 -78q-58 -77 -58 -192v-37q25 46 81 75q55 28 114 28q88 0 149 -52q62 -53 62 -153q0 -98 -64 -162t-165 -64q-90 0 -151 58t-73 162q-6 69 -6 117q0 154 72 253t187 99q75 0 135 -29q27 -14 27 -30q0 -11 -7 -18t-18 -7q-3 0 -36 13q-47 19 -109 19z
M291 371q-74 -1 -123 -44q-48 -42 -48 -112q0 -74 51 -123q50 -49 125 -49q74 0 122 50q48 49 48 128q0 75 -46 114t-127 37z" />
    <glyph glyph-name="seven" unicode="7" horiz-adv-x="515" 
d="M198 629h-29.5t-36.5 -1t-34.5 -1h-22.5q-35 0 -35 26q0 27 30 27h77t116 -1t114 -1h71q31 0 31 -27q0 -16 -29 -57q-68 -85 -127 -204q-59 -117 -93 -228q-26 -82 -39 -139q-3 -13 -9 -19t-22 -6q-35 0 -24 42q5 23 15.5 56.5t25.5 78.5q82 240 236 453q-41 1 -114 0
q-37 -1 -61.5 -1h-37.5z" />
    <glyph glyph-name="eight" unicode="8" horiz-adv-x="568" 
d="M490 508q0 -58 -28 -96q-29 -40 -76 -59q55 -20 93 -60q38 -41 39 -100q1 -94 -65 -148t-164 -54q-104 0 -171 50q-66 49 -66 135q0 131 133 177q-39 18 -69 57t-30 91q0 83 60 134t142 51q81 0 142 -50q60 -50 60 -126v-2zM291 324q-77 0 -132 -36q-56 -36 -54 -107
q1 -67 49 -103t129 -36q85 0 134 40t48 108q-2 63 -52 99q-51 36 -121 36zM135 495q2 -56 46 -92q45 -36 107 -36q66 0 107 40q42 41 41 102q-2 54 -45 90q-44 36 -105 36q-65 0 -108 -37q-44 -38 -42 -102z" />
    <glyph glyph-name="nine" unicode="9" horiz-adv-x="567" 
d="M257 48q100 0 153 81q52 81 51 235q-21 -48 -73 -81q-53 -33 -121 -33q-82 0 -150 58q-69 58 -69 156q0 94 69 159q69 64 163 63q102 -2 168 -78q66 -77 66 -243q0 -369 -260 -369q-36 0 -78 11q-41 10 -63 24q-26 15 -26 31q0 11 7 18q8 8 18 8q4 0 36 -15
q55 -27 111 -27zM278 300q69 0 119 45t50 117q0 74 -52 123q-53 50 -126 50q-69 0 -119 -49q-51 -50 -51 -126q0 -75 50 -117q49 -42 132 -42z" />
    <glyph glyph-name="colon" unicode=":" horiz-adv-x="192" 
d="M93 366q-18 0 -30 12t-12 32t14 32q13 12 33 12t32 -13q12 -14 12 -33t-14 -30t-35 -11v-1zM93 -4q-18 0 -30 12t-12 32t14 32q13 12 33 12t32 -13q12 -14 12 -33t-14 -30t-35 -11v-1z" />
    <glyph glyph-name="semicolon" unicode=";" horiz-adv-x="192" 
d="M41 -70q0 7 18 28t21 40q0 1 -6 6q-5 4 -12 14q-6 9 -6 20q0 19 12 31t32 12q19 0 33 -15q13 -14 13 -34q0 -64 -65 -114q-11 -8 -21 -8q-5 0 -12 5q-6 4 -6 14zM94 367q-18 0 -30 12t-12 32t14 32q13 12 33 12t32 -13q12 -14 12 -33t-14 -30t-35 -11v-1z" />
    <glyph glyph-name="less" unicode="&#x3c;" horiz-adv-x="480" 
d="M425 444q-22 -11 -62.5 -32.5t-100.5 -54.5t-102 -56.5t-66 -37.5q28 -16 72.5 -38.5t107.5 -52.5t102.5 -50t56.5 -30q13 -7 13 -18t-7 -21t-18 -10q-14 0 -27 7l-330 176q-27 16 -27 39q0 20 25 36q38 24 118 69.5t203 112.5q13 9 24 9q10 0 18 -9q8 -10 8 -20
q0 -11 -10 -18z" />
    <glyph glyph-name="equal" unicode="=" horiz-adv-x="480" 
d="M58 344q-23 0 -23 26q0 27 34 27h72h89h188q25 0 25 -24q0 -16 -10 -22q-11 -6 -37 -6h-337zM57 133q-23 0 -23 26q0 27 34 27h72h89h188q25 0 25 -24q0 -16 -10 -22q-11 -6 -37 -6h-337z" />
    <glyph glyph-name="greater" unicode="&#x3e;" horiz-adv-x="480" 
d="M59 444q-10 7 -10 18q0 10 8 20q7 9 18 9q10 0 24 -9q123 -67 203 -112.5t118 -69.5q25 -16 25 -36q0 -23 -27 -39l-330 -176q-13 -7 -27 -7q-10 0 -18 11q-7 10 -7 21t13 18q17 10 56.5 30t102.5 50t107.5 53t72.5 39q-24 14 -66 37.5t-102 56.5t-100.5 54.5t-62.5 32.5
z" />
    <glyph glyph-name="question" unicode="?" horiz-adv-x="481" 
d="M52 590q0 12 15 24q82 69 172 69q81 0 140 -49q60 -50 60 -130q0 -21 -4 -37q-5 -18 -16 -34q-6 -8 -10.5 -15t-8.5 -12q-7 -9 -27 -25q-10 -8 -16.5 -12.5t-10.5 -6.5t-11.5 -6.5t-19.5 -12.5t-18.5 -11.5t-8.5 -4.5q-49 -31 -51 -74q-2 -11 3 -21q5 -12 5 -21
q0 -24 -26 -24q-39 0 -39 66q0 39 21 66t65 53q14 8 24.5 14.5t17.5 11.5q13 9 33 27q21 19 29 37q9 19 9 44q0 56 -43 92q-44 36 -105 36q-67 0 -123 -47q-26 -21 -36 -21t-18 8t-8 18zM175 40q0 19 15 33q16 14 35 14q23 0 35 -13q12 -14 12 -34q0 -22 -13 -34
q-14 -12 -34 -12q-23 0 -36 12t-13 32z" />
    <glyph glyph-name="at" unicode="@" horiz-adv-x="906" 
d="M624 167q-11 -120 62 -120q57 0 87 69t30 169q0 125 -96 209t-238 84q-106 0 -192 -59q-85 -58 -130 -153t-45 -202q0 -141 101 -236q100 -95 228 -96q94 -2 192 39q30 13 36 13q10 0 18 -8q7 -7 7 -18q0 -14 -16 -24q-108 -53 -237 -53q-99 0 -187 47q-87 46 -141 135
q-54 88 -54 201q0 87 29 171q29 83 81 149q53 66 136 105q84 39 185 39q158 0 266 -102t108 -241q0 -134 -42 -212t-129 -78q-44 0 -70 25q-28 26 -32 69q-54 -91 -148 -91q-75 0 -125 50t-50 123q0 88 54 153t142 65q39 0 76 -20t56 -54q2 15 3 24.5t2 14.5q7 31 27 31
q31 0 24 -40l-9 -66zM450 343q-61 0 -100 -48t-39 -116q0 -58 38 -93t90 -35q65 0 101 48t36 122q0 56 -38 89t-87 33h-1z" />
    <glyph glyph-name="A" unicode="A" horiz-adv-x="629" 
d="M31 22q0 11 14 42q108 256 111 261q7 17 39 99t90 232q10 24 34 24q22 0 33 -24q16 -38 66 -171q49 -134 72 -189q1 -2 2 -5t3 -8t3 -8t2 -5l95 -229q6 -17 6 -22q0 -8 -9 -15q-8 -7 -20 -7q-15 0 -21 6q-5 5 -13 26q-14 36 -30 78q-8 21 -14.5 37.5t-11.5 28.5t-7 19
t-3 9h-76h-132h-107q-5 -12 -30 -78q-13 -33 -21 -54t-12 -29l-2.5 -5t-3.5 -8t-3.5 -8l-2.5 -5l-2 -4t-3 -5q-3 -5 -8 -7q-3 -1 -10 -1q-30 0 -30 25h2zM319 606q-26 -71 -61.5 -160.5t-80.5 -198.5q73 -1 141.5 -1t134.5 2q-8 19 -63 171q-28 76 -45.5 123t-25.5 66v-2z
" />
    <glyph glyph-name="B" unicode="B" horiz-adv-x="590" 
d="M285 678q90 0 150 -45q61 -45 62 -130q1 -56 -24 -96t-68 -63q135 -35 135 -158q0 -81 -46 -128q-47 -49 -126 -56q-18 -2 -60 -3t-108 -1h-70q-40 0 -40 51l1 252l-2 275v33v32q0 31 48 36q34 3 150 3zM143 308l2 -261q11 -1 51.5 -1h110.5q79 0 129 33t50 101
q0 130 -176 130zM440 505q-2 60 -46 90q-45 30 -114 30q-93 0 -141 -3q2 -14 3 -268q24 0 63 0.5t93 1.5q68 2 107 43q39 43 38 108z" />
    <glyph glyph-name="C" unicode="C" horiz-adv-x="607" 
d="M523 653q39 -18 39 -36q0 -14 -7 -22q-8 -9 -19 -8t-34 12q-67 32 -133 32q-100 0 -178 -87t-78 -215q0 -116 72 -200t188 -84q83 0 147 46q3 1 9 5l6 5q1 1 6 3q3 1 10 1q8 0 14 -9t6 -19q0 -30 -67 -58q-66 -28 -138 -28q-125 0 -217 92q-91 91 -91 240q0 160 96 261
q96 100 222 100q79 0 147 -30v-1z" />
    <glyph glyph-name="D" unicode="D" horiz-adv-x="670" 
d="M84 632q0 49 62 49h40h72h39q142 -9 234 -93q91 -84 91 -228q0 -357 -378 -360q-13 0 -41 0.5t-73 1.5q-44 2 -44 54l3 303l-4 272zM258 630q-84 0 -120 -3v-551q0 -15 18 -18t81 -3q157 0 243 69t86 227q0 136 -87 207q-88 71 -220 71z" />
    <glyph glyph-name="E" unicode="E" horiz-adv-x="539" 
d="M102 641q0 14 9 22t19 9q5 1 13.5 1h19.5h52h46.5t71.5 1t71 1h46q25 0 34 -6t9 -20q0 -23 -23 -25h-126h-126h-61q-1 -26 -1 -63v-85v-99v-25h58q113 0 188 3q21 0 30 -6t9 -19q0 -25 -36 -25h-132h-118v-80v-36.5t-1 -52.5t-1 -52.5v-36.5q69 0 143.5 0.5t156.5 1.5h12
h12q25 0 25 -24q0 -17 -9 -24q-8 -7 -36 -7h-256q-69 0 -85 9t-16 49q0 7 0.5 18t1.5 26v3v11v17v24v30v39v46v54v61v132v134v-6z" />
    <glyph glyph-name="F" unicode="F" horiz-adv-x="521" 
d="M100 508l-2 128q0 18 12 30t28 12h30h32q15 0 73 0.5t161 1.5h17h18q26 0 26 -26q0 -25 -26 -27h-63h-87h-164v-84v-84v-110h102l173 2q25 0 25 -27q0 -23 -28 -24h-85h-84h-51h-51v-93l1 -171q0 -39 -27 -39q-18 0 -24 9t-6 31v37v39v66v66v263z" />
    <glyph glyph-name="G" unicode="G" horiz-adv-x="709" 
d="M385 682q112 0 204 -60q16 -10 16 -24q0 -13 -7 -20q-8 -8 -18 -8q-12 0 -38 17q-68 45 -162 45q-101 0 -185 -87t-84 -202q0 -140 75 -219t200 -79q98 0 161 75q62 74 64 177h-170q-9 1 -15 9q-6 7 -6 15q0 22 21 25q5 1 183 1q23 0 32 -10q9 -11 9 -34q0 -136 -81 -223
t-199 -87q-147 0 -237 95q-90 94 -90 249q0 144 100 245q100 102 231 102z" />
    <glyph glyph-name="H" unicode="H" horiz-adv-x="692" 
d="M597 21q0 -26 -27 -26q-29 0 -29 27v102l-1 175h-80t-112 -1t-114 -1h-87l2 -274q0 -27 -29 -27q-11 0 -19 7q-9 7 -9 19q0 20 0.5 63.5t1.5 109.5q1 132 0 204l-4 249q2 29 30 29q26 0 26 -26v-135.5t1 -166.5h126h98h99l72 1v55.5t-1 90.5t-1 88.5v50.5q0 25 6 36
q6 10 23 10q27 0 27 -36v-154v-114.5t1 -45.5v-310z" />
    <glyph glyph-name="I" unicode="I" horiz-adv-x="262" 
d="M106 394v44t-1 70t-1 77v65t30 30q26 0 26 -28v-93.5t-1 -161.5v-162l1 -200q0 -22 -6 -31t-22 -9q-28 0 -28 27v43v45l1 285z" />
    <glyph glyph-name="J" unicode="J" horiz-adv-x="480" 
d="M319 650q0 30 26 30q29 0 29 -27q0 -47 3 -147q3 -101 3 -147v-72t-1 -49q-2 -122 -49 -184q-48 -63 -157 -63q-36 0 -72 18q-37 19 -54 34q-20 17 -20 35q0 10 8 18q7 7 18 7q8 0 15 -4q6 -4 19 -15q11 -10 16 -13q33 -27 76 -27q34 0 60 9t42 28t27 42t15 58q4 36 6 68
q1 16 1.5 36t0.5 44z" />
    <glyph glyph-name="K" unicode="K" horiz-adv-x="597" 
d="M148 287q86 91 169.5 184.5t165.5 190.5q15 18 30 18q11 0 20 -9t9 -19q0 -8 -6 -15q-26 -31 -76 -86.5t-125 -136.5q-3 -3 -8.5 -9t-13.5 -15t-14 -15.5t-11 -11.5q37 -40 164 -194l105 -124q10 -10 10 -24q0 -12 -9 -21t-22 -9q-15 0 -27 15q-3 4 -8.5 10.5t-13.5 17.5
l-233 292q-20 -23 -57 -60q-19 -19 -31 -31.5t-17 -18.5v-198q0 -26 -28 -26q-27 0 -27 26v24v24v120.5t1 169.5t1 169.5v120.5q0 34 28 34q27 0 27 -29v-75.5t-1 -108.5t-1 -107v-70z" />
    <glyph glyph-name="L" unicode="L" horiz-adv-x="487" 
d="M97 647q0 32 31 32q25 0 25 -33t-0.5 -90t-1.5 -138q-2 -155 -3 -207v-86v-54v-24h84t47 1l162 6q30 0 30 -24q0 -31 -31 -31h-118q-61 0 -101.5 -0.5t-60.5 -1.5q-39 -1 -53 8t-14 41v16v24q0 22 0.5 54t1.5 76q2 88 3 131v302z" />
    <glyph glyph-name="M" unicode="M" horiz-adv-x="845" 
d="M184 592q-5 -38 -12 -91t-15 -121t-15 -126t-13 -108t-10.5 -82t-6.5 -47q-4 -25 -27 -25q-15 0 -21 11q-6 10 -4 23q5 31 12.5 81t16.5 121q18 141 36 279q9 69 13.5 105t5.5 39q3 10 15 18q11 7 26 7q19 0 33 -36q31 -82 72.5 -198.5t94.5 -269.5q14 -38 20.5 -58.5
t7.5 -22.5l11 32q23 53 51 123.5t62 160.5t55 145t29 76q15 36 32 50q10 2 15 2q20 0 27 -10q7 -27 21 -137q7 -55 14.5 -123t16.5 -149q18 -162 27 -231q2 -20 -3 -29t-21 -9q-24 0 -27 29q-5 48 -12.5 119t-17.5 168t-17.5 167t-12.5 116l-207 -525l-3.5 -10.5t-2.5 -6.5
q-2 -6 -7 -12q-7 -8 -12 -11q-6 -3 -15 -3q-21 0 -35 35q-19 51 -46.5 127.5t-63.5 181.5t-56 162.5t-24 68.5z" />
    <glyph glyph-name="N" unicode="N" horiz-adv-x="702" 
d="M139 38q0 -19 -1 -24q-2 -8 -7 -13q-6 -6 -18 -6q-29 0 -29 30v95.5t1 180.5v121v121v102q0 32 34 32q4 0 12 -2q7 -2 9 -4l9 -9q7 -7 8 -9t3 -4.5t5 -7.5q6 -9 7 -10l257 -365l132 -185q-3 97 -3 267l-2 273v10v11v10q0 6 2 10q1 2 2 3.5t3 3.5q3 4 8 6q6 2 11 2h9
q3 0 7 -2t5 -3t3 -5l3 -6q1 -2 1 -9v-8v-9v-10v-328q1 -33 1.5 -98t0.5 -164q0 -35 -33 -35q-3 0 -9 2q-3 1 -7 3q-2 1 -7 6q-4 4 -6 8q-1 3 -8 11q-3 4 -5.5 7t-4.5 5l-391 556q0 -66 1 -204t3 -352z" />
    <glyph glyph-name="O" unicode="O" horiz-adv-x="747" 
d="M379 687q131 0 224 -96t93 -241q0 -152 -90 -255t-230 -103q-126 0 -223 92q-96 91 -96 237q0 161 98 264q97 102 225 100zM642 348q-2 124 -84 207q-82 82 -192 82q-102 0 -180 -87t-78 -215q0 -125 80 -207q79 -81 194 -81q108 0 185 90q76 90 75 210v1z" />
    <glyph glyph-name="P" unicode="P" horiz-adv-x="565" 
d="M94 463v48t-1 34v49v49q0 31 42 34t159 3q93 0 158 -44q78 -54 78 -167q0 -65 -41 -124q-40 -58 -105 -76q-34 -10 -221 -10h-13v-46.5t1 -67.5t1 -69.5v-53.5q0 -28 -27 -28q-29 0 -29 24v445h-2zM147 428v-22.5t1 -34.5t1 -35v-25h51q114 -3 161 9q55 14 83 57t30 95
q2 84 -60 125q-49 31 -138 31q-98 0 -128 -3v-99v-99z" />
    <glyph glyph-name="Q" unicode="Q" horiz-adv-x="755" 
d="M345 -12q-53 8 -101 30q-49 23 -93 61q-45 39 -72 103t-27 145q0 92 42 173q42 82 114 131t153 51q8 2 12 2q136 0 229 -90t94 -235q1 -219 -159 -327q-25 -19 -62 -33q8 -5 22.5 -14.5t34.5 -25.5q40 -32 75 -48q33 -16 71 -16q31 0 51 12q19 12 27 26q7 13 17 26
q9 12 23 12q27 0 27 -28q0 -38 -42 -72q-43 -35 -100 -35q-40 0 -76 18q-35 17 -85 57q-25 20 -44.5 34t-33.5 22q-32 20 -48 20zM638 341q0 60 -16 108q-16 49 -45 82q-28 33 -64 55t-75 33q-37 10 -79 10q-93 0 -172 -88t-79 -211q0 -127 83 -210q82 -82 212 -84
q106 13 172 98q66 84 66 209z" />
    <glyph glyph-name="R" unicode="R" horiz-adv-x="600" 
d="M94 634q0 24 14 33q13 8 45 10q34 1 61.5 1.5t48.5 0.5q37 0 69 -3q91 -8 144 -60q53 -53 53 -138q0 -77 -42 -128t-111 -66l169 -237q12 -17 12 -23q0 -10 -9 -19t-19 -9q-14 0 -24 12l-182 262h-173v-232q0 -40 -26 -40q-19 0 -25 9q-6 8 -4 31q1 24 1.5 144t0.5 340
v56v57zM288 629q-54 0 -89.5 -0.5t-52.5 -1.5l1 -307h140q186 0 186 160q0 73 -50 111t-135 38z" />
    <glyph glyph-name="S" unicode="S" horiz-adv-x="558" 
d="M460 642q23 -11 23 -29q0 -11 -7 -18q-8 -8 -18 -8t-28 9q-67 32 -143 32q-69 0 -118 -39t-49 -100q0 -23 9 -41q8 -16 20 -28q10 -10 35 -21q12 -5 21.5 -8t16.5 -5t18 -4.5t28 -6.5l9 -3l8 -2q54 -12 86 -24q33 -12 66 -33q34 -22 50 -52q17 -32 17 -75q0 -89 -64 -144
t-171 -55q-101 0 -180 42q-33 16 -33 35q0 10 8 20q7 9 20 9q7 0 25 -8q77 -44 159 -44q79 0 129 38t50 104q0 62 -46 92q-48 31 -132 47q-17 4 -32 7.5t-27 6.5q-22 5 -54 20q-30 13 -48 30t-30 43q-12 27 -12 60q0 84 69 140q70 56 158 56q90 0 169 -38z" />
    <glyph glyph-name="T" unicode="T" 
d="M280 678h49t79 1t71.5 1h27.5q35 0 35 -24q0 -16 -9 -22t-32 -6h-196v-70v-105q0 -29 0.5 -72.5t1.5 -102.5t1.5 -118.5t1.5 -122.5q0 -21 -6 -30t-23 -9q-14 0 -20 8q-6 7 -6 27l1 384v105v105h-105t-105 -1q-27 0 -27 26q0 10 8 18t21 8h33h75h127h-3z" />
    <glyph glyph-name="U" unicode="U" horiz-adv-x="676" 
d="M88 276v213v153q0 37 25 37q28 0 28 -29q-1 -30 -1 -124v-253q0 -222 199 -222q85 0 142 62q57 61 57 159v64.5t-1 118.5t-1 122.5v75.5q0 27 27 27t27 -33l1 -345q1 -148 -68 -228q-69 -79 -195 -79q-114 0 -177 72t-63 204v5z" />
    <glyph glyph-name="V" unicode="V" horiz-adv-x="629" 
d="M33 625q-9 19 -9 29t11 18t21 8q20 0 27 -22q2 -7 7 -19.5t13 -31.5t13 -33t8 -23l191 -484q4 8 8.5 20.5t10.5 29.5t10 27.5t6 15.5l192 496q11 26 28 26q13 0 21 -7q9 -8 9 -18q0 -7 -10 -33q-1 -2 -23.5 -57.5t-67.5 -164.5l-10 -28q-4 -10 -8.5 -21.5t-9.5 -25.5
t-11 -29.5t-14 -33.5l-94 -234q-17 -32 -40 -32q-17 0 -24 9q-8 9 -15 31q-11 30 -27 72q-8 21 -17 44t-20 48t-28 67.5l-41 102.5t-49.5 123t-52.5 130h-5z" />
    <glyph glyph-name="W" unicode="W" horiz-adv-x="835" 
d="M44 655q-3 13 5 23q7 9 21 9t20 -6t9 -21q4 -23 51 -261q46 -239 60 -315q23 63 63.5 186.5t98.5 310.5q6 19 9 27q3 7 11 15q7 7 20 7q25 0 33 -23l172 -507q42 188 71 327t46 233q4 30 30 30q12 0 20 -9q7 -9 6 -22l-138 -619q-2 -7 -3 -12t-2 -8q-2 -6 -9 -12
q-8 -6 -19 -6q-26 0 -36 33q-17 52 -40.5 121.5t-53.5 157.5q-60 175 -75 222q-44 -147 -159 -468l-6 -18q-5 -15 -7 -19q-2 -3 -3.5 -6.5t-3.5 -8.5q-4 -8 -11 -13q-5 -4 -15 -4q-9 0 -15 3t-12 9t-9 12t-6 20q-2 7 -3 13t-2 11q-2 12 -6 32q-2 11 -3.5 20.5t-3.5 17.5
l-105 513v5z" />
    <glyph glyph-name="X" unicode="X" horiz-adv-x="615" 
d="M254 240l-163 -223q-15 -20 -29 -20q-9 0 -19 8q-9 7 -9 17t15 31l226 295q-11 12 -63 79t-147 192q-16 19 -16 30q0 10 9 18q10 8 20 8q14 0 35 -30q118 -167 195 -261l198 264q15 20 19 23q7 5 15 5q12 0 20 -7q9 -8 9 -15q0 -12 -15 -33l-214 -277l229 -293
q14 -17 14 -27q0 -11 -9 -18q-8 -7 -20 -7h-6q-2 0 -6 2q-2 1 -4 3q-1 1 -1.5 2t-2.5 3t-2.5 3t-1.5 2l-4 6l-4 6q-54 74 -90.5 124t-57.5 76l-66 83z" />
    <glyph glyph-name="Y" unicode="Y" horiz-adv-x="591" 
d="M266 275l-225 343q-15 22 -15 33q0 10 9 18q10 8 20 8q6 0 8 -1l6 -3q3 -2 6 -6q2 -3 5 -6l6 -8l6 -9q172 -278 204 -324l209 333q1 1 3 5t3 5t3 5q1 2 3 4l3 3l3 3q2 2 4 2h6q13 0 21 -7q9 -8 9 -18t-13 -29l-229 -351v-126v-126q0 -12 -8 -18t-18 -6q-28 0 -28 29v66
v38t1 51t1 50.5v37.5z" />
    <glyph glyph-name="Z" unicode="Z" horiz-adv-x="537" 
d="M63 623q-27 0 -27 24q0 28 31 28h213h37.5t55.5 1t56 1h39q30 0 30 -26q0 -13 -20 -42l-52 -81l-232 -342l-95 -138q103 0 223 3t156 3q14 0 22 -9q7 -8 7 -19q0 -26 -43 -26q-29 -1 -122.5 -1h-251.5h-18q-2 0 -6 0.5t-9 1.5q-11 1 -15 9q-4 7 -4 18q0 13 3 21
q6 14 20 35.5t36 52.5l58 82l195 279l83 129q-34 -1 -79.5 -1h-103.5h-183z" />
    <glyph glyph-name="bracketleft" unicode="[" horiz-adv-x="284" 
d="M89 679q0 16 9 25t23 9h24h52h49q25 0 25 -24q0 -22 -26 -22h-106v-155.5t-1 -102.5q0 -7 -0.5 -48t-1.5 -117q-2 -152 -3 -189q-1 -29 -1 -75v-110h54h47q26 0 26 -24q0 -23 -27 -23h-113q-20 0 -29 11q-9 10 -9 36q0 74 3 233q2 80 2.5 138t1.5 96v342h1z" />
    <glyph glyph-name="backslash" unicode="\" horiz-adv-x="361" 
d="M330 31q10 -27 10 -36q0 -10 -9 -14q-10 -5 -19 -5q-14 0 -21 22l-258 646q-14 42 -14 48q0 10 8 15t18 5q18 0 25 -25z" />
    <glyph glyph-name="bracketright" unicode="]" horiz-adv-x="284" 
d="M197 336q1 -38 1.5 -96t2.5 -138q3 -159 3 -233q0 -26 -9 -36t-29 -10h-113q-27 0 -27 23q0 24 26 24h47h54v110t-1 75q-2 37 -3 189q-1 76 -1.5 117t-0.5 48q-1 38 -1 102.5v155.5h-106q-26 0 -26 22q0 24 25 24h49h52h24q14 0 23 -9t9 -25z" />
    <glyph glyph-name="asciicircum" unicode="^" horiz-adv-x="500" 
d="M426 289q-11 22 -32.5 62.5t-54.5 100.5t-56.5 102t-37.5 66q-16 -28 -38.5 -72.5t-52.5 -107.5t-50 -102.5t-30 -56.5q-7 -13 -18 -13q-10 0 -21 8q-10 7 -10 18q0 14 7 27l176 330q16 27 39 27q20 0 36 -25q24 -38 69.5 -118t112.5 -203q9 -14 9 -24q0 -11 -9 -18
q-10 -8 -20 -8q-11 0 -18 10z" />
    <glyph glyph-name="underscore" unicode="_" horiz-adv-x="500" 
d="M35 -53q-14 0 -20 9q-6 10 -5 19q1 24 45 24h218h188q28 0 28 -22q0 -16 -9 -22t-35 -6h-408z" />
    <glyph glyph-name="grave" unicode="`" horiz-adv-x="225" 
d="M147 554q-28 28 -53 55t-48 53q-11 14 -11 23q0 10 9 18q10 8 18 8q14 0 24 -13q11 -15 34.5 -42.5t58.5 -69.5q9 -11 9 -18t-7 -13q-8 -6 -15 -6q-6 0 -17 8z" />
    <glyph glyph-name="a" unicode="a" 
d="M486 170q0 -34 1.5 -72.5t3.5 -82.5q0 -10 -9 -16t-19 -6q-11 0 -16 4q-6 4 -9 18q-3 13 -3 23v35v14q-53 -95 -174 -95q-92 0 -150 64t-58 153q0 103 65 176q64 72 159 72q103 0 159 -87v47q0 37 28 37q14 0 20 -7q6 -8 6 -15v-27l-1 -78zM107 208q0 -72 47 -121
q46 -48 113 -48q75 0 123 50q48 49 48 129q0 86 -49 135t-117 49q-70 0 -118 -56t-48 -138h1z" />
    <glyph glyph-name="b" unicode="b" horiz-adv-x="573" 
d="M77 692q1 28 28 28q28 0 28 -28q-1 -21 -1 -104v-230q26 50 74 77t105 27q90 0 150 -70q60 -71 60 -160q0 -103 -64 -171q-65 -69 -157 -69q-50 0 -97 26q-46 25 -70 69v-59q-1 -31 -28 -31q-26 0 -26 37l4 213l-4 446zM461 232q0 69 -47 124q-47 54 -113 54
q-71 0 -122 -53t-51 -132q0 -78 50 -130q49 -51 114 -51q70 0 121 53q51 52 51 134z" />
    <glyph glyph-name="c" unicode="c" horiz-adv-x="444" 
d="M390 430q16 -10 16 -25q0 -10 -7 -18q-8 -9 -18 -9q-4 0 -12 2q-6 1 -15 6l-12 6q-35 16 -77 16q-70 0 -117 -59q-46 -58 -46 -126q0 -76 42 -125q42 -50 110 -50q59 0 97 23q31 18 39 18q9 0 17 -9q8 -10 8 -18q0 -11 -9 -20q-56 -48 -142 -48q-101 0 -159 69
q-59 69 -57 152q2 95 63 170t161 75q64 0 119 -32z" />
    <glyph glyph-name="d" unicode="d" 
d="M486 435v-187v-27t1 -55t1 -71v-74q0 -30 -27 -30q-28 0 -28 34v67q-60 -102 -172 -102q-90 0 -150 69t-60 155q0 101 65 172q64 70 159 70q49 0 93 -24q43 -24 67 -66l-3 316q0 21 6 30t23 9q27 0 27 -26zM105 214q0 -69 47 -121q46 -51 113 -51q70 0 119 49
q50 50 50 132q0 79 -45 130t-113 51q-69 0 -120 -54t-51 -134v-2z" />
    <glyph glyph-name="e" unicode="e" horiz-adv-x="507" 
d="M106 212q0 -65 45 -113t118 -48q67 0 122 37q3 3 6 5q6 4 9 5q6 2 9 2q10 0 19 -9t9 -18q0 -16 -23 -33q-63 -45 -161 -45q-86 0 -147 63q-61 62 -64 150q0 101 64 177q65 77 156 77q79 0 134 -55q56 -56 56 -123v-17.5t-1 -12.5q-2 -11 -9 -21q-8 -11 -22 -15
q-15 -5 -42 -6q-12 -1 -44 -1h-86h-147zM275 412q-68 0 -114 -46t-52 -108q266 4 283 6q12 1 12 12q0 58 -39 96q-40 38 -91 38z" />
    <glyph glyph-name="f" unicode="f" horiz-adv-x="347" 
d="M186 400v-141v-142v-20t1 -29t1 -29v-20q0 -25 -28 -25q-27 0 -27 37v90v41.5t-1 81.5q-2 101 0 152h-90q-12 0 -19 6t-7 17q0 29 44 29h72v64q0 96 42 158t137 62q30 0 54 -9q18 -8 18 -24q0 -11 -6 -18t-16 -7q-8 0 -33 5q-23 4 -36 3q-53 -2 -81 -48t-28 -111v-74h121
q18 0 26 -6t8 -22q0 -24 -27 -24z" />
    <glyph glyph-name="g" unicode="g" horiz-adv-x="560" 
d="M256 -179q78 0 126 52t48 139v80q-59 -98 -174 -98q-89 0 -149 66t-60 154q0 106 66 177q66 70 161 70q97 0 159 -87v54q0 28 26 28q11 0 18 -7q8 -8 8 -19q-1 -118 -1.5 -200t-0.5 -130l1 -89q1 -110 -63 -174q-65 -65 -165 -65q-75 0 -135 28q-31 13 -31 33q0 10 8 18
t18 8q6 0 12 -3q3 -2 6.5 -3.5t8.5 -3.5t9 -4l8 -4q47 -19 99 -19zM99 214q0 -74 46 -121q46 -48 114 -48q72 0 122 48t50 129q0 90 -46 137t-117 49t-119 -54t-48 -139z" />
    <glyph glyph-name="h" unicode="h" horiz-adv-x="541" 
d="M80 692q0 40 31 40q26 0 26 -36v-43v-39.5t-1 -62.5t-1 -84.5v-106.5q22 47 66 76q43 28 102 28q76 0 123 -57q47 -58 47 -141v-239q0 -29 -29 -29t-29 26q2 47 3.5 106t1.5 131q0 73 -34 111q-35 39 -96 39q-65 0 -111 -51q-46 -50 -46 -124v-46t1 -71t1 -65.5v-28.5
q0 -28 -28 -28q-27 0 -27 25v36t1 42t1 37.5v21.5l-1 532z" />
    <glyph glyph-name="i" unicode="i" horiz-adv-x="229" 
d="M85 426q1 31 27 31q20 0 24 -10q5 -12 5 -45v-117v-117v-136v-16q0 -6 -3 -12q-3 -5 -9 -7q-8 -2 -16 -2q-15 0 -20 8t-5 26v396zM110 615q-19 0 -31 12t-12 32q6 45 48 45q21 0 32 -12q11 -13 11 -33q0 -45 -49 -45z" />
    <glyph glyph-name="j" unicode="j" horiz-adv-x="212" 
d="M81 428q2 26 26 26q28 0 28 -24v-264q0 -59 -1 -124.5t-3 -140.5q-1 -54 -41 -94q-39 -39 -100 -39q-23 0 -49 8q-24 7 -24 24q0 16 7 23q8 8 16 8q9 0 26 -6q16 -6 32 -6q36 0 57 27t24 72q2 26 3 109t1 223v35.5t-1 54.5t-1 54.5v35.5v-2zM105 614q-19 0 -31 12t-12 32
t14 32q13 12 35 12q21 0 32 -12q11 -13 11 -33q0 -22 -13 -34q-14 -12 -36 -12v3z" />
    <glyph glyph-name="k" unicode="k" horiz-adv-x="453" 
d="M414 45q10 -11 10 -20q0 -8 -8 -19q-7 -10 -21 -10q-13 0 -34 25l-167 193l-61 -60v-114q0 -25 -4 -34q-4 -10 -22 -10q-20 0 -24 9q-4 8 -4 35l2 123v439v56t-1 36q-2 36 29 36q17 0 21 -10q5 -12 5 -36v-231v-231l214 219q23 23 35 23q11 0 20 -9t9 -21q0 -9 -20 -29
l-161 -157z" />
    <glyph glyph-name="l" unicode="l" horiz-adv-x="219" 
d="M81 689q0 15 9 23q10 8 22 8q13 0 19 -6q5 -5 7 -14q1 -5 1 -30q0 -41 -3 -234q-3 -194 -3 -281v-20.5t1 -22.5t1.5 -25t1.5 -27q1 -29 3 -45q1 -11 -5 -17t-18 -6q-29 0 -30 45q-2 35 -2.5 198.5t1.5 455.5z" />
    <glyph glyph-name="m" unicode="m" horiz-adv-x="815" 
d="M78 239v82v54v30v16v6q0 29 28 29q26 0 27 -37l1 -51q22 49 66 72q43 22 90 22q49 0 87 -30q37 -30 48 -74q49 103 165 103q82 0 120 -54q37 -53 37 -142v-90v-34t-1 -46t-1 -44v-28q0 -26 -29 -26q-26 0 -26 24q2 91 3 148t1 82q0 157 -111 157q-61 0 -99 -38
q-37 -37 -40 -114v-97v-111v-20q0 -6 -3 -15t-10 -12q-8 -3 -18 -3q-24 0 -24 26q2 72 2 133.5t-1 115.5q-7 136 -111 136q-72 0 -108 -49q-36 -50 -36 -142l1 -199q-2 -23 -30 -23q-11 0 -18 6q-8 6 -8 16v44l4 179z" />
    <glyph glyph-name="n" unicode="n" horiz-adv-x="547" 
d="M85 412q0 22 6 33t24 11q16 0 21 -9q4 -9 6 -36v-53q21 50 68 77q46 27 104 27q79 0 123 -51q43 -50 43 -141v-135v-93q0 -19 -1 -24q-2 -8 -9 -14q-8 -6 -21 -6q-26 0 -26 28q0 14 0.5 41t1.5 66q2 78 0 119q-1 157 -123 157q-50 0 -84 -18q-35 -18 -51 -51
q-16 -31 -22 -66q-6 -33 -6 -75v-177q0 -28 -31 -28q-24 0 -24 27v35v86v149z" />
    <glyph glyph-name="o" unicode="o" horiz-adv-x="543" 
d="M293 460q16 0 21 -8q59 -8 101 -45q42 -38 60 -85q18 -48 18 -101q0 -100 -67 -166q-68 -66 -166 -66q-85 0 -150 62q-64 61 -64 158q0 112 68 183t180 71zM438 224q0 81 -43 128q-44 48 -127 54q-75 -4 -120 -59q-45 -54 -45 -144q0 -71 48 -116t107 -45q71 0 126 50
q54 49 54 132z" />
    <glyph glyph-name="p" unicode="p" horiz-adv-x="566" 
d="M80 427q1 31 28 31q26 0 27 -28v-72q26 47 72 74t102 27q92 0 149 -67q57 -68 57 -162q0 -101 -64 -171t-159 -70q-51 0 -92 22q-43 23 -68 60v-21t1 -36t1 -40v-32v-67v-72q0 -14 -7 -21q-8 -8 -21 -6q-26 2 -26 30l1 401l-1 222v-2zM458 228q0 76 -46 126
q-47 51 -112 51q-72 0 -121 -54q-49 -53 -49 -136q0 -80 45 -126q45 -47 112 -47q72 0 123 54t51 135z" />
    <glyph glyph-name="q" unicode="q" horiz-adv-x="559" 
d="M478 7v-107v-107q0 -28 -26 -28q-32 0 -30 32q1 24 1.5 92.5t0.5 183.5q-53 -84 -168 -84q-88 0 -148 69t-60 157q0 104 63 175q63 70 158 70q47 0 89 -24q43 -25 68 -67l1 58q0 13 9 21q10 8 20 8t18 -6t8 -18q-2 -75 -3 -119t-1 -58v-246v-2zM101 216q0 -71 48 -123
t114 -52q70 0 117 47t47 132q0 87 -46 137q-47 51 -108 51q-71 0 -120 -54q-50 -55 -50 -139z" />
    <glyph glyph-name="r" unicode="r" horiz-adv-x="347" 
d="M88 421q-1 31 27 31q25 0 25 -30l1 -85q27 59 71 90q43 30 89 30q38 0 38 -28q0 -26 -28 -26h-21q-60 0 -105 -55q-45 -56 -45 -132v-107.5t-1 -84.5q0 -28 -28 -28q-16 0 -22 10t-4 37q2 97 3.5 161.5t1.5 98.5v24t-1 36t-1 36.5v25.5v-4z" />
    <glyph glyph-name="s" unicode="s" horiz-adv-x="453" 
d="M232 451q81 0 132 -25q23 -12 23 -25q0 -26 -25 -26q-3 0 -45 14t-88 14q-47 0 -81 -24t-34 -60q0 -23 17 -37q16 -14 39 -18q22 -5 57 -9h4h3h3q37 -5 62 -12q27 -8 50 -21q25 -14 38 -37t13 -57q0 -64 -49 -100q-50 -36 -126 -36q-56 0 -114 18t-58 37q0 32 25 32
q1 0 54 -17t97 -17q50 0 84 22q35 23 35 60q0 39 -30 56q-31 17 -90 26q-17 2 -28.5 4t-19.5 4q-15 3 -42 12q-29 10 -41 19q-14 10 -24 30q-11 20 -11 45q0 58 53 97q52 39 120 39z" />
    <glyph glyph-name="t" unicode="t" horiz-adv-x="345" 
d="M45 400q-27 0 -27 23q0 27 31 27h72l1 92q0 47 29 47q8 0 14 -2q4 -1 6 -8q2 -8 2 -11v-18v-18t-1 -31t-1 -31.5v-19.5l115 1q28 0 28 -25t-31 -25h-111v-221q0 -74 16 -105t58 -31q15 0 30 6t23 6q10 0 16 -9t6 -19q0 -16 -17 -24q-26 -10 -54 -10q-72 0 -102 40
t-30 133q0 19 0.5 48t1.5 69t1.5 69t0.5 48h-77v-1z" />
    <glyph glyph-name="u" unicode="u" horiz-adv-x="555" 
d="M104 453q24 0 24 -29q-3 -204 -3 -216q0 -70 30 -118t93 -48q92 0 129 61t39 171l1 146q0 35 28 35q15 0 21 -7q6 -8 6 -27v-12t-1 -30t-1 -43v-51v-102q0 -32 1.5 -71t5.5 -85q2 -29 -26 -29q-25 0 -28 30q-3 27 -3 81q-19 -50 -62 -84q-42 -33 -107 -33q-89 0 -132 57
q-44 58 -44 155v107v106q0 38 32 38z" />
    <glyph glyph-name="v" unicode="v" horiz-adv-x="485" 
d="M32 407q-7 17 -7 26q0 10 9 18q8 7 21 7q3 0 9 -2t8 -4q3 -3 6 -9q2 -3 3 -5l2 -4t2 -4.5l3 -7.5t3 -8t2 -5l147 -353q48 105 87 195t68 168q13 36 32 36q11 0 20 -6t9 -16q0 -14 -12 -39q-2 -2 -18 -40q-8 -20 -17.5 -41.5t-20.5 -45.5t-23.5 -52t-26.5 -60t-27.5 -60.5
t-25.5 -53.5q-13 -27 -21 -37q-8 -9 -26 -9q-5 0 -13 2q-5 1 -10 8q-3 4 -7 10q-3 4 -9 18q-3 7 -5 12t-4 8l-156 356z" />
    <glyph glyph-name="w" unicode="w" horiz-adv-x="743" 
d="M38 425q-2 8 -2 11q0 11 11 17q10 6 21 6q17 0 23 -19q82 -308 105 -384q37 91 73 185t71 194q7 19 29 19q25 0 34 -29l142 -364l83 300l20 72q4 21 23 21q10 0 21 -6q10 -6 10 -16q0 -9 -1 -11q-5 -16 -17 -55.5t-31 -104.5t-31.5 -107.5t-19.5 -62.5q-20 -65 -24 -75
q-9 -19 -30 -19q-26 0 -39 39q-11 24 -30 72.5t-48 121.5t-43 110t-15 39l-122 -316q-17 -41 -27 -54q-11 -14 -30 -14q-29 0 -40 38q-35 114 -69 237q-35 123 -45 156z" />
    <glyph glyph-name="x" unicode="x" horiz-adv-x="490" 
d="M156 156l57 70l-22 24l-123 142q-19 22 -19 34q0 10 9 18q10 8 20 8q13 0 27 -18l139 -171q17 19 48 57.5t79 98.5l9 12q3 4 5 6l4 4l7 7q4 4 9 6q3 1 9 1q9 0 18 -9t9 -18q0 -6 -1 -9q-2 -5 -6 -11l-7 -10q-2 -2 -4.5 -5t-6.5 -8t-7 -8.5t-5 -5.5l-122 -144l155 -185
q13 -17 13 -23q0 -11 -9 -18q-10 -8 -19 -8q-14 0 -31 23l-142 176l-140 -171q-5 -6 -7.5 -10t-4.5 -6q-3 -4 -10 -7q-8 -3 -16 -3q-10 0 -18 8q-7 7 -7 18q0 13 13 27z" />
    <glyph glyph-name="y" unicode="y" horiz-adv-x="483" 
d="M241 66q32 67 70 157t83 205l6 15q1 4 8 9t17 5q13 0 20 -7q8 -8 8 -19q0 -9 -4 -18q-26 -66 -84.5 -194.5t-149.5 -323.5q-66 -118 -141 -118q-58 0 -58 29q0 15 8 21q7 6 26 6q38 0 57 11q17 10 45 53q8 14 23.5 43t38.5 75l-46 98l-120 275q-16 35 -16 44q0 10 9 18
q10 8 20 8q13 0 22 -15q58 -140 98 -233.5t63 -144.5z" />
    <glyph glyph-name="z" unicode="z" horiz-adv-x="442" 
d="M270 407q-13 0 -36 -0.5t-57 -1.5q-68 -2 -108 0q-24 0 -24 25q0 16 12 22t38 6h34t47 -1t47 -1h34h19.5t27.5 1t28 1h20q44 0 44 -30q-1 -14 -5 -19q-4 -6 -7.5 -12t-8.5 -12l-10 -12t-11 -13q-13 -14 -17 -20l-215 -264l-18 -24l218 5q18 1 31.5 1.5t21.5 0.5
q28 0 28 -26q0 -28 -29 -30h-20h-27h-36t-66 -1t-74.5 -1h-59.5q-25 0 -36 8q-10 7 -10 30q0 9 4 17t17 26q11 15 20 24q7 7 30 36l216 264l-57 -1z" />
    <glyph glyph-name="braceleft" unicode="{" horiz-adv-x="285" 
d="M30 265q0 9 5 19q4 8 8 12q3 3 17 11q7 4 11 6l6 3q1 1 3.5 3l7.5 6t8 6.5t5 4.5q3 2 12 11q7 7 10 13q4 8 6 13q3 7 3 15q0 37 -21 102q-21 64 -21 102q0 52 41 95q40 42 102 42q9 0 15 -7q6 -8 6 -16q0 -11 -6 -18t-15 -7q-37 0 -65 -26q-27 -26 -27 -62q0 -35 20 -103
t20 -103q0 -67 -99 -122q27 -17 45 -30q19 -14 36 -37q18 -24 18 -50q0 -38 -19 -102t-19 -103q0 -35 25 -63t64 -28q8 0 14 -7q6 -8 6 -16q0 -23 -19 -23q-63 0 -102 41q-39 40 -39 96q0 36 20 102q19 64 21 101q0 7 -3 15t-10 15l-12 12q-4 4 -16 13l-9 7.5t-4 3.5
q-5 1 -12 6q-8 4 -11 8q-2 2 -4 3.5t-5 3.5q-6 4 -9 9q-2 3 -4 11t-2 14z" />
    <glyph glyph-name="bar" unicode="|" horiz-adv-x="243" 
d="M94 689q0 32 25 32q18 0 23 -8t5 -35v-255v-255l1 -330q0 -19 -6 -28t-23 -9q-24 0 -24 34l1 333l-1 521h-1z" />
    <glyph glyph-name="braceright" unicode="}" horiz-adv-x="285" 
d="M250 259q0 -7 -2 -15q-1 -5 -8 -12l-9 -9q-2 -2 -14 -9q-5 -3 -8.5 -5t-5.5 -3q-1 -1 -13 -10t-16 -13l-12 -12q-7 -7 -10 -15t-3 -15q2 -37 21 -101q20 -66 20 -102q0 -56 -39 -96t-102 -40q-19 0 -19 24q0 9 6 15t14 6q39 0 64 28t25 63q0 40 -19 104t-19 102
q0 26 18 50q19 25 36 38q18 13 45 30q-99 55 -99 122q0 36 20 104t20 103q0 36 -27 62q-28 26 -65 26q-9 0 -15 8q-6 7 -6 18q0 9 6 17t15 8q61 0 102 -42q41 -43 41 -95q0 -38 -21 -102q-21 -65 -21 -102q0 -9 3 -18t12 -18l12 -12q2 -3 16 -13l13 -11l6 -3t11 -6t11 -6
t6 -4q4 -4 8 -12q5 -10 5 -19z" />
    <glyph glyph-name="asciitilde" unicode="~" horiz-adv-x="500" 
d="M97 237q-2 -2 -3 -4q-2 -4 -3 -5l-4 -4q-3 -3 -6 -3q-4 0 -6 -1t-7 -1q-12 0 -18 10t-1 22q37 81 114 81q35 0 65 -21q15 -11 30 -21t29 -21q28 -21 57 -21q35 0 58 51q7 21 27 21q12 0 18 -9q6 -8 4 -19q-16 -44 -42 -67q-25 -22 -69 -22q-35 0 -66 21q-16 11 -30 21
l-28 20q-27 19 -53 21q-10 0 -15 -1t-13 -5q-3 -2 -5.5 -3t-4.5 -2q-4 -1 -9 -8q-5 -6 -6 -9q-1 -2 -2.5 -4t-3.5 -6q-5 -8 -6 -9z" />
    <glyph glyph-name="uni00A0" unicode="&#xa0;" horiz-adv-x="247" 
 />
    <glyph glyph-name="exclamdown" unicode="&#xa1;" horiz-adv-x="213" 
d="M87 207q1 24 6 33q4 9 18 9q21 0 21 -27q2 -153 3.5 -250.5t1.5 -141.5q0 -34 -4 -45q-5 -12 -24 -12q-30 0 -30 29l5 246zM107 459q19 0 33 -12t14 -33q0 -19 -12 -31t-32 -12t-32 14q-12 13 -12 33q0 18 12 30t30 12z" />
    <glyph glyph-name="cent" unicode="&#xa2;" horiz-adv-x="465" 
d="M398 532q16 -10 16 -25q0 -10 -7 -18q-8 -9 -18 -9q-4 0 -12 2q-6 1 -15 6l-12 6q-35 16 -77 16q-70 0 -117 -59q-46 -58 -46 -126q0 -76 42 -125q42 -50 110 -50q59 0 97 23q31 18 39 18q9 0 17 -9q8 -10 8 -18q0 -11 -9 -20q-50 -44 -123 -48v-78q0 -20 -6 -27
q-6 -8 -22 -8q-24 0 -24 32v83q-59 9 -102 45q-43 35 -64 81q-21 44 -19 93q2 86 52 157q51 73 135 86l-1 104q0 32 24 32q15 0 21 -8t6 -27v-98q58 -4 106 -33z" />
    <glyph glyph-name="sterling" unicode="&#xa3;" horiz-adv-x="516" 
d="M73 322q-22 0 -22 25q0 24 31 24h71q-4 27 -6 89q-5 106 39 165t133 59q43 0 85 -20q27 -15 14 -39q-9 -18 -38 -6q-35 15 -66 15q-113 0 -113 -153q0 -67 7 -108q32 1 66 1h72q28 0 28 -22q0 -18 -9 -24t-38 -6h-54h-56q27 -182 -15 -240l27 -9q24 -8 40 -12
q9 -2 19.5 -5t22.5 -6q25 -6 43 -9q19 -3 33 -3q37 0 46 30q7 24 27 24q11 0 18 -7q7 -8 6 -21q-12 -73 -105 -73q-35 0 -132 27q-100 28 -117 29q-32 0 -48 -25l-2 -4t-3 -5q-3 -6 -6 -9q-4 -4 -7 -6q-5 -3 -12 -3q-13 0 -19 8q-6 7 -6 18q0 31 29 54t65 23q10 0 34 -6
q22 26 23 102q2 79 -10 128h-89h-6z" />
    <glyph glyph-name="currency" unicode="&#xa4;" horiz-adv-x="556" 
d="M296 501q47 0 90 -29l63 72q1 1 1.5 2t2.5 3t2.5 3t1.5 2q2 2 3 4t3 4l3 3q2 2 3 2t3 2t3 2l4 1h5q10 0 18 -7q9 -8 9 -18q0 -13 -30 -44l-60 -62q48 -63 48 -136q0 -67 -39 -121l71 -74q13 -13 13 -25q0 -11 -9 -18q-10 -8 -18 -8q-11 0 -33 24l-59 68q-57 -42 -123 -42
q-60 0 -118 48l-56 -64l-6 -7.5t-4 -4.5l-7 -7q-5 -5 -9 -6q-3 -1 -10 -1q-10 0 -18 8q-7 7 -7 18q0 8 11 27l74 74q-30 46 -30 98q0 87 50 146l-77 80q-4 4 -6 7t-5 6q-1 1 -3 5t-3 5t-1 5v6q0 10 9 18q10 8 19 8q12 0 27 -18l77 -90q52 33 116 33zM422 304q0 66 -37 107
q-38 42 -103 42q-58 0 -97 -45t-39 -118q0 -55 41 -96q40 -40 87 -40q55 0 102 44t47 108z" />
    <glyph glyph-name="yen" unicode="&#xa5;" horiz-adv-x="581" 
d="M133 245q-13 0 -19 9q-6 8 -4 19q1 21 39 21h51h51l-208 321q-15 22 -15 33q0 10 9 18q10 8 20 8q17 0 30 -25q85 -137 135.5 -218t67.5 -107l193 311q13 22 21 30t18 8q11 0 21 -8q9 -8 9 -18q0 -6 -1 -9t-3 -7l-6 -10l-3.5 -7t-3.5 -5l-208 -315h102q23 0 30 -4
q8 -5 8 -18q0 -15 -8 -20t-27 -5h-115v-39v-39h117q34 0 34 -22q0 -14 -7 -20q-8 -6 -28 -6h-116v-86q0 -19 -6 -28t-22 -9q-17 0 -23 9t-6 29l1 85l-126 1q-26 0 -26 27q0 22 33 22h60h60q1 13 1 32.5v45.5h-79h-52z" />
    <glyph glyph-name="brokenbar" unicode="&#xa6;" horiz-adv-x="243" 
d="M94 165q0 31 25 31q19 0 23 -7q5 -8 5 -34v-193v-126q0 -19 -5 -27t-21 -8q-26 0 -26 35v185v146zM94 527v176q0 10 8 18q7 7 18 7q26 0 26 -31v-172v-179q0 -18 -6 -25t-20 -7q-26 0 -26 29v184z" />
    <glyph glyph-name="section" unicode="&#xa7;" horiz-adv-x="489" 
d="M57 317q0 73 78 126q-43 27 -43 89q0 68 57 115q56 46 123 46q63 0 114 -23q21 -11 21 -25q0 -23 -24 -23q-4 0 -40 12t-75 12q-49 0 -87 -32q-37 -31 -37 -78q0 -43 30 -62t86 -33q82 -20 126 -54q43 -34 45 -101q3 -80 -61 -138q28 -34 28 -84q0 -70 -53 -117
q-52 -46 -126 -46q-51 0 -108 20q-52 18 -53 40q0 10 6 18t17 8q6 0 24 -8q55 -28 113 -28q52 0 90 30t38 79q0 50 -31 71q-33 22 -99 38q-36 9 -59 18t-50 26q-26 17 -39 43t-13 63zM249 395q-50 9 -80 25q-64 -46 -64 -99q0 -26 10 -43q11 -18 31 -30q11 -6 20.5 -10.5
t18.5 -8.5q19 -8 46 -15q24 -6 51 -15t42 -15l16 -7q45 50 44 102q-2 49 -36 75q-35 25 -99 39v2z" />
    <glyph glyph-name="dieresis" unicode="&#xa8;" horiz-adv-x="318" 
d="M78 577q-16 0 -28 12t-12 31q0 17 13 29t33 12q19 0 31 -12t12 -30q0 -19 -13 -31q-14 -12 -34 -12zM229 580q-16 0 -28 12t-12 29t13 29t33 12q19 0 30 -12q11 -13 11 -31q0 -20 -13 -30t-33 -10z" />
    <glyph glyph-name="copyright" unicode="&#xa9;" horiz-adv-x="757" 
d="M380 685q136 0 231 -96q95 -97 95 -242q0 -153 -91 -254q-92 -102 -235 -102q-131 0 -231 93t-100 238q0 162 99 263t233 101zM658 344q-2 128 -82 210q-81 82 -204 82q-122 0 -198 -87q-77 -88 -77 -220q0 -127 86 -210q85 -82 204 -82q116 0 194 93q78 94 77 214z
M484 495q13 -9 13 -21q0 -7 -5 -15q-4 -7 -15 -7q-3 0 -9 2q-3 1 -11 5q-3 2 -5 3l-4 2q-30 14 -67 14q-54 0 -90 -45t-36 -100q0 -62 39 -104t90 -42q47 0 72 16q25 15 32 15q8 0 14 -7q6 -8 6 -15q0 -10 -8 -18q-45 -39 -115 -39q-77 0 -126 57q-50 58 -50 132
q0 76 50 135t125 59q56 0 103 -28z" />
    <glyph glyph-name="ordfeminine" unicode="&#xaa;" horiz-adv-x="392" 
d="M340 457q0 -16 0.5 -42t1.5 -63q0 -19 -22 -19q-21 0 -21 25v30q-36 -58 -121 -58q-65 0 -107 45t-42 107q0 73 47 125q46 51 114 51q70 0 110 -55v25q0 28 21 28q10 0 15 -6q4 -6 6 -12q1 -4 1 -20q-1 -10 -1 -29.5v-49.5v-82h-2zM78 485q0 -48 32 -82q31 -33 75 -33
q51 0 84 35q33 34 33 89q0 59 -34 92q-35 33 -81 33q-49 0 -80 -39q-32 -40 -32 -97z" />
    <glyph glyph-name="guillemotleft" unicode="&#xab;" horiz-adv-x="424" 
d="M88 240l110 -121q16 -16 16 -27q0 -7 -8 -15q-7 -7 -17 -7q-9 0 -24 15l-118 118q-19 19 -19 36q0 13 17 32q10 10 25.5 26t37.5 39q43 45 57 60q11 11 20 11q7 0 15 -6t8 -15q0 -11 -15 -27zM270 240l110 -121q16 -16 16 -27q0 -7 -8 -15q-7 -7 -17 -7q-9 0 -24 15
l-118 118q-19 19 -19 36q0 13 17 32q10 10 25.5 26t37.5 39q43 45 57 60q11 11 20 11q7 0 15 -6t8 -15q0 -11 -15 -27z" />
    <glyph glyph-name="logicalnot" unicode="&#xac;" horiz-adv-x="480" 
d="M59 247q-27 0 -27 24q0 26 28 26h58.5t124.5 1t121.5 1h49.5q26 0 26 -32v-87v-75q0 -29 -24 -29q-26 0 -26 27v146q-63 -1 -145.5 -1.5t-185.5 -0.5z" />
    <glyph glyph-name="uni00AD" unicode="&#xad;" horiz-adv-x="347" 
d="M72 213q-28 0 -28 25t38 25h192q31 0 31 -21q0 -16 -9 -22t-34 -6h-191z" />
    <glyph glyph-name="registered" unicode="&#xae;" horiz-adv-x="754" 
d="M380 683q136 0 231 -96q94 -95 94 -241q0 -152 -90 -254t-234 -102q-85 0 -159 40q-75 41 -123 118q-48 78 -48 175q0 163 98 263q97 99 231 99v-2zM655 341q-2 127 -81 210q-79 82 -203 82q-121 0 -198 -86t-77 -219q0 -127 86 -210q85 -82 204 -82q116 0 194 93
q78 94 77 214zM269 493q0 29 37 29h72q57 0 89 -30t32 -76q0 -39 -20 -68t-51 -39q13 -20 84 -114q9 -9 9 -20q0 -7 -6 -13t-15 -6q-11 0 -17 9l-98 136h-46h-27v-120q0 -24 -23 -24q-20 0 -20 21l2 61v96v98v63zM370 484h-29h-31v-148h55q45 0 70 17q24 16 24 60
q0 71 -88 71h-1z" />
    <glyph glyph-name="macron" unicode="&#xaf;" horiz-adv-x="346" 
d="M67 603q-26 0 -26 25q0 27 41 27h42h42h29t36 1t31 1h14q28 0 29 -22q1 -15 -9 -22t-31 -7h-51h-57h-21t-28 -1t-26.5 -1h-15.5z" />
    <glyph glyph-name="degree" unicode="&#xb0;" horiz-adv-x="285" 
d="M143 681q50 0 83 -33t33 -86t-34 -87t-87 -34q-47 0 -80 33t-33 83q0 55 33 90t86 35zM223 563q0 38 -22 60q-23 23 -60 23q-35 0 -57 -24q-22 -23 -22 -63q0 -35 22 -58q22 -24 55 -24q35 0 59 24t24 63z" />
    <glyph glyph-name="plusminus" unicode="&#xb1;" horiz-adv-x="480" 
d="M69 317q-13 0 -19 9q-6 8 -4 20q1 13 12 18q9 4 34 4h129v165q0 14 8 20q7 6 18 6q14 0 20 -9t6 -31v-153h149q26 0 26 -25q0 -16 -7 -20q-8 -5 -30 -5q-11 -1 -45.5 -1h-92.5v-93v-69q0 -24 -28 -24q-23 0 -23 37v148h-151zM55 4q-13 0 -19 9q-6 8 -4 20q1 21 41 21h67
h84h188q25 0 25 -23q0 -16 -10 -22q-11 -6 -37 -6h-335v1z" />
    <glyph glyph-name="twosuperior" unicode="&#xb2;" horiz-adv-x="317" 
d="M147 701q-40 0 -68 -33q-12 -14 -26 -14q-9 0 -15 7t-6 18q0 13 18 30q41 41 98 41q51 0 88 -32q36 -32 36 -81q0 -5 -0.5 -10.5t-1.5 -10.5q-2 -12 -4 -18q-3 -8 -9 -18q-6 -11 -9 -15t-14 -17q-5 -6 -8.5 -9.5l-5.5 -5.5l-17 -17q-15 -15 -17 -18l-90 -86h45.5t56.5 1
t47.5 1h18.5q10 0 18 -6q7 -6 7 -16q0 -23 -27 -23h-31h-37h-133q-26 0 -26 25q0 19 20 39l107 106q22 21 33 33q10 11 21 32q11 20 11 38q0 28 -21 48q-22 20 -55 20z" />
    <glyph glyph-name="threesuperior" unicode="&#xb3;" horiz-adv-x="311" 
d="M230 491q0 35 -24 53t-60 18h-25q-22 0 -22 24q0 11 12 23q8 8 20.5 21t29.5 30t28.5 29t18.5 19h-90.5t-52.5 -1q-25 0 -25 22t22 22h66h60h59q15 0 20 -4q6 -5 6 -18t-20 -33l-93 -96q46 1 81 -27q35 -29 35 -78q0 -58 -35 -93t-95 -35q-57 0 -94 24q-21 13 -21 28
q0 10 6 16t14 6q6 0 24 -8q37 -21 71 -21q37 0 59 22q23 23 23 58z" />
    <glyph glyph-name="acute" unicode="&#xb4;" horiz-adv-x="227" 
d="M77 558q-11 -8 -18 -8q-9 0 -16 6t-7 15q0 7 8 18q2 2 12 13t28 31q37 40 59 68q10 12 21 12t20 -9t9 -19q0 -7 -11 -21q-25 -28 -50.5 -54.5t-52.5 -52.5z" />
    <glyph glyph-name="mu" unicode="&#xb5;" horiz-adv-x="556" 
d="M108 454q24 0 24 -29v-33t-1 -56t-1 -66v-63q0 -71 28 -118q28 -48 93 -48q72 0 117 56q45 55 45 132v93v98q0 37 31 37q26 0 26 -33q-1 -39 -1.5 -94.5t-0.5 -127.5q0 -110 18 -135l12 -12q6 -6 12 -14q5 -7 5 -13q0 -13 -7 -20q-8 -8 -19 -8q-23 0 -42 22
q-23 28 -28 81q-51 -107 -186 -107q-37 0 -66 20q-28 19 -39 44q0 -49 -3 -91.5t-8 -79.5q-14 -96 -51 -96q-29 0 -29 29q0 15 9 33q9 17 18 53q10 37 11 87q2 70 3 115.5t1 66.5v90v116v8v23.5t1 14.5q1 10 9 18t22 8z" />
    <glyph glyph-name="paragraph" unicode="&#xb6;" horiz-adv-x="608" 
d="M477 626h-159v-582q0 -22 -1 -27q-2 -8 -7 -15q-6 -8 -20 -8q-26 0 -26 29q0 14 0.5 48.5t1.5 91.5q1 112 0 156h-13q-117 0 -166 47q-48 46 -48 132q0 79 50 129t135 50h62h42.5t119.5 1h24h26q32 0 32 -31v-33v-30.5t-1 -47.5t-1 -63v-77v-181v-181q0 -23 -6 -30
q-6 -8 -22 -8q-19 0 -23 12q-5 13 -5 40z" />
    <glyph glyph-name="periodcentered" unicode="&#xb7;" horiz-adv-x="192" 
d="M93 194q-18 0 -30 12t-12 32t14 32q13 12 33 12t32 -13q12 -14 12 -33t-14 -30t-35 -11v-1z" />
    <glyph glyph-name="cedilla" unicode="&#xb8;" horiz-adv-x="243" 
d="M103 2h40l-19 -57q29 0 54 -19q26 -20 26 -57q0 -42 -26 -66t-66 -24q-26 0 -52 14q-19 10 -19 24q0 8 6 14t15 6q4 0 23 -8t34 -8q42 0 42 45q0 39 -52 39h-9q-14 0 -21 12q-8 12 -3 27z" />
    <glyph glyph-name="onesuperior" unicode="&#xb9;" horiz-adv-x="251" 
d="M70 648q-9 -6 -16 -6q-8 0 -14 6t-6 14q0 10 12 21l84 61q13 10 27 10q8 0 14 -6t6 -13v-58v-58v-227q0 -21 -23 -21q-11 0 -18 6t-7 17q0 28 3 141q3 112 3 160q-36 -30 -64 -48z" />
    <glyph glyph-name="ordmasculine" unicode="&#xba;" horiz-adv-x="387" 
d="M357 490q0 -70 -46 -116q-47 -47 -117 -47q-65 0 -114 47q-48 46 -48 108q0 73 47 125q46 51 114 51q72 0 117 -47t45 -119zM77 482q0 -49 35 -82q34 -33 80 -33q49 0 84 35q34 34 34 87q0 58 -33 93q-33 34 -83 34q-49 0 -82 -38t-33 -96h-2z" />
    <glyph glyph-name="guillemotright" unicode="&#xbb;" horiz-adv-x="424" 
d="M48 358q-15 16 -15 27q0 9 8 15q7 6 15 6q9 0 20 -11q13 -15 57 -60q22 -23 37.5 -38.5l25.5 -25.5q17 -19 17 -32q0 -17 -19 -36l-118 -118q-15 -15 -24 -15q-10 0 -17 7q-8 8 -8 15q0 11 16 27l110 121zM231 357q-15 16 -15 27q0 9 8 15q7 6 15 6q9 0 20 -11
q13 -15 57 -60q22 -23 37.5 -38.5l25.5 -25.5q17 -19 17 -32q0 -17 -19 -36l-118 -118q-15 -15 -24 -15q-10 0 -17 7q-8 8 -8 15q0 11 16 27l110 121z" />
    <glyph glyph-name="onequarter" unicode="&#xbc;" horiz-adv-x="753" 
d="M608 202q0 28 21 28q24 0 24 -23v-87l46 1q23 0 23 -19q0 -26 -20 -26h-49v-58q0 -13 -4 -17q-5 -5 -18 -5q-23 0 -23 22v29v29h-46h-58h-44q-15 0 -22 9q-7 8 -7 20q0 14 13 33l120 225q9 19 24 19q10 0 18 -6t8 -15q0 -7 -4 -15l-124 -225l123 1v82zM513 662
q9 16 23 16q7 0 15 -6q7 -6 7 -15q0 -8 -8 -24q-8 -14 -63 -105q-56 -92 -90 -153l-212 -365q-9 -16 -22 -16q-9 0 -16 6t-7 16q0 11 7 21l368 624zM73 575q-9 -6 -16 -6q-8 0 -14 6t-6 14q0 10 12 21l84 61q13 10 27 10q8 0 14 -6t6 -13v-58v-58v-227q0 -21 -23 -21
q-11 0 -18 6t-7 17q0 28 3 141q3 112 3 160q-36 -30 -64 -48z" />
    <glyph glyph-name="onehalf" unicode="&#xbd;" horiz-adv-x="753" 
d="M512 664q9 16 23 16q7 0 15 -6q7 -6 7 -15q0 -8 -8 -24q-8 -14 -63 -105q-56 -92 -90 -153l-212 -365q-9 -16 -22 -16q-9 0 -16 6t-7 16q0 11 7 21l368 624zM74 577q-9 -6 -16 -6q-8 0 -14 6t-6 14q0 10 12 21l84 61q13 10 27 10q8 0 14 -6t6 -13v-58v-58v-227
q0 -21 -23 -21q-11 0 -18 6t-7 17q0 28 3 141q3 112 3 160q-36 -30 -64 -48zM581 330q-40 0 -68 -33q-12 -14 -26 -14q-9 0 -15 7t-6 18q0 13 18 30q41 41 98 41q51 0 88 -32q36 -32 36 -81q0 -5 -0.5 -10.5t-1.5 -10.5q-2 -12 -4 -18q-3 -8 -9 -18q-6 -11 -9 -15t-14 -17
q-5 -6 -8.5 -9.5l-5.5 -5.5l-17 -17q-15 -15 -17 -18l-90 -86h45.5t56.5 1t47.5 1h18.5q10 0 18 -6q7 -6 7 -16q0 -23 -27 -23h-31h-37h-133q-26 0 -26 25q0 19 20 39l107 106q22 21 33 33q10 11 21 32q11 20 11 38q0 28 -21 48q-22 20 -55 20z" />
    <glyph glyph-name="threequarters" unicode="&#xbe;" horiz-adv-x="783" 
d="M641 202q0 28 21 28q24 0 24 -23v-87l46 1q23 0 23 -19q0 -26 -20 -26h-49v-58q0 -13 -4 -17q-5 -5 -18 -5q-23 0 -23 22v29v29h-149q-15 0 -22 9q-7 8 -7 20q0 14 13 33l120 225q9 19 24 19q10 0 18 -6t8 -15q0 -7 -4 -15l-124 -225l123 1v82v-2zM558 662q9 16 23 16
q7 0 15 -6q7 -6 7 -15q0 -8 -8 -24q-8 -14 -63 -105q-56 -92 -90 -153l-212 -365q-9 -16 -22 -16q-9 0 -16 6t-7 16q0 11 7 21l368 624zM238 418q0 35 -24 53t-60 18h-25q-22 0 -22 24q0 11 12 23q8 8 20.5 21t29.5 30t28.5 29t18.5 19h-90.5t-52.5 -1q-25 0 -25 22t22 22
h66h60h59q15 0 20 -4q6 -5 6 -18t-20 -33l-93 -96q46 1 81 -27q35 -29 35 -78q0 -58 -35 -93t-95 -35q-57 0 -94 24q-21 13 -21 28q0 10 6 16t14 6q6 0 24 -8q37 -21 71 -21q37 0 59 22q23 23 23 58z" />
    <glyph glyph-name="questiondown" unicode="&#xbf;" horiz-adv-x="481" 
d="M422 -143q0 -12 -15 -24q-83 -69 -172 -69q-81 0 -140 49q-60 49 -60 132q0 22 4 38q5 18 16 34q6 8 10.5 15t8.5 12q7 9 27 25q10 8 16.5 13t10.5 7t11.5 7l19.5 13t18.5 12t8.5 5q49 31 51 74q1 10 -3 21q-5 12 -5 21q0 24 26 24q39 0 39 -66q0 -39 -21 -66t-65 -53
q-14 -8 -24.5 -14.5t-17.5 -11.5q-14 -9 -33 -27q-21 -19 -29 -37q-9 -20 -9 -43q0 -55 43 -91t105 -36q67 0 123 47q25 21 36 21q10 0 18 -8t8 -18zM295 407q0 -20 -15 -33q-16 -14 -34 -14q-22 0 -34 13t-12 34q0 22 14 34q13 12 35 12t36 -12q13 -12 13 -32z" />
    <glyph glyph-name="Agrave" unicode="&#xc0;" horiz-adv-x="629" 
d="M31 22q0 11 14 42q108 256 111 261q7 17 39 99t90 232q10 24 34 24q22 0 33 -24q16 -38 66 -171q49 -134 72 -189q1 -2 2 -5t3 -8t3 -8t2 -5l95 -229q6 -17 6 -22q0 -8 -9 -15q-8 -7 -20 -7q-15 0 -21 6q-5 5 -13 26q-14 36 -30 78q-8 21 -14.5 37.5t-11.5 28.5t-7 19
t-3 9h-76h-132h-107q-5 -12 -30 -78q-13 -33 -21 -54t-12 -29l-2.5 -5t-3.5 -8t-3.5 -8l-2.5 -5l-2 -4t-3 -5q-3 -5 -8 -7q-3 -1 -10 -1q-30 0 -30 25h2zM319 606q-26 -71 -61.5 -160.5t-80.5 -198.5q73 -1 141.5 -1t134.5 2q-8 19 -63 171q-28 76 -45.5 123t-25.5 66v-2z
M345 742q-28 28 -53 55t-48 53q-11 14 -11 23q0 10 9 18q10 8 18 8q14 0 24 -13q11 -15 34.5 -42.5t58.5 -69.5q9 -11 9 -18t-7 -13q-8 -6 -15 -6q-6 0 -17 8z" />
    <glyph glyph-name="Aacute" unicode="&#xc1;" horiz-adv-x="629" 
d="M31 22q0 11 14 42q108 256 111 261q7 17 39 99t90 232q10 24 34 24q22 0 33 -24q16 -38 66 -171q49 -134 72 -189q1 -2 2 -5t3 -8t3 -8t2 -5l95 -229q6 -17 6 -22q0 -8 -9 -15q-8 -7 -20 -7q-15 0 -21 6q-5 5 -13 26q-14 36 -30 78q-8 21 -14.5 37.5t-11.5 28.5t-7 19
t-3 9h-76h-132h-107q-5 -12 -30 -78q-13 -33 -21 -54t-12 -29l-2.5 -5t-3.5 -8t-3.5 -8l-2.5 -5l-2 -4t-3 -5q-3 -5 -8 -7q-3 -1 -10 -1q-30 0 -30 25h2zM319 606q-26 -71 -61.5 -160.5t-80.5 -198.5q73 -1 141.5 -1t134.5 2q-8 19 -63 171q-28 76 -45.5 123t-25.5 66v-2z
M297 746q-11 -8 -18 -8q-9 0 -16 6t-7 15q0 7 8 18q2 2 12 13t28 31q37 40 59 68q10 12 21 12t20 -9t9 -19q0 -7 -11 -21q-25 -28 -50.5 -54.5t-52.5 -52.5z" />
    <glyph glyph-name="Acircumflex" unicode="&#xc2;" horiz-adv-x="629" 
d="M31 22q0 11 14 42q108 256 111 261q7 17 39 99t90 232q10 24 34 24q22 0 33 -24q16 -38 66 -171q49 -134 72 -189q1 -2 2 -5t3 -8t3 -8t2 -5l95 -229q6 -17 6 -22q0 -8 -9 -15q-8 -7 -20 -7q-15 0 -21 6q-5 5 -13 26q-14 36 -30 78q-8 21 -14.5 37.5t-11.5 28.5t-7 19
t-3 9h-76h-132h-107q-5 -12 -30 -78q-13 -33 -21 -54t-12 -29l-2.5 -5t-3.5 -8t-3.5 -8l-2.5 -5l-2 -4t-3 -5q-3 -5 -8 -7q-3 -1 -10 -1q-30 0 -30 25h2zM319 606q-26 -71 -61.5 -160.5t-80.5 -198.5q73 -1 141.5 -1t134.5 2q-8 19 -63 171q-28 76 -45.5 123t-25.5 66v-2z
M427 723q-5 0 -9 3q-5 3 -6 6l-3 3q-1 1 -23 23.5t-67 67.5l-42 -42l-33 -34q-11 -12 -18 -18q-8 -6 -16 -6q-6 0 -13 7t-7 15t11 22l87 97q15 16 31 16q14 0 28 -14l88 -100q13 -14 13 -22t-6 -14t-14 -6z" />
    <glyph glyph-name="Atilde" unicode="&#xc3;" horiz-adv-x="629" 
d="M31 22q0 11 14 42q108 256 111 261q7 17 39 99t90 232q10 24 34 24q22 0 33 -24q16 -38 66 -171q49 -134 72 -189q1 -2 2 -5t3 -8t3 -8t2 -5l95 -229q6 -17 6 -22q0 -8 -9 -15q-8 -7 -20 -7q-15 0 -21 6q-5 5 -13 26q-14 36 -30 78q-8 21 -14.5 37.5t-11.5 28.5t-7 19
t-3 9h-76h-132h-107q-5 -12 -30 -78q-13 -33 -21 -54t-12 -29l-2.5 -5t-3.5 -8t-3.5 -8l-2.5 -5l-2 -4t-3 -5q-3 -5 -8 -7q-3 -1 -10 -1q-30 0 -30 25h2zM319 606q-26 -71 -61.5 -160.5t-80.5 -198.5q73 -1 141.5 -1t134.5 2q-8 19 -63 171q-28 76 -45.5 123t-25.5 66v-2z
M219 779q-1 -19 -24 -19q-10 0 -16 8q-6 7 -4 18q1 33 26 54q24 21 58 21t68 -31t59 -33q30 0 32 45q1 9 9 15q7 6 15 6q22 0 22 -20q0 -44 -22 -65q-23 -21 -60 -21q-35 2 -69 31t-55 31q-32 0 -36 -39z" />
    <glyph glyph-name="Adieresis" unicode="&#xc4;" horiz-adv-x="629" 
d="M31 22q0 11 14 42q108 256 111 261q7 17 39 99t90 232q10 24 34 24q22 0 33 -24q16 -38 66 -171q49 -134 72 -189q1 -2 2 -5t3 -8t3 -8t2 -5l95 -229q6 -17 6 -22q0 -8 -9 -15q-8 -7 -20 -7q-15 0 -21 6q-5 5 -13 26q-14 36 -30 78q-8 21 -14.5 37.5t-11.5 28.5t-7 19
t-3 9h-76h-132h-107q-5 -12 -30 -78q-13 -33 -21 -54t-12 -29l-2.5 -5t-3.5 -8t-3.5 -8l-2.5 -5l-2 -4t-3 -5q-3 -5 -8 -7q-3 -1 -10 -1q-30 0 -30 25h2zM319 606q-26 -71 -61.5 -160.5t-80.5 -198.5q73 -1 141.5 -1t134.5 2q-8 19 -63 171q-28 76 -45.5 123t-25.5 66v-2z
M237 765q-16 0 -28 12t-12 31q0 17 13 29t33 12q19 0 31 -12t12 -30q0 -19 -13 -31q-14 -12 -34 -12zM388 768q-16 0 -28 12t-12 29t13 29t33 12q19 0 30 -12q11 -13 11 -31q0 -20 -13 -30t-33 -10z" />
    <glyph glyph-name="Aring" unicode="&#xc5;" horiz-adv-x="629" 
d="M321 847q42 0 72 -27t30 -69q0 -36 -19 -62q-20 -28 -51 -38v-3q0 -1 2 -3q7 -17 22.5 -57.5t39.5 -105.5t42 -112t30 -76q2 -7 4.5 -13t4.5 -12l95 -229q6 -17 6 -22q0 -8 -8 -16q-7 -7 -20 -7q-10 0 -17 5q-6 4 -9 9q-3 4 -9 18q-14 36 -30 78q-8 21 -14.5 37.5
t-11.5 28.5t-7 19t-3 9h-76h-132h-107q-5 -12 -30 -78q-13 -33 -21 -54t-12 -29l-2.5 -5t-3.5 -8t-3.5 -8l-2.5 -5l-2 -4t-3 -5q-3 -5 -8 -7q-3 -1 -10 -1q-30 0 -30 25q0 11 14 42q108 256 111 261q11 26 42.5 105.5t83.5 213.5q0 2 1 4t3 4q-31 11 -50 36q-20 26 -20 59
q0 45 33 74q34 29 74 29zM319 605q-26 -71 -61.5 -160.5t-80.5 -198.5q73 -1 141.5 -1t134.5 2q-8 19 -63 171q-28 76 -45.5 123t-25.5 66v-2zM380 747q-1 27 -19 43q-17 16 -45 16q-24 0 -43 -17q-18 -17 -18 -44q0 -32 18 -48q17 -16 47 -16q27 0 45 19q18 20 17 48z" />
    <glyph glyph-name="AE" unicode="&#xc6;" horiz-adv-x="901" 
d="M17 18q0 13 20 39q45 63 97 139.5t113 168.5q121 183 177 261q16 24 30 33q13 9 35 9q2 0 35.5 0.5t99.5 1.5t116 1.5t85 0.5q22 0 30 -6t8 -20q0 -25 -25 -25h-154h-154q-1 -52 -1.5 -88t-0.5 -56v-95v-32h58h30.5t52.5 1t60 1h54q18 0 26 -5t8 -18q0 -25 -32 -25h-139
h-118v-77v-89v-89q106 0 301 3q33 0 33 -24q0 -30 -33 -30h-123h-133q-68 0 -84 9t-16 50l2 140l-278 2q-8 -10 -36 -51.5t-77 -116.5q-20 -32 -36 -32q-10 0 -20 8q-9 7 -9 18zM223 239l250 1v63t1 45l1 84v87v51.5t1 37.5z" />
    <glyph glyph-name="Ccedilla" unicode="&#xc7;" horiz-adv-x="607" 
d="M347 -9q-118 9 -202 99t-84 233q0 160 96 261q96 100 222 100q79 0 147 -30q39 -18 39 -36q0 -14 -7 -22q-8 -9 -19 -8t-34 12q-67 32 -133 32q-100 0 -178 -87t-78 -215q0 -116 72 -200t188 -84q83 0 147 46q3 1 9 5l6 5q1 1 6 3q3 1 10 1q8 0 14 -9t6 -19
q0 -29 -60 -54q-60 -26 -127 -30l-16 -49q29 0 54 -19q26 -20 26 -57q0 -42 -26 -66t-66 -24q-27 0 -52 14q-19 10 -19 24q0 8 6 14t15 6q4 0 23 -8t34 -8q42 0 42 45q0 39 -52 39h-9q-14 0 -21 12q-8 12 -3 27z" />
    <glyph glyph-name="Egrave" unicode="&#xc8;" horiz-adv-x="539" 
d="M102 641q0 14 9 22t19 9q5 1 13.5 1h19.5h52h46.5t71.5 1t71 1h46q25 0 34 -6t9 -20q0 -23 -23 -25h-126h-126h-61q-1 -26 -1 -63v-85v-99v-25h58q113 0 188 3q21 0 30 -6t9 -19q0 -25 -36 -25h-132h-118v-80v-36.5t-1 -52.5t-1 -52.5v-36.5q69 0 143.5 0.5t156.5 1.5h12
h12q25 0 25 -24q0 -17 -9 -24q-8 -7 -36 -7h-256q-69 0 -85 9t-16 49q0 7 0.5 18t1.5 26v3v11v17v24v30v39v46v54v61v132v134v-6zM329 738q-28 28 -53 55t-48 53q-11 14 -11 23q0 10 9 18q10 8 18 8q14 0 24 -13q11 -15 34.5 -42.5t58.5 -69.5q9 -11 9 -18t-7 -13
q-8 -6 -15 -6q-6 0 -17 8z" />
    <glyph glyph-name="Eacute" unicode="&#xc9;" horiz-adv-x="539" 
d="M102 641q0 14 9 22t19 9q5 1 13.5 1h19.5h52h46.5t71.5 1t71 1h46q25 0 34 -6t9 -20q0 -23 -23 -25h-126h-126h-61q-1 -26 -1 -63v-85v-99v-25h58q113 0 188 3q21 0 30 -6t9 -19q0 -25 -36 -25h-132h-118v-80v-36.5t-1 -52.5t-1 -52.5v-36.5q69 0 143.5 0.5t156.5 1.5h12
h12q25 0 25 -24q0 -17 -9 -24q-8 -7 -36 -7h-256q-69 0 -85 9t-16 49q0 7 0.5 18t1.5 26v3v11v17v24v30v39v46v54v61v132v134v-6zM281 742q-11 -8 -18 -8q-9 0 -16 6t-7 15q0 7 8 18q2 2 12 13t28 31q37 40 59 68q10 12 21 12t20 -9t9 -19q0 -7 -11 -21q-25 -28 -50.5 -54.5
t-52.5 -52.5z" />
    <glyph glyph-name="Ecircumflex" unicode="&#xca;" horiz-adv-x="539" 
d="M102 641q0 14 9 22t19 9q5 1 13.5 1h19.5h52h46.5t71.5 1t71 1h46q25 0 34 -6t9 -20q0 -23 -23 -25h-126h-126h-61q-1 -26 -1 -63v-85v-99v-25h58q113 0 188 3q21 0 30 -6t9 -19q0 -25 -36 -25h-132h-118v-80v-36.5t-1 -52.5t-1 -52.5v-36.5q69 0 143.5 0.5t156.5 1.5h12
h12q25 0 25 -24q0 -17 -9 -24q-8 -7 -36 -7h-256q-69 0 -85 9t-16 49q0 7 0.5 18t1.5 26v3v11v17v24v30v39v46v54v61v132v134v-6zM410 719q-5 0 -9 3q-5 3 -6 6l-3 3q-1 1 -23 23.5t-67 67.5l-42 -42l-33 -34q-11 -12 -18 -18q-8 -6 -15 -6q-6 0 -13 7t-7 15t11 22l87 97
q15 16 31 16q14 0 28 -14l88 -100q13 -14 13 -22t-6 -14t-14 -6z" />
    <glyph glyph-name="Edieresis" unicode="&#xcb;" horiz-adv-x="539" 
d="M102 641q0 14 9 22t19 9q5 1 13.5 1h19.5h52h46.5t71.5 1t71 1h46q25 0 34 -6t9 -20q0 -23 -23 -25h-126h-126h-61q-1 -26 -1 -63v-85v-99v-25h58q113 0 188 3q21 0 30 -6t9 -19q0 -25 -36 -25h-132h-118v-80v-36.5t-1 -52.5t-1 -52.5v-36.5q69 0 143.5 0.5t156.5 1.5h12
h12q25 0 25 -24q0 -17 -9 -24q-8 -7 -36 -7h-256q-69 0 -85 9t-16 49q0 7 0.5 18t1.5 26v3v11v17v24v30v39v46v54v61v132v134v-6zM221 761q-16 0 -28 12t-12 31q0 17 13 29t33 12q19 0 31 -12t12 -30q0 -19 -13 -31q-14 -12 -34 -12zM372 764q-16 0 -28 12t-12 29t13 29
t33 12q19 0 30 -12q11 -13 11 -31q0 -20 -13 -30t-33 -10z" />
    <glyph glyph-name="Igrave" unicode="&#xcc;" horiz-adv-x="262" 
d="M106 394v44t-1 70t-1 77v65t30 30q26 0 26 -28v-93.5t-1 -161.5v-162l1 -200q0 -22 -6 -31t-22 -9q-28 0 -28 27v43v45l1 285zM157 743q-28 28 -53 55t-48 53q-11 14 -11 23q0 10 9 18q10 8 18 8q14 0 24 -13q11 -15 34.5 -42.5t58.5 -69.5q9 -11 9 -18t-7 -13
q-8 -6 -15 -6q-6 0 -17 8z" />
    <glyph glyph-name="Iacute" unicode="&#xcd;" horiz-adv-x="262" 
d="M106 394v44t-1 70t-1 77v65t30 30q26 0 26 -28v-93.5t-1 -161.5v-162l1 -200q0 -22 -6 -31t-22 -9q-28 0 -28 27v43v45l1 285zM109 747q-11 -8 -18 -8q-9 0 -16 6t-7 15q0 7 8 18q2 2 12 13t28 31q37 40 59 68q10 12 21 12t20 -9t9 -19q0 -7 -11 -21q-25 -28 -50.5 -54.5
t-52.5 -52.5z" />
    <glyph glyph-name="Icircumflex" unicode="&#xce;" horiz-adv-x="262" 
d="M106 394v44t-1 70t-1 77v65t30 30q26 0 26 -28v-93.5t-1 -161.5v-162l1 -200q0 -22 -6 -31t-22 -9q-28 0 -28 27v43v45l1 285zM239 724q-5 0 -9 3q-6 4 -8 6l-2 3q-1 1 -23 23.5t-67 67.5l-42 -42l-33 -34q-11 -12 -18 -18q-8 -6 -15 -6q-6 0 -13 7t-7 15t11 22l87 97
q15 16 31 16q14 0 28 -14l88 -100q13 -14 13 -22t-6 -14t-14 -6z" />
    <glyph glyph-name="Idieresis" unicode="&#xcf;" horiz-adv-x="262" 
d="M106 394v44t-1 70t-1 77v65t30 30q26 0 26 -28v-93.5t-1 -161.5v-162l1 -200q0 -22 -6 -31t-22 -9q-28 0 -28 27v43v45l1 285zM49 766q-16 0 -28 12t-12 31q0 17 13 29t33 12q19 0 31 -12t12 -30q0 -19 -13 -31q-14 -12 -34 -12zM200 769q-16 0 -28 12t-12 29t13 29
t33 12q19 0 30 -12q11 -13 11 -31q0 -20 -13 -30t-33 -10z" />
    <glyph glyph-name="Eth" unicode="&#xd0;" horiz-adv-x="674" 
d="M88 631q0 49 62 49h151q142 -9 234 -93q91 -84 91 -228q0 -357 -378 -360q-13 0 -41 0.5t-73 1.5q-44 2 -44 54l2 246h-49q-27 0 -27 24q0 13 8 19q7 6 27 6h42l-4 281h-1zM262 629q-84 0 -120 -3v-275h105q30 0 30 -22q0 -14 -7 -20q-8 -6 -28 -6h-100v-228
q0 -15 18 -18t81 -3q157 0 243 69t86 227q0 136 -87 207q-88 71 -220 71z" />
    <glyph glyph-name="Ntilde" unicode="&#xd1;" horiz-adv-x="702" 
d="M139 38q0 -19 -1 -24q-2 -8 -7 -13q-6 -6 -18 -6q-29 0 -29 30v95.5t1 180.5v121v121v102q0 32 34 32q4 0 12 -2q7 -2 9 -4l9 -9q7 -7 8 -9t3 -4.5t5 -7.5q6 -9 7 -10l257 -365l132 -185q-3 97 -3 267l-2 273v10v11v10q0 6 2 10q1 2 2 3.5t3 3.5q3 4 8 6q6 2 11 2h9
q3 0 7 -2t5 -3t3 -5l3 -6q1 -2 1 -9v-8v-9v-10v-328q1 -33 1.5 -98t0.5 -164q0 -35 -33 -35q-3 0 -9 2q-3 1 -7 3q-2 1 -7 6q-4 4 -6 8q-1 3 -8 11q-3 4 -5.5 7t-4.5 5l-391 556q0 -66 1 -204t3 -352zM245 777q-1 -19 -24 -19q-10 0 -16 8q-6 7 -4 18q1 33 26 54
q24 21 58 21t68 -31t59 -33q30 0 32 45q1 9 9 15q7 6 15 6q22 0 22 -20q0 -44 -22 -65q-23 -21 -60 -21q-35 2 -69 31t-55 31q-32 0 -36 -39z" />
    <glyph glyph-name="Ograve" unicode="&#xd2;" horiz-adv-x="747" 
d="M379 687q131 0 224 -96t93 -241q0 -152 -90 -255t-230 -103q-126 0 -223 92q-96 91 -96 237q0 161 98 264q97 102 225 100zM642 348q-2 124 -84 207q-82 82 -192 82q-102 0 -180 -87t-78 -215q0 -125 80 -207q79 -81 194 -81q108 0 185 90q76 90 75 210v1zM400 747
q-28 28 -53 55t-48 53q-11 14 -11 23q0 10 9 18q10 8 18 8q14 0 24 -13q11 -15 34.5 -42.5t58.5 -69.5q9 -11 9 -18t-7 -13q-8 -6 -15 -6q-6 0 -17 8z" />
    <glyph glyph-name="Oacute" unicode="&#xd3;" horiz-adv-x="747" 
d="M379 687q131 0 224 -96t93 -241q0 -152 -90 -255t-230 -103q-126 0 -223 92q-96 91 -96 237q0 161 98 264q97 102 225 100zM642 348q-2 124 -84 207q-82 82 -192 82q-102 0 -180 -87t-78 -215q0 -125 80 -207q79 -81 194 -81q108 0 185 90q76 90 75 210v1zM352 751
q-11 -8 -18 -8q-9 0 -16 6t-7 15q0 7 8 18q2 2 12 13t28 31q37 40 59 68q10 12 21 12t20 -9t9 -19q0 -7 -11 -21q-25 -28 -50.5 -54.5t-52.5 -52.5z" />
    <glyph glyph-name="Ocircumflex" unicode="&#xd4;" horiz-adv-x="747" 
d="M379 687q131 0 224 -96t93 -241q0 -152 -90 -255t-230 -103q-126 0 -223 92q-96 91 -96 237q0 161 98 264q97 102 225 100zM642 348q-2 124 -84 207q-82 82 -192 82q-102 0 -180 -87t-78 -215q0 -125 80 -207q79 -81 194 -81q108 0 185 90q76 90 75 210v1zM481 728
q-5 0 -9 3q-5 3 -6 6l-3 3q-1 1 -23 23.5t-67 67.5l-42 -42l-33 -34q-11 -12 -18 -18q-8 -6 -15 -6q-6 0 -13 7t-7 15t11 22l87 97q15 16 31 16q14 0 28 -14l88 -100q13 -14 13 -22t-6 -14t-14 -6z" />
    <glyph glyph-name="Otilde" unicode="&#xd5;" horiz-adv-x="747" 
d="M379 687q131 0 224 -96t93 -241q0 -152 -90 -255t-230 -103q-126 0 -223 92q-96 91 -96 237q0 161 98 264q97 102 225 100zM642 348q-2 124 -84 207q-82 82 -192 82q-102 0 -180 -87t-78 -215q0 -125 80 -207q79 -81 194 -81q108 0 185 90q76 90 75 210v1zM274 784
q-1 -19 -24 -19q-10 0 -16 8q-6 7 -4 18q1 33 26 54q24 21 58 21t68 -31t59 -33q30 0 32 45q1 9 9 15q7 6 15 6q22 0 22 -20q0 -44 -22 -65q-23 -21 -60 -21q-35 2 -69 31t-55 31q-32 0 -36 -39z" />
    <glyph glyph-name="Odieresis" unicode="&#xd6;" horiz-adv-x="747" 
d="M379 687q131 0 224 -96t93 -241q0 -152 -90 -255t-230 -103q-126 0 -223 92q-96 91 -96 237q0 161 98 264q97 102 225 100zM642 348q-2 124 -84 207q-82 82 -192 82q-102 0 -180 -87t-78 -215q0 -125 80 -207q79 -81 194 -81q108 0 185 90q76 90 75 210v1zM292 770
q-16 0 -28 12t-12 31q0 17 13 29t33 12q19 0 31 -12t12 -30q0 -19 -13 -31q-14 -12 -34 -12zM443 773q-16 0 -28 12t-12 29t13 29t33 12q19 0 30 -12q11 -13 11 -31q0 -20 -13 -30t-33 -10z" />
    <glyph glyph-name="multiply" unicode="&#xd7;" horiz-adv-x="480" 
d="M157 218l49 53l-134 140q-15 16 -15 28q0 7 9 15q10 8 17 8q12 0 24 -14l132 -147l115 133q19 24 29 27q3 1 9 1q8 0 15 -7q8 -8 8 -15q0 -15 -31 -47l-115 -126l140 -147q10 -10 10 -21q0 -7 -8 -15t-15 -8q-11 0 -27 19l-130 142l-127 -141q-3 -3 -6 -7t-6 -7
q-1 -1 -2 -1.5t-3 -2.5q-3 -3 -6 -3h-7q-9 0 -17 8t-8 15q0 11 10 21z" />
    <glyph glyph-name="Oslash" unicode="&#xd8;" horiz-adv-x="747" 
d="M380 685q83 0 155 -42l28 42q8 14 21 14q10 0 17 -7q8 -8 8 -16t-6 -18l-28 -43q57 -47 90 -115q33 -69 33 -152q0 -152 -90 -255t-230 -103q-94 0 -173 51l-35 -54q-11 -15 -21 -15q-8 0 -18 8q-9 7 -9 17q0 7 8 20l35 54q-108 96 -108 250q0 161 98 264q97 102 225 100
zM644 346q-2 136 -102 221l-309 -477q67 -45 150 -45q108 0 185 90q76 90 75 210zM111 332q0 -130 86 -213l308 476q-66 39 -136 39q-102 0 -180 -87t-78 -215z" />
    <glyph glyph-name="Ugrave" unicode="&#xd9;" horiz-adv-x="676" 
d="M88 276v213v153q0 37 25 37q28 0 28 -29q-1 -30 -1 -124v-253q0 -222 199 -222q85 0 142 62q57 61 57 159v64.5t-1 118.5t-1 122.5v75.5q0 27 27 27t27 -33l1 -345q1 -148 -68 -228q-69 -79 -195 -79q-114 0 -177 72t-63 204v5zM369 749q-28 28 -53 55t-48 53
q-11 14 -11 23q0 10 9 18q10 8 18 8q14 0 24 -13q11 -15 34.5 -42.5t58.5 -69.5q9 -11 9 -18t-7 -13q-8 -6 -15 -6q-6 0 -17 8z" />
    <glyph glyph-name="Uacute" unicode="&#xda;" horiz-adv-x="676" 
d="M88 276v213v153q0 37 25 37q28 0 28 -29q-1 -30 -1 -124v-253q0 -222 199 -222q85 0 142 62q57 61 57 159v64.5t-1 118.5t-1 122.5v75.5q0 27 27 27t27 -33l1 -345q1 -148 -68 -228q-69 -79 -195 -79q-114 0 -177 72t-63 204v5zM321 753q-11 -8 -18 -8q-9 0 -16 6t-7 15
q0 7 8 18q2 2 12 13t28 31q37 40 59 68q10 12 21 12t20 -9t9 -19q0 -7 -11 -21q-25 -28 -50.5 -54.5t-52.5 -52.5z" />
    <glyph glyph-name="Ucircumflex" unicode="&#xdb;" horiz-adv-x="676" 
d="M88 276v213v153q0 37 25 37q28 0 28 -29q-1 -30 -1 -124v-253q0 -222 199 -222q85 0 142 62q57 61 57 159v64.5t-1 118.5t-1 122.5v75.5q0 27 27 27t27 -33l1 -345q1 -148 -68 -228q-69 -79 -195 -79q-114 0 -177 72t-63 204v5zM450 730q-5 0 -9 3q-5 3 -6 6l-3 3
q-1 1 -23 23.5t-67 67.5l-42 -42l-33 -34q-11 -12 -18 -18q-8 -6 -15 -6q-6 0 -13 7t-7 15t11 22l87 97q15 16 31 16q14 0 28 -14l88 -100q13 -14 13 -22t-6 -14t-14 -6z" />
    <glyph glyph-name="Udieresis" unicode="&#xdc;" horiz-adv-x="676" 
d="M88 276v213v153q0 37 25 37q28 0 28 -29q-1 -30 -1 -124v-253q0 -222 199 -222q85 0 142 62q57 61 57 159v64.5t-1 118.5t-1 122.5v75.5q0 27 27 27t27 -33l1 -345q1 -148 -68 -228q-69 -79 -195 -79q-114 0 -177 72t-63 204v5zM261 772q-16 0 -28 12t-12 31q0 17 13 29
t33 12q19 0 31 -12t12 -30q0 -19 -13 -31q-14 -12 -34 -12zM412 775q-16 0 -28 12t-12 29t13 29t33 12q19 0 30 -12q11 -13 11 -31q0 -20 -13 -30t-33 -10z" />
    <glyph glyph-name="Yacute" unicode="&#xdd;" horiz-adv-x="591" 
d="M266 275l-225 343q-15 22 -15 33q0 10 9 18q10 8 20 8q6 0 8 -1l6 -3q3 -2 6 -6q2 -3 5 -6l6 -8l6 -9q172 -278 204 -324l209 333q1 1 3 5t3 5t3 5q1 2 3 4l3 3l3 3q2 2 4 2h6q13 0 21 -7q9 -8 9 -18t-13 -29l-229 -351v-126v-126q0 -12 -8 -18t-18 -6q-28 0 -28 29v66
v38t1 51t1 50.5v37.5zM271 746q-11 -8 -18 -8q-9 0 -16 6t-7 15q0 7 8 18q2 2 12 13t28 31q37 40 59 68q10 12 21 12t20 -9t9 -19q0 -7 -11 -21q-25 -28 -50.5 -54.5t-52.5 -52.5z" />
    <glyph glyph-name="Thorn" unicode="&#xde;" horiz-adv-x="560" 
d="M100 602v19v17q0 10 1 14q2 8 3 11q1 4 5 8q3 3 8 5q6 2 12 2q20 0 24 -10q4 -9 4 -40v-88l138 2q109 0 176 -50q66 -50 63 -152q-1 -64 -45 -115q-43 -50 -114 -67q-38 -9 -208 -9h-13v-114q0 -38 -26 -40q-16 -1 -22 9t-6 33v117v117v331zM154 198q138 -2 189 3
q133 14 134 138q1 85 -51 117q-53 32 -150 32q-45 0 -75 -0.5t-46 -1.5z" />
    <glyph glyph-name="germandbls" unicode="&#xdf;" horiz-adv-x="553" 
d="M271 334q0 27 18 53q19 27 39 44q22 19 39 43q18 25 18 51q0 98 -121 98q-61 0 -97 -46q-36 -47 -36 -135v-200v-201q0 -23 -5 -35q-5 -11 -24 -11q-16 0 -22 11q-6 10 -6 38v53v122v211q0 118 54 183t142 65q75 0 122 -42t47 -113q0 -29 -18 -57q-19 -30 -39 -47
q-21 -18 -39 -39t-18 -37q0 -20 12 -35q11 -14 27 -22q15 -8 42 -18q52 -19 82 -48t30 -84q0 -67 -43 -104q-44 -38 -111 -38q-58 0 -98 12q-41 12 -41 32q0 12 6 21t20 9q6 0 42 -10t74 -10q44 0 71 21t27 62q0 40 -23 61q-22 20 -69 37q-21 7 -37 15q-8 4 -15.5 9
t-15.5 11q-17 12 -24 30q-7 17 -7 44z" />
    <glyph glyph-name="agrave" unicode="&#xe0;" 
d="M486 170q0 -34 1.5 -72.5t3.5 -82.5q0 -10 -9 -16t-19 -6q-11 0 -16 4q-6 4 -9 18q-3 13 -3 23v35v14q-53 -95 -174 -95q-92 0 -150 64t-58 153q0 103 65 176q64 72 159 72q103 0 159 -87v47q0 37 28 37q14 0 20 -7q6 -8 6 -15v-27l-1 -78zM107 208q0 -72 47 -121
q46 -48 113 -48q75 0 123 50q48 49 48 129q0 86 -49 135t-117 49q-70 0 -118 -56t-48 -138h1zM302 549q-28 28 -53 55t-48 53q-11 14 -11 23q0 10 9 18q10 8 18 8q14 0 24 -13q11 -15 34.5 -42.5t58.5 -69.5q9 -11 9 -18t-7 -13q-8 -6 -15 -6q-6 0 -17 8z" />
    <glyph glyph-name="aacute" unicode="&#xe1;" 
d="M486 170q0 -34 1.5 -72.5t3.5 -82.5q0 -10 -9 -16t-19 -6q-11 0 -16 4q-6 4 -9 18q-3 13 -3 23v35v14q-53 -95 -174 -95q-92 0 -150 64t-58 153q0 103 65 176q64 72 159 72q103 0 159 -87v47q0 37 28 37q14 0 20 -7q6 -8 6 -15v-27l-1 -78zM107 208q0 -72 47 -121
q46 -48 113 -48q75 0 123 50q48 49 48 129q0 86 -49 135t-117 49q-70 0 -118 -56t-48 -138h1zM254 553q-11 -8 -18 -8q-9 0 -16 6t-7 15q0 7 8 18q2 2 12 13t28 31q37 40 59 68q10 12 21 12t20 -9t9 -19q0 -7 -11 -21q-25 -28 -50.5 -54.5t-52.5 -52.5z" />
    <glyph glyph-name="acircumflex" unicode="&#xe2;" 
d="M486 170q0 -34 1.5 -72.5t3.5 -82.5q0 -10 -9 -16t-19 -6q-11 0 -16 4q-6 4 -9 18q-3 13 -3 23v35v14q-53 -95 -174 -95q-92 0 -150 64t-58 153q0 103 65 176q64 72 159 72q103 0 159 -87v47q0 37 28 37q14 0 20 -7q6 -8 6 -15v-27l-1 -78zM107 208q0 -72 47 -121
q46 -48 113 -48q75 0 123 50q48 49 48 129q0 86 -49 135t-117 49q-70 0 -118 -56t-48 -138h1zM385 530q-5 0 -9 3q-6 4 -8 6l-2 3q-1 1 -23 23.5t-67 67.5l-42 -42l-33 -34q-11 -12 -18 -18q-8 -6 -16 -6q-6 0 -13 7t-7 15t11 22l87 97q15 16 31 16q14 0 28 -14l88 -100
q13 -14 13 -22t-6 -14t-14 -6v-4z" />
    <glyph glyph-name="atilde" unicode="&#xe3;" 
d="M486 170q0 -34 1.5 -72.5t3.5 -82.5q0 -10 -9 -16t-19 -6q-11 0 -16 4q-6 4 -9 18q-3 13 -3 23v35v14q-53 -95 -174 -95q-92 0 -150 64t-58 153q0 103 65 176q64 72 159 72q103 0 159 -87v47q0 37 28 37q14 0 20 -7q6 -8 6 -15v-27l-1 -78zM107 208q0 -72 47 -121
q46 -48 113 -48q75 0 123 50q48 49 48 129q0 86 -49 135t-117 49q-70 0 -118 -56t-48 -138h1zM176 586q-1 -19 -24 -19q-10 0 -16 8q-6 7 -4 18q1 33 26 54q24 21 58 21t68 -31t59 -33q30 0 32 45q1 9 9 15q7 6 15 6q22 0 22 -20q0 -44 -22 -65q-23 -21 -60 -21
q-35 2 -69 31t-55 31q-32 0 -36 -39z" />
    <glyph glyph-name="adieresis" unicode="&#xe4;" 
d="M486 170q0 -34 1.5 -72.5t3.5 -82.5q0 -10 -9 -16t-19 -6q-11 0 -16 4q-6 4 -9 18q-3 13 -3 23v35v14q-53 -95 -174 -95q-92 0 -150 64t-58 153q0 103 65 176q64 72 159 72q103 0 159 -87v47q0 37 28 37q14 0 20 -7q6 -8 6 -15v-27l-1 -78zM107 208q0 -72 47 -121
q46 -48 113 -48q75 0 123 50q48 49 48 129q0 86 -49 135t-117 49q-70 0 -118 -56t-48 -138h1zM194 572q-16 0 -28 12t-12 31q0 17 13 29t33 12q19 0 31 -12t12 -30q0 -19 -13 -31q-14 -12 -34 -12zM345 575q-16 0 -28 12t-12 29t13 29t33 12q19 0 30 -12q11 -13 11 -31
q0 -20 -13 -30t-33 -10z" />
    <glyph glyph-name="aring" unicode="&#xe5;" 
d="M486 170q0 -34 1.5 -72.5t3.5 -82.5q0 -10 -9 -16t-19 -6q-11 0 -16 4q-6 4 -9 18q-3 13 -3 23v35v14q-53 -95 -174 -95q-92 0 -150 64t-58 153q0 103 65 176q64 72 159 72q103 0 159 -87v47q0 37 28 37q14 0 20 -7q6 -8 6 -15v-27l-1 -78zM107 208q0 -72 47 -121
q46 -48 113 -48q75 0 123 50q48 49 48 129q0 86 -49 135t-117 49q-70 0 -118 -56t-48 -138h1zM275 723q42 0 72 -27t30 -69q0 -45 -30 -76t-75 -31q-40 0 -72 29q-31 28 -31 72q0 45 33 74q34 29 74 29zM334 625q-1 27 -19 43q-17 16 -45 16q-24 0 -43 -17q-18 -17 -18 -44
q0 -32 18 -48q17 -16 47 -16q27 0 45 19q18 20 17 48z" />
    <glyph glyph-name="ae" unicode="&#xe6;" horiz-adv-x="827" 
d="M437 204q-1 -64 42 -112t117 -48q66 0 121 37q3 3 6 5q6 4 9 5q6 2 9 2q9 0 18 -9t9 -18q0 -28 -57 -52t-125 -24q-57 0 -105 33q-47 32 -73 84q-56 -116 -177 -116q-76 0 -129 35q-52 34 -52 98q0 68 48 101q49 34 131 35q37 1 156 -3q0 62 -41 106q-40 43 -105 43
q-47 0 -113 -27q-14 -6 -27 0t-13 20q0 18 21 29q59 30 138 29q60 -2 104 -31q45 -30 68 -83q28 52 75 84q46 31 102 31q78 0 132 -57t54 -126v-17t-1 -12q-1 -7 -8 -19q-6 -10 -21 -13t-42 -3q-23 -1 -53 -1h-67h-105zM602 401q-66 0 -111 -45t-51 -106h118h76t48 1
q49 0 49 6q0 61 -39 103t-91 42zM232 39q60 0 105 42q44 42 46 104v21q-56 3 -152 3q-66 1 -97 -20q-30 -21 -30 -66q0 -41 37 -63t93 -22z" />
    <glyph glyph-name="ccedilla" unicode="&#xe7;" horiz-adv-x="444" 
d="M233 -2q-86 12 -135 78q-50 66 -48 141q2 95 63 170t161 75q64 0 119 -32q16 -10 16 -25q0 -10 -7 -18q-8 -9 -18 -9q-4 0 -12 2q-6 1 -15 6l-12 6q-35 16 -77 16q-70 0 -117 -59q-46 -58 -46 -126q0 -76 42 -125q42 -50 110 -50q59 0 97 23q31 18 39 18q9 0 17 -9
q8 -10 8 -18q0 -11 -9 -20q-54 -46 -137 -48l-16 -49q29 0 54 -19q26 -20 26 -57q0 -42 -26 -66t-66 -24q-26 0 -52 14q-19 10 -19 24q0 8 6 14t15 6q4 0 23 -8t34 -8q42 0 42 45q0 39 -52 39h-9q-14 0 -21 12q-8 12 -3 27z" />
    <glyph glyph-name="egrave" unicode="&#xe8;" horiz-adv-x="507" 
d="M106 212q0 -65 45 -113t118 -48q67 0 122 37q3 3 6 5q6 4 9 5q6 2 9 2q10 0 19 -9t9 -18q0 -16 -23 -33q-63 -45 -161 -45q-86 0 -147 63q-61 62 -64 150q0 101 64 177q65 77 156 77q79 0 134 -55q56 -56 56 -123v-17.5t-1 -12.5q-2 -11 -9 -21q-8 -11 -22 -15
q-15 -5 -42 -6q-12 -1 -44 -1h-86h-147zM275 412q-68 0 -114 -46t-52 -108q266 4 283 6q12 1 12 12q0 58 -39 96q-40 38 -91 38zM290 557q-28 28 -53 55t-48 53q-11 14 -11 23q0 10 9 18q10 8 18 8q14 0 24 -13q11 -15 34.5 -42.5t58.5 -69.5q9 -11 9 -18t-7 -13
q-8 -6 -15 -6q-6 0 -17 8z" />
    <glyph glyph-name="eacute" unicode="&#xe9;" horiz-adv-x="507" 
d="M106 212q0 -65 45 -113t118 -48q67 0 122 37q3 3 6 5q6 4 9 5q6 2 9 2q10 0 19 -9t9 -18q0 -16 -23 -33q-63 -45 -161 -45q-86 0 -147 63q-61 62 -64 150q0 101 64 177q65 77 156 77q79 0 134 -55q56 -56 56 -123v-17.5t-1 -12.5q-2 -11 -9 -21q-8 -11 -22 -15
q-15 -5 -42 -6q-12 -1 -44 -1h-86h-147zM275 412q-68 0 -114 -46t-52 -108q266 4 283 6q12 1 12 12q0 58 -39 96q-40 38 -91 38zM242 561q-11 -8 -18 -8q-9 0 -16 6t-7 15q0 7 8 18q2 2 12 13t28 31q37 40 59 68q10 12 21 12t20 -9t9 -19q0 -7 -11 -21q-25 -28 -50.5 -54.5
t-52.5 -52.5z" />
    <glyph glyph-name="ecircumflex" unicode="&#xea;" horiz-adv-x="507" 
d="M106 212q0 -65 45 -113t118 -48q67 0 122 37q3 3 6 5q6 4 9 5q6 2 9 2q10 0 19 -9t9 -18q0 -16 -23 -33q-63 -45 -161 -45q-86 0 -147 63q-61 62 -64 150q0 101 64 177q65 77 156 77q79 0 134 -55q56 -56 56 -123v-17.5t-1 -12.5q-2 -11 -9 -21q-8 -11 -22 -15
q-15 -5 -42 -6q-12 -1 -44 -1h-86h-147zM275 412q-68 0 -114 -46t-52 -108q266 4 283 6q12 1 12 12q0 58 -39 96q-40 38 -91 38zM373 538q-5 0 -9 3q-6 4 -8 6l-2 3q-1 1 -23 23.5t-67 67.5l-42 -42l-33 -34q-11 -12 -18 -18q-8 -6 -16 -6q-6 0 -13 7t-7 15t11 22l87 97
q15 16 31 16q14 0 28 -14l88 -100q13 -14 13 -22t-6 -14t-14 -6v-4z" />
    <glyph glyph-name="edieresis" unicode="&#xeb;" horiz-adv-x="507" 
d="M106 212q0 -65 45 -113t118 -48q67 0 122 37q3 3 6 5q6 4 9 5q6 2 9 2q10 0 19 -9t9 -18q0 -16 -23 -33q-63 -45 -161 -45q-86 0 -147 63q-61 62 -64 150q0 101 64 177q65 77 156 77q79 0 134 -55q56 -56 56 -123v-17.5t-1 -12.5q-2 -11 -9 -21q-8 -11 -22 -15
q-15 -5 -42 -6q-12 -1 -44 -1h-86h-147zM275 412q-68 0 -114 -46t-52 -108q266 4 283 6q12 1 12 12q0 58 -39 96q-40 38 -91 38zM182 580q-16 0 -28 12t-12 31q0 17 13 29t33 12q19 0 31 -12t12 -30q0 -19 -13 -31q-14 -12 -34 -12zM333 583q-16 0 -28 12t-12 29t13 29
t33 12q19 0 30 -12q11 -13 11 -31q0 -20 -13 -30t-33 -10z" />
    <glyph glyph-name="igrave" unicode="&#xec;" horiz-adv-x="229" 
d="M85 426q1 31 27 31q20 0 24 -10q5 -12 5 -45v-117v-117v-136v-16q0 -6 -3 -12q-3 -5 -9 -7q-8 -2 -16 -2q-15 0 -20 8t-5 26v396zM138 555q-28 28 -53 55t-48 53q-11 14 -11 23q0 10 9 18q10 8 18 8q14 0 24 -13q11 -15 34.5 -42.5t58.5 -69.5q9 -11 9 -18t-7 -13
q-8 -6 -15 -6q-6 0 -17 8z" />
    <glyph glyph-name="iacute" unicode="&#xed;" horiz-adv-x="229" 
d="M85 426q1 31 27 31q20 0 24 -10q5 -12 5 -45v-117v-117v-136v-16q0 -6 -3 -12q-3 -5 -9 -7q-8 -2 -16 -2q-15 0 -20 8t-5 26v396zM90 559q-11 -8 -18 -8q-9 0 -16 6t-7 15q0 7 8 18q2 2 12 13t28 31q37 40 59 68q10 12 21 12t20 -9t9 -19q0 -7 -11 -21
q-25 -28 -50.5 -54.5t-52.5 -52.5z" />
    <glyph glyph-name="icircumflex" unicode="&#xee;" horiz-adv-x="229" 
d="M85 426q1 31 27 31q20 0 24 -10q5 -12 5 -45v-117v-117v-136v-16q0 -6 -3 -12q-3 -5 -9 -7q-8 -2 -16 -2q-15 0 -20 8t-5 26v396zM219 536q-5 0 -9 3q-5 3 -6 6l-3 3q-1 1 -23 23.5t-67 67.5l-42 -42l-33 -34q-11 -12 -18 -18q-8 -6 -15 -6q-6 0 -13 7t-7 15t11 22l87 97
q15 16 31 16q14 0 28 -14l88 -100q13 -14 13 -22t-6 -14t-14 -6z" />
    <glyph glyph-name="idieresis" unicode="&#xef;" horiz-adv-x="229" 
d="M85 426q1 31 27 31q20 0 24 -10q5 -12 5 -45v-117v-117v-136v-16q0 -6 -3 -12q-3 -5 -9 -7q-8 -2 -16 -2q-15 0 -20 8t-5 26v396zM30 578q-16 0 -28 12t-12 31q0 17 13 29t33 12q19 0 31 -12t12 -30q0 -19 -13 -31q-14 -12 -34 -12zM181 581q-16 0 -28 12t-12 29t13 29
t33 12q19 0 30 -12q11 -13 11 -31q0 -20 -13 -30t-33 -10z" />
    <glyph glyph-name="eth" unicode="&#xf0;" horiz-adv-x="544" 
d="M387 596q102 -117 102 -305q0 -20 -1 -41t-3 -44q-9 -104 -66 -159q-56 -55 -148 -55t-156 62q-63 61 -63 158q0 96 63 158q63 61 146 66q56 3 103 -25q49 -29 77 -81q0 135 -93 236l-70 -51q-8 -6 -16 -6t-16 8q-7 7 -7 17q0 12 17 23l58 42q-58 46 -126 61
q-11 2 -17 11q-6 8 -4 19q2 12 13 18q12 6 24 3q90 -23 153 -81l59 43q11 8 18 8q9 0 17 -8t8 -15q0 -10 -21 -25zM273 384q-74 1 -120 -48q-47 -50 -47 -121q0 -77 45 -125t113 -48q71 0 121 48q49 48 49 121q0 71 -45 122t-116 53v-2z" />
    <glyph glyph-name="ntilde" unicode="&#xf1;" horiz-adv-x="547" 
d="M85 412q0 22 6 33t24 11q16 0 21 -9q4 -9 6 -36v-53q21 50 68 77q46 27 104 27q79 0 123 -51q43 -50 43 -141v-135v-93q0 -19 -1 -24q-2 -8 -9 -14q-8 -6 -21 -6q-26 0 -26 28q0 14 0.5 41t1.5 66q2 78 0 119q-1 157 -123 157q-50 0 -84 -18q-35 -18 -51 -51
q-16 -31 -22 -66q-6 -33 -6 -75v-177q0 -28 -31 -28q-24 0 -24 27v35v86v149zM180 589q-1 -19 -24 -19q-10 0 -16 8q-6 7 -4 18q1 33 26 54q24 21 58 21t68 -31t59 -33q30 0 32 45q1 9 9 15q7 6 15 6q22 0 22 -20q0 -44 -22 -65q-23 -21 -60 -21q-35 2 -69 31t-55 31
q-32 0 -36 -39z" />
    <glyph glyph-name="ograve" unicode="&#xf2;" horiz-adv-x="543" 
d="M293 460q16 0 21 -8q59 -8 101 -45q42 -38 60 -85q18 -48 18 -101q0 -100 -67 -166q-68 -66 -166 -66q-85 0 -150 62q-64 61 -64 158q0 112 68 183t180 71zM438 224q0 81 -43 128q-44 48 -127 54q-75 -4 -120 -59q-45 -54 -45 -144q0 -71 48 -116t107 -45q71 0 126 50
q54 49 54 132zM295 551q-28 28 -53 55t-48 53q-11 14 -11 23q0 10 9 18q10 8 18 8q14 0 24 -13q11 -15 34.5 -42.5t58.5 -69.5q9 -11 9 -18t-7 -13q-8 -6 -15 -6q-6 0 -17 8z" />
    <glyph glyph-name="oacute" unicode="&#xf3;" horiz-adv-x="543" 
d="M293 460q16 0 21 -8q59 -8 101 -45q42 -38 60 -85q18 -48 18 -101q0 -100 -67 -166q-68 -66 -166 -66q-85 0 -150 62q-64 61 -64 158q0 112 68 183t180 71zM438 224q0 81 -43 128q-44 48 -127 54q-75 -4 -120 -59q-45 -54 -45 -144q0 -71 48 -116t107 -45q71 0 126 50
q54 49 54 132zM247 555q-11 -8 -18 -8q-9 0 -16 6t-7 15q0 7 8 18q2 2 12 13t28 31q37 40 59 68q10 12 21 12t20 -9t9 -19q0 -7 -11 -21q-25 -28 -50.5 -54.5t-52.5 -52.5z" />
    <glyph glyph-name="ocircumflex" unicode="&#xf4;" horiz-adv-x="543" 
d="M293 460q16 0 21 -8q59 -8 101 -45q42 -38 60 -85q18 -48 18 -101q0 -100 -67 -166q-68 -66 -166 -66q-85 0 -150 62q-64 61 -64 158q0 112 68 183t180 71zM438 224q0 81 -43 128q-44 48 -127 54q-75 -4 -120 -59q-45 -54 -45 -144q0 -71 48 -116t107 -45q71 0 126 50
q54 49 54 132zM377 532q-5 0 -9 3q-6 4 -8 6l-2 3q-1 1 -23 23.5t-67 67.5l-42 -42l-33 -34q-11 -12 -18 -18q-8 -6 -15 -6q-6 0 -13 7t-7 15t11 22l87 97q15 16 31 16q14 0 28 -14l88 -100q13 -14 13 -22t-6 -14t-14 -6z" />
    <glyph glyph-name="otilde" unicode="&#xf5;" horiz-adv-x="543" 
d="M293 460q16 0 21 -8q59 -8 101 -45q42 -38 60 -85q18 -48 18 -101q0 -100 -67 -166q-68 -66 -166 -66q-85 0 -150 62q-64 61 -64 158q0 112 68 183t180 71zM438 224q0 81 -43 128q-44 48 -127 54q-75 -4 -120 -59q-45 -54 -45 -144q0 -71 48 -116t107 -45q71 0 126 50
q54 49 54 132zM169 588q-1 -19 -24 -19q-10 0 -16 8q-6 7 -4 18q1 33 26 54q24 21 58 21t68 -31t59 -33q30 0 32 45q1 9 9 15q7 6 15 6q22 0 22 -20q0 -44 -22 -65q-23 -21 -60 -21q-35 2 -69 31t-55 31q-32 0 -36 -39z" />
    <glyph glyph-name="odieresis" unicode="&#xf6;" horiz-adv-x="543" 
d="M293 460q16 0 21 -8q59 -8 101 -45q42 -38 60 -85q18 -48 18 -101q0 -100 -67 -166q-68 -66 -166 -66q-85 0 -150 62q-64 61 -64 158q0 112 68 183t180 71zM438 224q0 81 -43 128q-44 48 -127 54q-75 -4 -120 -59q-45 -54 -45 -144q0 -71 48 -116t107 -45q71 0 126 50
q54 49 54 132zM187 574q-16 0 -28 12t-12 31q0 17 13 29t33 12q19 0 31 -12t12 -30q0 -19 -13 -31q-14 -12 -34 -12zM338 577q-16 0 -28 12t-12 29t13 29t33 12q19 0 30 -12q11 -13 11 -31q0 -20 -13 -30t-33 -10z" />
    <glyph glyph-name="divide" unicode="&#xf7;" horiz-adv-x="480" 
d="M59 249q-13 0 -19 9q-6 8 -4 20q1 13 12 18q9 4 36 4l335 -1q25 0 25 -23q0 -17 -10 -21q-12 -5 -37 -5h-337zM245 406q-18 0 -30 12t-12 32t14 32q13 12 33 12t32 -13q12 -14 12 -33t-14 -30t-35 -11v-1zM244 51q-18 0 -30 12t-12 32t14 32q13 12 33 12t32 -13
q12 -14 12 -33t-14 -30t-35 -11v-1z" />
    <glyph glyph-name="oslash" unicode="&#xf8;" horiz-adv-x="543" 
d="M292 463q16 0 22 -8q35 -6 68 -23l21 34q10 18 22 18q7 0 15 -6q7 -6 7 -13q0 -9 -15 -33l-15 -24q77 -68 77 -183q0 -101 -67 -167q-68 -66 -165 -66q-39 0 -88 23l-23 -38q-8 -14 -18 -14q-11 0 -18 6t-7 16q0 7 9 21l19 30q-90 66 -90 178q0 110 68 180q67 69 179 69
h-1zM102 213q0 -78 63 -129l190 306q-35 19 -87 21q-74 -5 -120 -58t-46 -142v2zM438 229q0 86 -50 134l-185 -301q30 -15 57 -15q72 0 125 50t53 132z" />
    <glyph glyph-name="ugrave" unicode="&#xf9;" horiz-adv-x="555" 
d="M104 453q24 0 24 -29q-3 -204 -3 -216q0 -70 30 -118t93 -48q92 0 129 61t39 171l1 146q0 35 28 35q15 0 21 -7q6 -8 6 -27v-12t-1 -30t-1 -43v-51v-102q0 -32 1.5 -71t5.5 -85q2 -29 -26 -29q-25 0 -28 30q-3 27 -3 81q-19 -50 -62 -84q-42 -33 -107 -33q-89 0 -132 57
q-44 58 -44 155v107v106q0 38 32 38zM300 552q-28 28 -53 55t-48 53q-11 14 -11 23q0 10 9 18q10 8 18 8q14 0 24 -13q11 -15 34.5 -42.5t58.5 -69.5q9 -11 9 -18t-7 -13q-8 -6 -15 -6q-6 0 -17 8z" />
    <glyph glyph-name="uacute" unicode="&#xfa;" horiz-adv-x="555" 
d="M104 453q24 0 24 -29q-3 -204 -3 -216q0 -70 30 -118t93 -48q92 0 129 61t39 171l1 146q0 35 28 35q15 0 21 -7q6 -8 6 -27v-12t-1 -30t-1 -43v-51v-102q0 -32 1.5 -71t5.5 -85q2 -29 -26 -29q-25 0 -28 30q-3 27 -3 81q-19 -50 -62 -84q-42 -33 -107 -33q-89 0 -132 57
q-44 58 -44 155v107v106q0 38 32 38zM252 556q-11 -8 -18 -8q-9 0 -16 6t-7 15q0 7 8 18q2 2 12 13t28 31q37 40 59 68q10 12 21 12t20 -9t9 -19q0 -7 -11 -21q-25 -28 -50.5 -54.5t-52.5 -52.5z" />
    <glyph glyph-name="ucircumflex" unicode="&#xfb;" horiz-adv-x="555" 
d="M104 453q24 0 24 -29q-3 -204 -3 -216q0 -70 30 -118t93 -48q92 0 129 61t39 171l1 146q0 35 28 35q15 0 21 -7q6 -8 6 -27v-12t-1 -30t-1 -43v-51v-102q0 -32 1.5 -71t5.5 -85q2 -29 -26 -29q-25 0 -28 30q-3 27 -3 81q-19 -50 -62 -84q-42 -33 -107 -33q-89 0 -132 57
q-44 58 -44 155v107v106q0 38 32 38zM382 533q-5 0 -9 3q-5 3 -6 6l-3 3q-1 1 -23 23.5t-67 67.5l-42 -42l-33 -34q-11 -12 -18 -18q-8 -6 -16 -6q-6 0 -13 7t-7 15t11 22l87 97q15 16 31 16q14 0 28 -14l88 -100q13 -14 13 -22t-6 -14t-14 -6z" />
    <glyph glyph-name="udieresis" unicode="&#xfc;" horiz-adv-x="555" 
d="M104 453q24 0 24 -29q-3 -204 -3 -216q0 -70 30 -118t93 -48q92 0 129 61t39 171l1 146q0 35 28 35q15 0 21 -7q6 -8 6 -27v-12t-1 -30t-1 -43v-51v-102q0 -32 1.5 -71t5.5 -85q2 -29 -26 -29q-25 0 -28 30q-3 27 -3 81q-19 -50 -62 -84q-42 -33 -107 -33q-89 0 -132 57
q-44 58 -44 155v107v106q0 38 32 38zM192 575q-16 0 -28 12t-12 31q0 17 13 29t33 12q19 0 31 -12t12 -30q0 -19 -13 -31q-14 -12 -34 -12zM343 578q-16 0 -28 12t-12 29t13 29t33 12q19 0 30 -12q11 -13 11 -31q0 -20 -13 -30t-33 -10z" />
    <glyph glyph-name="yacute" unicode="&#xfd;" horiz-adv-x="483" 
d="M241 66q32 67 70 157t83 205l6 15q1 4 8 9t17 5q13 0 20 -7q8 -8 8 -19q0 -9 -4 -18q-26 -66 -84.5 -194.5t-149.5 -323.5q-66 -118 -141 -118q-58 0 -58 29q0 15 8 21q7 6 26 6q38 0 57 11q17 10 45 53q8 14 23.5 43t38.5 75l-46 98l-120 275q-16 35 -16 44q0 10 9 18
q10 8 20 8q13 0 22 -15q58 -140 98 -233.5t63 -144.5zM223 559q-11 -8 -18 -8q-9 0 -16 6t-7 15q0 7 8 18q2 2 12 13t28 31q37 40 59 68q10 12 21 12t20 -9t9 -19q0 -7 -11 -21q-25 -28 -50.5 -54.5t-52.5 -52.5z" />
    <glyph glyph-name="thorn" unicode="&#xfe;" horiz-adv-x="566" 
d="M135 -189q0 -31 -28 -31q-17 0 -21 10q-4 9 -4 39l1 416l-4 445q1 28 27 28q29 0 29 -28v-164v-111l-1 -51q51 98 178 98q90 0 150 -70q60 -71 60 -160q0 -102 -63 -172t-156 -70q-56 0 -100 25q-45 26 -69 70v-66.5t1 -84.5t1 -77v-44zM468 228q0 75 -47 127
q-47 51 -114 51q-78 0 -126 -48t-48 -136q0 -89 45 -135t117 -46q70 0 120 51q50 52 50 138z" />
    <glyph glyph-name="ydieresis" unicode="&#xff;" horiz-adv-x="483" 
d="M241 66q32 67 70 157t83 205l6 15q1 4 8 9t17 5q13 0 20 -7q8 -8 8 -19q0 -9 -4 -18q-26 -66 -84.5 -194.5t-149.5 -323.5q-66 -118 -141 -118q-58 0 -58 29q0 15 8 21q7 6 26 6q38 0 57 11q17 10 45 53q8 14 23.5 43t38.5 75l-46 98l-120 275q-16 35 -16 44q0 10 9 18
q10 8 20 8q13 0 22 -15q58 -140 98 -233.5t63 -144.5zM163 578q-16 0 -28 12t-12 31q0 17 13 29t33 12q19 0 31 -12t12 -30q0 -19 -13 -31q-14 -12 -34 -12zM314 581q-16 0 -28 12t-12 29t13 29t33 12q19 0 30 -12q11 -13 11 -31q0 -20 -13 -30t-33 -10z" />
    <glyph glyph-name="Amacron" unicode="&#x100;" horiz-adv-x="629" 
d="M31 22q0 11 14 42q108 256 111 261q7 17 39 99t90 232q10 24 34 24q22 0 33 -24q16 -38 66 -171q49 -134 72 -189q1 -2 2 -5t3 -8t3 -8t2 -5l95 -229q6 -17 6 -22q0 -8 -9 -15q-8 -7 -20 -7q-15 0 -21 6q-5 5 -13 26q-14 36 -30 78q-8 21 -14.5 37.5t-11.5 28.5t-7 19
t-3 9h-76h-132h-107q-5 -12 -30 -78q-13 -33 -21 -54t-12 -29l-2.5 -5t-3.5 -8t-3.5 -8l-2.5 -5l-2 -4t-3 -5q-3 -5 -8 -7q-3 -1 -10 -1q-30 0 -30 25h2zM319 606q-26 -71 -61.5 -160.5t-80.5 -198.5q73 -1 141.5 -1t134.5 2q-8 19 -63 171q-28 76 -45.5 123t-25.5 66v-2z
M213 791q-26 0 -26 25q0 27 41 27h42h42h29t36 1t31 1h14q28 0 29 -22q1 -15 -9 -22t-31 -7h-51h-57h-21t-28 -1t-26.5 -1h-15.5z" />
    <glyph glyph-name="amacron" unicode="&#x101;" 
d="M486 170q0 -34 1.5 -72.5t3.5 -82.5q0 -10 -9 -16t-19 -6q-11 0 -16 4q-6 4 -9 18q-3 13 -3 23v35v14q-53 -95 -174 -95q-92 0 -150 64t-58 153q0 103 65 176q64 72 159 72q103 0 159 -87v47q0 37 28 37q14 0 20 -7q6 -8 6 -15v-27l-1 -78zM107 208q0 -72 47 -121
q46 -48 113 -48q75 0 123 50q48 49 48 129q0 86 -49 135t-117 49q-70 0 -118 -56t-48 -138h1zM170 599q-26 0 -26 25q0 27 41 27h42h42h29t36 1t31 1h14q28 0 29 -22q1 -30 -40 -30h-51h-57h-21t-28 -1t-26.5 -1h-15.5h1z" />
    <glyph glyph-name="Abreve" unicode="&#x102;" horiz-adv-x="629" 
d="M31 22q0 11 14 42q108 256 111 261q7 17 39 99t90 232q10 24 34 24q22 0 33 -24q16 -38 66 -171q49 -134 72 -189q1 -2 2 -5t3 -8t3 -8t2 -5l95 -229q6 -17 6 -22q0 -8 -9 -15q-8 -7 -20 -7q-15 0 -21 6q-5 5 -13 26q-14 36 -30 78q-8 21 -14.5 37.5t-11.5 28.5t-7 19
t-3 9h-76h-132h-107q-5 -12 -30 -78q-13 -33 -21 -54t-12 -29l-2.5 -5t-3.5 -8t-3.5 -8l-2.5 -5l-2 -4t-3 -5q-3 -5 -8 -7q-3 -1 -10 -1q-30 0 -30 25h2zM319 606q-26 -71 -61.5 -160.5t-80.5 -198.5q73 -1 141.5 -1t134.5 2q-8 19 -63 171q-28 76 -45.5 123t-25.5 66v-2z
M424 871q21 0 21 -24q0 -48 -36 -84t-88 -36q-48 0 -85 35q-36 35 -38 83q0 26 22 26q20 0 21 -22q1 -33 23 -55q21 -21 59 -21q35 0 56 23q21 22 21 54q0 22 22 22z" />
    <glyph glyph-name="abreve" unicode="&#x103;" 
d="M486 170q0 -34 1.5 -72.5t3.5 -82.5q0 -10 -9 -16t-19 -6q-11 0 -16 4q-6 4 -9 18q-3 13 -3 23v35v14q-53 -95 -174 -95q-92 0 -150 64t-58 153q0 103 65 176q64 72 159 72q103 0 159 -87v47q0 37 28 37q14 0 20 -7q6 -8 6 -15v-27l-1 -78zM107 208q0 -72 47 -121
q46 -48 113 -48q75 0 123 50q48 49 48 129q0 86 -49 135t-117 49q-70 0 -118 -56t-48 -138h1zM381 678q21 0 21 -24q0 -48 -36 -84t-88 -36q-48 0 -85 35q-36 35 -38 83q0 26 22 26q20 0 21 -22q1 -33 23 -55q21 -21 59 -21q35 0 56 23q21 22 21 54q0 22 22 22z" />
    <glyph glyph-name="Aogonek" unicode="&#x104;" horiz-adv-x="629" 
d="M498 -120q0 -21 11 -34q10 -12 27 -12q12 0 26 3q13 3 21 3q9 0 15 -6t6 -15q0 -32 -62 -32q-37 0 -63 25q-27 25 -27 66q0 40 26 71q26 30 71 59q-6 9 -10 20q-14 36 -30 78q-8 21 -14.5 37.5t-11.5 28.5t-7 19t-3 9h-76h-132h-107q-5 -12 -30 -78q-13 -33 -21 -54
t-12 -29l-2.5 -5t-3.5 -8t-3.5 -8l-2.5 -5l-2 -4t-3 -5q-3 -5 -8 -7q-3 -1 -10 -1q-30 0 -30 25q0 11 14 42q108 256 111 261q7 17 39 99t90 232q10 24 34 24q22 0 33 -24q16 -38 66 -171q49 -134 72 -189q2 -7 4.5 -13t4.5 -12l95 -229q6 -17 6 -22q0 -12 -16 -21
q-15 -12 -26 -21.5t-19 -16.5q-13 -12 -28 -35q-13 -20 -13 -42zM318 603q-26 -71 -61.5 -160.5t-80.5 -198.5q73 -1 141.5 -1t134.5 2q-8 19 -63 171q-28 76 -45.5 123t-25.5 66v-2z" />
    <glyph glyph-name="aogonek" unicode="&#x105;" 
d="M485 170q0 -42 1 -79t3 -71q0 -16 -20 -27q-85 -60 -85 -115q0 -21 11 -34q10 -12 27 -12q12 0 26 3q13 3 21 3q9 0 15 -6t6 -15q0 -32 -62 -32q-37 0 -63 25q-27 25 -27 66q0 69 100 136q-4 12 -5 75q-53 -95 -174 -95q-92 0 -150 64t-58 153q0 103 65 176q64 72 159 72
q103 0 159 -87v49q0 35 28 35q16 0 22 -9t6 -30l-1 -88zM106 208q0 -72 47 -121q46 -48 113 -48q75 0 123 50q48 49 48 129q0 86 -49 135t-117 49q-70 0 -118 -56t-48 -138h1z" />
    <glyph glyph-name="Cacute" unicode="&#x106;" horiz-adv-x="607" 
d="M523 653q39 -18 39 -36q0 -14 -7 -22q-8 -9 -19 -8t-34 12q-67 32 -133 32q-100 0 -178 -87t-78 -215q0 -116 72 -200t188 -84q83 0 147 46q3 1 9 5l6 5q1 1 6 3q3 1 10 1q8 0 14 -9t6 -19q0 -30 -67 -58q-66 -28 -138 -28q-125 0 -217 92q-91 91 -91 240q0 160 96 261
q96 100 222 100q79 0 147 -30v-1zM346 747q-11 -8 -18 -8q-9 0 -16 6t-7 15q0 7 8 18q2 2 12 13t28 31q37 40 59 68q10 12 21 12t20 -9t9 -19q0 -7 -11 -21q-25 -28 -50.5 -54.5t-52.5 -52.5z" />
    <glyph glyph-name="cacute" unicode="&#x107;" horiz-adv-x="444" 
d="M390 430q16 -10 16 -25q0 -10 -7 -18q-8 -9 -18 -9q-4 0 -12 2q-6 1 -15 6l-12 6q-35 16 -77 16q-70 0 -117 -59q-46 -58 -46 -126q0 -76 42 -125q42 -50 110 -50q59 0 97 23q31 18 39 18q9 0 17 -9q8 -10 8 -18q0 -11 -9 -20q-56 -48 -142 -48q-101 0 -159 69
q-59 69 -57 152q2 95 63 170t161 75q64 0 119 -32zM248 560q-11 -8 -18 -8q-9 0 -16 6t-7 15q0 7 8 18q2 2 12 13t28 31q37 40 59 68q10 12 21 12t20 -9t9 -19q0 -7 -11 -21q-25 -28 -50.5 -54.5t-52.5 -52.5z" />
    <glyph glyph-name="Ccircumflex" unicode="&#x108;" horiz-adv-x="607" 
d="M523 653q39 -18 39 -36q0 -14 -7 -22q-8 -9 -19 -8t-34 12q-67 32 -133 32q-100 0 -178 -87t-78 -215q0 -116 72 -200t188 -84q83 0 147 46q3 1 9 5l6 5q1 1 6 3q3 1 10 1q8 0 14 -9t6 -19q0 -30 -67 -58q-66 -28 -138 -28q-125 0 -217 92q-91 91 -91 240q0 160 96 261
q96 100 222 100q79 0 147 -30v-1zM476 724q-5 0 -9 3q-6 4 -8 6l-2 3q-1 1 -23 23.5t-67 67.5l-42 -42l-33 -34q-11 -12 -18 -18q-8 -6 -15 -6q-6 0 -13 7t-7 15t11 22l87 97q15 16 31 16q14 0 28 -14l88 -100q13 -14 13 -22t-6 -14t-14 -6z" />
    <glyph glyph-name="ccircumflex" unicode="&#x109;" horiz-adv-x="444" 
d="M390 430q16 -10 16 -25q0 -10 -7 -18q-8 -9 -18 -9q-4 0 -12 2q-6 1 -15 6l-12 6q-35 16 -77 16q-70 0 -117 -59q-46 -58 -46 -126q0 -76 42 -125q42 -50 110 -50q59 0 97 23q31 18 39 18q9 0 17 -9q8 -10 8 -18q0 -11 -9 -20q-56 -48 -142 -48q-101 0 -159 69
q-59 69 -57 152q2 95 63 170t161 75q64 0 119 -32zM378 537q-5 0 -9 3q-5 3 -6 6l-3 3q-1 1 -23 23.5t-67 67.5l-42 -42l-33 -34q-11 -12 -18 -18q-8 -6 -16 -6q-6 0 -13 7t-7 15t11 22l87 97q15 16 31 16q14 0 28 -14l88 -100q13 -14 13 -22t-6 -14t-14 -6z" />
    <glyph glyph-name="Cdotaccent" unicode="&#x10a;" horiz-adv-x="607" 
d="M523 653q39 -18 39 -36q0 -14 -7 -22q-8 -9 -19 -8t-34 12q-67 32 -133 32q-100 0 -178 -87t-78 -215q0 -116 72 -200t188 -84q83 0 147 46q3 1 9 5l6 5q1 1 6 3q3 1 10 1q8 0 14 -9t6 -19q0 -30 -67 -58q-66 -28 -138 -28q-125 0 -217 92q-91 91 -91 240q0 160 96 261
q96 100 222 100q79 0 147 -30v-1zM365 772q-18 0 -30 12q-11 11 -13 32q5 44 48 44q19 0 30 -12q11 -13 11 -31q0 -21 -13 -33q-14 -12 -34 -12h1z" />
    <glyph glyph-name="cdotaccent" unicode="&#x10b;" horiz-adv-x="444" 
d="M390 430q16 -10 16 -25q0 -10 -7 -18q-8 -9 -18 -9q-4 0 -12 2q-6 1 -15 6l-12 6q-35 16 -77 16q-70 0 -117 -59q-46 -58 -46 -126q0 -76 42 -125q42 -50 110 -50q59 0 97 23q31 18 39 18q9 0 17 -9q8 -10 8 -18q0 -11 -9 -20q-56 -48 -142 -48q-101 0 -159 69
q-59 69 -57 152q2 95 63 170t161 75q64 0 119 -32zM267 585q-18 0 -30 12q-11 11 -13 32q5 44 48 44q19 0 30 -12q11 -13 11 -31q0 -21 -13 -33q-14 -12 -34 -12h1z" />
    <glyph glyph-name="Ccaron" unicode="&#x10c;" horiz-adv-x="607" 
d="M523 653q39 -18 39 -36q0 -14 -7 -22q-8 -9 -19 -8t-34 12q-67 32 -133 32q-100 0 -178 -87t-78 -215q0 -116 72 -200t188 -84q83 0 147 46q3 1 9 5l6 5q1 1 6 3q3 1 10 1q8 0 14 -9t6 -19q0 -30 -67 -58q-66 -28 -138 -28q-125 0 -217 92q-91 91 -91 240q0 160 96 261
q96 100 222 100q79 0 147 -30v-1zM263 886q7 0 18 -11q1 -1 23 -23.5t67 -67.5l42 42l33 35q10 12 18 18q7 6 15 6q6 0 13 -7t7 -15t-11 -22l-87 -97q-15 -16 -31 -16q-14 0 -28 14l-88 100q-13 14 -13 23q0 8 6 14t14 6z" />
    <glyph glyph-name="ccaron" unicode="&#x10d;" horiz-adv-x="444" 
d="M390 430q16 -10 16 -25q0 -10 -7 -18q-8 -9 -18 -9q-4 0 -12 2q-6 1 -15 6l-12 6q-35 16 -77 16q-70 0 -117 -59q-46 -58 -46 -126q0 -76 42 -125q42 -50 110 -50q59 0 97 23q31 18 39 18q9 0 17 -9q8 -10 8 -18q0 -11 -9 -20q-56 -48 -142 -48q-101 0 -159 69
q-59 69 -57 152q2 95 63 170t161 75q64 0 119 -32zM164 699q7 0 18 -11q1 -1 23 -23.5t67 -67.5l42 42l33 35q10 12 18 18q7 6 16 6q6 0 13 -7t7 -15t-11 -22l-87 -97q-15 -16 -31 -16q-14 0 -28 14l-88 100q-13 14 -13 23q0 8 6 14t14 6z" />
    <glyph glyph-name="Dcaron" unicode="&#x10e;" horiz-adv-x="670" 
d="M84 632q0 49 62 49h40h72h39q142 -9 234 -93q91 -84 91 -228q0 -357 -378 -360q-13 0 -41 0.5t-73 1.5q-44 2 -44 54l3 303l-4 272zM258 630q-84 0 -120 -3v-551q0 -15 18 -18t81 -3q157 0 243 69t86 227q0 136 -87 207q-88 71 -220 71zM215 889q7 0 18 -11
q1 -1 23 -23.5t67 -67.5l42 42l33 35q10 12 18 18q7 6 16 6q6 0 13 -7t7 -15t-11 -22l-87 -97q-15 -16 -31 -16q-14 0 -28 14l-88 100q-13 14 -13 23q0 8 6 14t14 6z" />
    <glyph glyph-name="dcaron" unicode="&#x10f;" horiz-adv-x="673" 
d="M606 638q-13 0 -26 11q-12 10 -12 29t13 32q14 14 33 14q22 0 36 -17t14 -45t-21 -61t-49 -49q-7 -4 -12 -4q-6 0 -13 5q-6 4 -6 12q0 10 10 17q37 25 37 51v5h-4zM484 435v-187v-27t1 -55t1 -71v-74q0 -30 -27 -30q-28 0 -28 34v67q-60 -102 -172 -102q-90 0 -150 69
t-60 155q0 101 65 172q64 70 159 70q49 0 93 -24q43 -24 67 -66l-3 316q0 21 6 30t23 9q27 0 27 -26zM103 214q0 -69 47 -121q46 -51 113 -51q70 0 119 49q50 50 50 132q0 79 -45 130t-113 51q-69 0 -120 -54t-51 -134v-2z" />
    <glyph glyph-name="Dcroat" unicode="&#x110;" horiz-adv-x="674" 
d="M88 631q0 49 62 49h151q142 -9 234 -93q91 -84 91 -228q0 -357 -378 -360q-13 0 -41 0.5t-73 1.5q-44 2 -44 54l2 246h-49q-27 0 -27 24q0 13 8 19q7 6 27 6h42l-4 281h-1zM262 629q-84 0 -120 -3v-275h105q30 0 30 -22q0 -14 -7 -20q-8 -6 -28 -6h-100v-228
q0 -15 18 -18t81 -3q157 0 243 69t86 227q0 136 -87 207q-88 71 -220 71z" />
    <glyph glyph-name="dcroat" unicode="&#x111;" 
d="M486 602h55q29 0 29 -24q0 -25 -31 -25h-53v-87v-217v-24v-24.5t1 -50.5t1 -63.5v-63.5q0 -29 -27 -29q-28 0 -28 33v67q-60 -102 -172 -102q-90 0 -150 69t-60 155q0 101 65 172q64 70 159 70q50 0 92 -24t66 -66v187h-109q-30 0 -30 25q0 24 29 24h110v82q0 19 6 27
t22 8q25 0 25 -26v-93zM105 215q0 -69 47 -121q46 -51 113 -51q70 0 119 49q50 50 50 132q0 79 -45 130t-113 51q-69 0 -120 -54t-51 -134v-2z" />
    <glyph glyph-name="Emacron" unicode="&#x112;" horiz-adv-x="539" 
d="M102 641q0 14 9 22t19 9q5 1 13.5 1h19.5h52h46.5t71.5 1t71 1h46q25 0 34 -6t9 -20q0 -23 -23 -25h-126h-126h-61q-1 -26 -1 -63v-85v-99v-25h58q113 0 188 3q21 0 30 -6t9 -19q0 -25 -36 -25h-132h-118v-80v-36.5t-1 -52.5t-1 -52.5v-36.5q69 0 143.5 0.5t156.5 1.5h12
h12q25 0 25 -24q0 -17 -9 -24q-8 -7 -36 -7h-256q-69 0 -85 9t-16 49q0 7 0.5 18t1.5 26v3v11v17v24v30v39v46v54v61v132v134v-6zM197 787q-26 0 -26 25q0 27 41 27h42h42h29t36 1t31 1h14q28 0 29 -22q1 -15 -9 -22t-31 -7h-51h-57h-21t-28 -1t-26.5 -1h-15.5z" />
    <glyph glyph-name="emacron" unicode="&#x113;" horiz-adv-x="507" 
d="M106 212q0 -65 45 -113t118 -48q67 0 122 37q3 3 6 5q6 4 9 5q6 2 9 2q10 0 19 -9t9 -18q0 -16 -23 -33q-63 -45 -161 -45q-86 0 -147 63q-61 62 -64 150q0 101 64 177q65 77 156 77q79 0 134 -55q56 -56 56 -123v-17.5t-1 -12.5q-2 -11 -9 -21q-8 -11 -22 -15
q-15 -5 -42 -6q-12 -1 -44 -1h-86h-147zM275 412q-68 0 -114 -46t-52 -108q266 4 283 6q12 1 12 12q0 58 -39 96q-40 38 -91 38zM158 607q-26 0 -26 25q0 27 41 27h42h42h29t36 1t31 1h14q28 0 29 -22q1 -30 -40 -30h-51h-57h-21t-28 -1t-26.5 -1h-15.5h1z" />
    <glyph glyph-name="Ebreve" unicode="&#x114;" horiz-adv-x="539" 
d="M102 641q0 14 9 22t19 9q5 1 13.5 1h19.5h52h46.5t71.5 1t71 1h46q25 0 34 -6t9 -20q0 -23 -23 -25h-126h-126h-61q-1 -26 -1 -63v-85v-99v-25h58q113 0 188 3q21 0 30 -6t9 -19q0 -25 -36 -25h-132h-118v-80v-36.5t-1 -52.5t-1 -52.5v-36.5q69 0 143.5 0.5t156.5 1.5h12
h12q25 0 25 -24q0 -17 -9 -24q-8 -7 -36 -7h-256q-69 0 -85 9t-16 49q0 7 0.5 18t1.5 26v3v11v17v24v30v39v46v54v61v132v134v-6zM408 867q21 0 21 -24q0 -48 -36 -84t-88 -36q-48 0 -85 35q-36 35 -38 83q0 26 22 26q20 0 21 -22q1 -33 23 -55q21 -21 59 -21q35 0 56 23
q21 22 21 54q0 22 22 22z" />
    <glyph glyph-name="ebreve" unicode="&#x115;" horiz-adv-x="507" 
d="M106 212q0 -65 45 -113t118 -48q67 0 122 37q3 3 6 5q6 4 9 5q6 2 9 2q10 0 19 -9t9 -18q0 -16 -23 -33q-63 -45 -161 -45q-86 0 -147 63q-61 62 -64 150q0 101 64 177q65 77 156 77q79 0 134 -55q56 -56 56 -123v-17.5t-1 -12.5q-2 -11 -9 -21q-8 -11 -22 -15
q-15 -5 -42 -6q-12 -1 -44 -1h-86h-147zM275 412q-68 0 -114 -46t-52 -108q266 4 283 6q12 1 12 12q0 58 -39 96q-40 38 -91 38zM369 686q21 0 21 -24q0 -48 -36 -84t-88 -36q-48 0 -85 35q-36 35 -38 83q0 26 22 26q20 0 21 -22q1 -33 23 -55q21 -21 59 -21q35 0 56 23
q21 22 21 54q0 22 22 22z" />
    <glyph glyph-name="Edotaccent" unicode="&#x116;" horiz-adv-x="539" 
d="M102 641q0 14 9 22t19 9q5 1 13.5 1h19.5h52h46.5t71.5 1t71 1h46q25 0 34 -6t9 -20q0 -23 -23 -25h-126h-126h-61q-1 -26 -1 -63v-85v-99v-25h58q113 0 188 3q21 0 30 -6t9 -19q0 -25 -36 -25h-132h-118v-80v-36.5t-1 -52.5t-1 -52.5v-36.5q69 0 143.5 0.5t156.5 1.5h12
h12q25 0 25 -24q0 -17 -9 -24q-8 -7 -36 -7h-256q-69 0 -85 9t-16 49q0 7 0.5 18t1.5 26v3v11v17v24v30v39v46v54v61v132v134v-6zM300 767q-18 0 -30 12q-11 11 -13 32q5 44 48 44q19 0 30 -12q11 -13 11 -31q0 -21 -13 -33q-14 -12 -34 -12h1z" />
    <glyph glyph-name="edotaccent" unicode="&#x117;" horiz-adv-x="507" 
d="M106 212q0 -65 45 -113t118 -48q67 0 122 37q3 3 6 5q6 4 9 5q6 2 9 2q10 0 19 -9t9 -18q0 -16 -23 -33q-63 -45 -161 -45q-86 0 -147 63q-61 62 -64 150q0 101 64 177q65 77 156 77q79 0 134 -55q56 -56 56 -123v-17.5t-1 -12.5q-2 -11 -9 -21q-8 -11 -22 -15
q-15 -5 -42 -6q-12 -1 -44 -1h-86h-147zM275 412q-68 0 -114 -46t-52 -108q266 4 283 6q12 1 12 12q0 58 -39 96q-40 38 -91 38zM261 586q-18 0 -30 12q-11 11 -13 32q5 44 48 44q19 0 30 -12q11 -13 11 -31q0 -21 -13 -33q-14 -12 -34 -12h1z" />
    <glyph glyph-name="Eogonek" unicode="&#x118;" horiz-adv-x="539" 
d="M386 -116q0 -21 11 -34q10 -12 27 -12q12 0 26 3q13 3 21 3q9 0 15 -6t6 -15q0 -32 -62 -32q-17 0 -33 6q-57 21 -57 82q0 67 77 123h-221q-69 0 -85 9t-16 49v9.5t1 13.5t1 13.5v10.5q3 60 3 278v114v114q0 50 9 59t52 9h52h46.5t71.5 1t71 1h46q25 0 34 -6t9 -20
q0 -23 -23 -25h-126h-126h-61q-1 -26 -1 -86v-155v-31h58q16 0 40.5 0.5t57.5 1.5t58.5 1.5t42.5 0.5q28 0 28 -25q0 -12 -1 -15q-2 -5 -12 -9q-9 -4 -31 -4h-241l-3 -259h161h163q25 0 25 -22q0 -26 -24 -30q-32 -17 -60 -51t-28 -66z" />
    <glyph glyph-name="eogonek" unicode="&#x119;" horiz-adv-x="507" 
d="M105 210q0 -65 45 -113t118 -48q67 0 122 37q3 3 6 5q6 4 9 5q6 2 9 2q10 0 19 -9t9 -18q0 -14 -23 -31q-14 -9 -24.5 -16.5t-18.5 -12.5q-15 -11 -37 -31q-23 -21 -33 -43q-10 -21 -10 -50q0 -23 12 -36q12 -14 29 -14q12 0 27 3t22 3q9 0 15 -6t6 -15q0 -32 -65 -32
q-38 0 -64 25q-27 25 -27 66q0 65 58 117q-23 -3 -50 -3q-86 0 -147 63q-61 62 -64 150q0 101 64 177q65 77 156 77q79 0 134 -55q56 -56 56 -123v-17.5t-1 -12.5q-2 -11 -9 -21q-8 -11 -22 -15q-15 -5 -42 -6q-12 -1 -44 -1h-86h-147zM274 410q-68 0 -114 -46t-52 -108
q266 4 283 6q12 1 12 12q0 58 -39 96q-40 38 -91 38z" />
    <glyph glyph-name="Ecaron" unicode="&#x11a;" horiz-adv-x="539" 
d="M102 641q0 14 9 22t19 9q5 1 13.5 1h19.5h52h46.5t71.5 1t71 1h46q25 0 34 -6t9 -20q0 -23 -23 -25h-126h-126h-61q-1 -26 -1 -63v-85v-99v-25h58q113 0 188 3q21 0 30 -6t9 -19q0 -25 -36 -25h-132h-118v-80v-36.5t-1 -52.5t-1 -52.5v-36.5q69 0 143.5 0.5t156.5 1.5h12
h12q25 0 25 -24q0 -17 -9 -24q-8 -7 -36 -7h-256q-69 0 -85 9t-16 49q0 7 0.5 18t1.5 26v3v11v17v24v30v39v46v54v61v132v134v-6zM197 881q7 0 18 -11q1 -1 23 -23.5t67 -67.5l42 42l33 35q10 12 18 18q7 6 16 6q6 0 13 -7t7 -15t-11 -22l-87 -97q-15 -16 -31 -16
q-14 0 -28 14l-88 100q-13 14 -13 23q0 8 6 14t14 6z" />
    <glyph glyph-name="ecaron" unicode="&#x11b;" horiz-adv-x="507" 
d="M106 212q0 -65 45 -113t118 -48q67 0 122 37q3 3 6 5q6 4 9 5q6 2 9 2q10 0 19 -9t9 -18q0 -16 -23 -33q-63 -45 -161 -45q-86 0 -147 63q-61 62 -64 150q0 101 64 177q65 77 156 77q79 0 134 -55q56 -56 56 -123v-17.5t-1 -12.5q-2 -11 -9 -21q-8 -11 -22 -15
q-15 -5 -42 -6q-12 -1 -44 -1h-86h-147zM275 412q-68 0 -114 -46t-52 -108q266 4 283 6q12 1 12 12q0 58 -39 96q-40 38 -91 38zM159 700q7 0 18 -11q1 -1 23 -23.5t67 -67.5l42 42l33 35q10 12 18 18q7 6 15 6q6 0 13 -7t7 -15t-11 -22l-87 -97q-15 -16 -31 -16
q-14 0 -28 14l-88 100q-13 14 -13 23q0 8 6 14t14 6z" />
    <glyph glyph-name="Gcircumflex" unicode="&#x11c;" horiz-adv-x="709" 
d="M385 682q112 0 204 -60q16 -10 16 -24q0 -13 -7 -20q-8 -8 -18 -8q-12 0 -38 17q-68 45 -162 45q-101 0 -185 -87t-84 -202q0 -140 75 -219t200 -79q98 0 161 75q62 74 64 177h-170q-9 1 -15 9q-6 7 -6 15q0 22 21 25q5 1 183 1q23 0 32 -10q9 -11 9 -34q0 -136 -81 -223
t-199 -87q-147 0 -237 95q-90 94 -90 249q0 144 100 245q100 102 231 102zM484 723q-5 0 -9 3q-6 4 -8 6l-2 3q-1 1 -23 23.5t-67 67.5l-42 -42l-33 -34q-11 -12 -18 -18q-8 -6 -15 -6q-6 0 -13 7t-7 15t11 22l87 97q15 16 31 16q14 0 28 -14l88 -100q13 -14 13 -22t-6 -14
t-14 -6z" />
    <glyph glyph-name="gcircumflex" unicode="&#x11d;" horiz-adv-x="560" 
d="M256 -179q78 0 126 52t48 139v80q-59 -98 -174 -98q-89 0 -149 66t-60 154q0 106 66 177q66 70 161 70q97 0 159 -87v54q0 28 26 28q11 0 18 -7q8 -8 8 -19q-1 -118 -1.5 -200t-0.5 -130l1 -89q1 -110 -63 -174q-65 -65 -165 -65q-75 0 -135 28q-31 13 -31 33q0 10 8 18
t18 8q6 0 12 -3q3 -2 6.5 -3.5t8.5 -3.5t9 -4l8 -4q47 -19 99 -19zM99 214q0 -74 46 -121q46 -48 114 -48q72 0 122 48t50 129q0 90 -46 137t-117 49t-119 -54t-48 -139zM376 533q-5 0 -9 3q-5 3 -6 6l-3 3q-1 1 -23 23.5t-67 67.5l-42 -42l-33 -34q-11 -12 -18 -18
q-8 -6 -16 -6q-6 0 -13 7t-7 15t11 22l87 97q15 16 31 16q14 0 28 -14l88 -100q13 -14 13 -22t-6 -14t-14 -6z" />
    <glyph glyph-name="Gbreve" unicode="&#x11e;" horiz-adv-x="709" 
d="M385 682q112 0 204 -60q16 -10 16 -24q0 -13 -7 -20q-8 -8 -18 -8q-12 0 -38 17q-68 45 -162 45q-101 0 -185 -87t-84 -202q0 -140 75 -219t200 -79q98 0 161 75q62 74 64 177h-170q-9 1 -15 9q-6 7 -6 15q0 22 21 25q5 1 183 1q23 0 32 -10q9 -11 9 -34q0 -136 -81 -223
t-199 -87q-147 0 -237 95q-90 94 -90 249q0 144 100 245q100 102 231 102zM481 871q21 0 21 -24q0 -48 -36 -84t-88 -36q-48 0 -85 35q-36 35 -38 83q0 26 22 26q20 0 21 -22q1 -33 23 -55q21 -21 59 -21q35 0 56 23q21 22 21 54q0 22 22 22z" />
    <glyph glyph-name="gbreve" unicode="&#x11f;" horiz-adv-x="560" 
d="M256 -179q78 0 126 52t48 139v80q-59 -98 -174 -98q-89 0 -149 66t-60 154q0 106 66 177q66 70 161 70q97 0 159 -87v54q0 28 26 28q11 0 18 -7q8 -8 8 -19q-1 -118 -1.5 -200t-0.5 -130l1 -89q1 -110 -63 -174q-65 -65 -165 -65q-75 0 -135 28q-31 13 -31 33q0 10 8 18
t18 8q6 0 12 -3q3 -2 6.5 -3.5t8.5 -3.5t9 -4l8 -4q47 -19 99 -19zM99 214q0 -74 46 -121q46 -48 114 -48q72 0 122 48t50 129q0 90 -46 137t-117 49t-119 -54t-48 -139zM373 681q21 0 21 -24q0 -48 -36 -84t-88 -36q-48 0 -85 35q-36 35 -38 83q0 26 22 26q20 0 21 -22
q1 -33 23 -55q21 -21 59 -21q35 0 56 23q21 22 21 54q0 22 22 22z" />
    <glyph glyph-name="Gdotaccent" unicode="&#x120;" horiz-adv-x="709" 
d="M385 682q112 0 204 -60q16 -10 16 -24q0 -13 -7 -20q-8 -8 -18 -8q-12 0 -38 17q-68 45 -162 45q-101 0 -185 -87t-84 -202q0 -140 75 -219t200 -79q98 0 161 75q62 74 64 177h-170q-9 1 -15 9q-6 7 -6 15q0 22 21 25q5 1 183 1q23 0 32 -10q9 -11 9 -34q0 -136 -81 -223
t-199 -87q-147 0 -237 95q-90 94 -90 249q0 144 100 245q100 102 231 102zM373 771q-18 0 -30 12q-11 11 -13 32q5 44 48 44q19 0 30 -12q11 -13 11 -31q0 -21 -13 -33q-14 -12 -34 -12h1z" />
    <glyph glyph-name="gdotaccent" unicode="&#x121;" horiz-adv-x="560" 
d="M256 -179q78 0 126 52t48 139v80q-59 -98 -174 -98q-89 0 -149 66t-60 154q0 106 66 177q66 70 161 70q97 0 159 -87v54q0 28 26 28q11 0 18 -7q8 -8 8 -19q-1 -118 -1.5 -200t-0.5 -130l1 -89q1 -110 -63 -174q-65 -65 -165 -65q-75 0 -135 28q-31 13 -31 33q0 10 8 18
t18 8q6 0 12 -3q3 -2 6.5 -3.5t8.5 -3.5t9 -4l8 -4q47 -19 99 -19zM99 214q0 -74 46 -121q46 -48 114 -48q72 0 122 48t50 129q0 90 -46 137t-117 49t-119 -54t-48 -139zM265 581q-18 0 -30 12q-11 11 -13 32q5 44 48 44q19 0 30 -12q11 -13 11 -31q0 -21 -13 -33
q-14 -12 -34 -12h1z" />
    <glyph glyph-name="Gcommaaccent" unicode="&#x122;" horiz-adv-x="709" 
d="M385 682q112 0 204 -60q16 -10 16 -24q0 -13 -7 -20q-8 -8 -18 -8q-12 0 -38 17q-68 45 -162 45q-101 0 -185 -87t-84 -202q0 -140 75 -219t200 -79q98 0 161 75q62 74 64 177h-170q-9 1 -15 9q-6 7 -6 15q0 22 21 25q5 1 183 1q23 0 32 -10q9 -11 9 -34q0 -136 -81 -223
t-199 -87q-147 0 -237 95q-90 94 -90 249q0 144 100 245q100 102 231 102zM313 -195q0 6 15 21t18 32q0 2 -4 6q-2 2 -4.5 5t-5.5 7q-6 7 -6 18q0 16 10 26q11 11 27 11t27 -12q11 -13 11 -28q0 -50 -55 -93q-12 -6 -18 -6q-14 0 -14 16z" />
    <glyph glyph-name="gcommaaccent" unicode="&#x123;" horiz-adv-x="560" 
d="M318 668q0 -5 -15 -21q-15 -17 -15 -33q0 -2 10 -12t10 -24q0 -15 -10 -25t-27 -10q-16 0 -28 12t-12 28q0 50 55 93q12 6 18 6q14 0 14 -16v2zM256 -177q78 0 126 52t48 139v80q-59 -98 -174 -98q-89 0 -149 66t-60 154q0 106 66 177q66 70 161 70q97 0 159 -87v54
q0 28 26 28q11 0 18 -7q8 -8 8 -19q-1 -118 -1.5 -200t-0.5 -130l1 -89q1 -110 -63 -174q-65 -65 -165 -65q-75 0 -135 28q-31 13 -31 33q0 10 8 18t18 8q6 0 12 -3q3 -2 6.5 -3.5t8.5 -3.5t9 -4l8 -4q47 -19 99 -19zM99 216q0 -74 46 -121q46 -48 114 -48q72 0 122 48
t50 129q0 90 -46 137t-117 49t-119 -54t-48 -139z" />
    <glyph glyph-name="Hcircumflex" unicode="&#x124;" horiz-adv-x="692" 
d="M597 21q0 -26 -27 -26q-29 0 -29 27v102l-1 175h-80t-112 -1t-114 -1h-87l2 -274q0 -27 -29 -27q-11 0 -19 7q-9 7 -9 19q0 20 0.5 63.5t1.5 109.5q1 132 0 204l-4 249q2 29 30 29q26 0 26 -26v-135.5t1 -166.5h126h98h99l72 1v55.5t-1 90.5t-1 88.5v50.5q0 25 6 36
q6 10 23 10q27 0 27 -36v-154v-114.5t1 -45.5v-310zM453 724q-5 0 -9 3q-6 4 -8 6l-2 3q-1 1 -23 23.5t-67 67.5l-42 -42l-33 -34q-11 -12 -18 -18q-8 -6 -15 -6q-6 0 -13 7t-7 15t11 22l87 97q15 16 31 16q14 0 28 -14l88 -100q13 -14 13 -22t-6 -14t-14 -6z" />
    <glyph glyph-name="hcircumflex" unicode="&#x125;" horiz-adv-x="541" 
d="M80 692q0 40 31 40q26 0 26 -36v-43v-39.5t-1 -62.5t-1 -84.5v-106.5q22 47 66 76q43 28 102 28q76 0 123 -57q47 -58 47 -141v-239q0 -29 -29 -29t-29 26q2 47 3.5 106t1.5 131q0 73 -34 111q-35 39 -96 39q-65 0 -111 -51q-46 -50 -46 -124v-46t1 -71t1 -65.5v-28.5
q0 -28 -28 -28q-27 0 -27 25v36t1 42t1 37.5v21.5l-1 532zM219 738q-5 0 -9 3q-3 2 -6 5l-3 3q-1 1 -23 23.5t-67 67.5l-42 -42l-33 -34q-11 -12 -18 -18q-8 -6 -15 -6q-6 0 -13 7t-7 15t11 22l87 97q15 16 31 16q14 0 28 -14l88 -100q13 -14 13 -22t-6 -14t-14 -6z" />
    <glyph glyph-name="Hbar" unicode="&#x126;" horiz-adv-x="692" 
d="M599 19q0 -26 -27 -26q-5 0 -13 2q-6 1 -9 6q-4 6 -5 8q-2 4 -2 11v12v13v13v68v87v87q-54 0 -151.5 -0.5t-242.5 -1.5q1 -23 1 -57.5v-80.5v-80.5t1 -57.5q0 -27 -29 -27q-11 0 -19 7q-9 7 -9 19v189v189v89h-54q-25 0 -25 23q0 24 33 24h46v113q0 29 27 29t27 -26v-116
h395v113q0 18 6 26t21 8q27 0 27 -35v-111h46q28 0 28 -22q0 -13 -7 -19q-8 -6 -25 -6h-42v-158zM543 348v138h-395v-139z" />
    <glyph glyph-name="hbar" unicode="&#x127;" horiz-adv-x="541" 
d="M80 694q0 38 31 38q25 0 25 -34l-1 -94h97q27 0 29 -21q1 -16 -6 -22q-8 -6 -28 -6h-91q-1 -22 -1 -70.5v-124.5q22 47 66 76q43 28 102 28q76 0 123 -57q47 -58 47 -141v-239q0 -29 -29 -29t-29 26q2 47 3.5 106t1.5 131q0 73 -34 111q-35 39 -96 39q-65 0 -111 -51
q-46 -50 -46 -124v-46t1 -71t1 -65.5v-28.5q0 -28 -28 -28q-27 0 -27 25v36t1 42t1 37.5v21.5l-1 393h-62q-26 0 -26 24q0 27 37 27h51v90z" />
    <glyph glyph-name="Itilde" unicode="&#x128;" horiz-adv-x="262" 
d="M106 394v44t-1 70t-1 77v65t30 30q26 0 26 -28v-93.5t-1 -161.5v-162l1 -200q0 -22 -6 -31t-22 -9q-28 0 -28 27v43v45l1 285zM31 780q-1 -19 -24 -19q-10 0 -16 8q-6 7 -4 18q1 33 26 54q24 21 58 21t68 -31t59 -33q30 0 32 45q1 9 9 15q7 6 15 6q22 0 22 -20
q0 -44 -22 -65q-23 -21 -60 -21q-35 2 -69 31t-55 31q-32 0 -36 -39z" />
    <glyph glyph-name="itilde" unicode="&#x129;" horiz-adv-x="229" 
d="M85 426q1 31 27 31q20 0 24 -10q5 -12 5 -45v-117v-117v-136v-16q0 -6 -3 -12q-3 -5 -9 -7q-8 -2 -16 -2q-15 0 -20 8t-5 26v396zM12 592q-1 -19 -24 -19q-10 0 -16 8q-6 7 -4 18q1 33 26 54q24 21 58 21t68 -31t59 -33q30 0 32 45q1 9 9 15q7 6 15 6q22 0 22 -20
q0 -44 -22 -65q-23 -21 -60 -21q-35 2 -69 31t-55 31q-32 0 -36 -39z" />
    <glyph glyph-name="Imacron" unicode="&#x12a;" horiz-adv-x="262" 
d="M106 394v44t-1 70t-1 77v65t30 30q26 0 26 -28v-93.5t-1 -161.5v-162l1 -200q0 -22 -6 -31t-22 -9q-28 0 -28 27v43v45l1 285zM25 793q-26 0 -26 25q0 27 41 27h42h42h29t36 1t31 1h14q28 0 29 -22q1 -30 -40 -30h-51h-57h-21t-28 -1t-26.5 -1h-15.5h1z" />
    <glyph glyph-name="imacron" unicode="&#x12b;" horiz-adv-x="229" 
d="M85 426q1 31 27 31q20 0 24 -10q5 -12 5 -45v-117v-117v-136v-16q0 -6 -3 -12q-3 -5 -9 -7q-8 -2 -16 -2q-15 0 -20 8t-5 26v396zM6 604q-26 0 -26 25q0 27 41 27h42h42h29t36 1t31 1h14q28 0 29 -22q1 -15 -9 -22t-31 -7h-51h-57h-21t-28 -1t-26.5 -1h-15.5z" />
    <glyph glyph-name="Ibreve" unicode="&#x12c;" horiz-adv-x="262" 
d="M106 394v44t-1 70t-1 77v65t30 30q26 0 26 -28v-93.5t-1 -161.5v-162l1 -200q0 -22 -6 -31t-22 -9q-28 0 -28 27v43v45l1 285zM236 872q21 0 21 -24q0 -48 -36 -84t-88 -36q-48 0 -85 35q-36 35 -38 83q0 26 22 26q20 0 21 -22q1 -33 23 -55q21 -21 59 -21q35 0 56 23
q21 22 21 54q0 22 22 22z" />
    <glyph glyph-name="ibreve" unicode="&#x12d;" horiz-adv-x="229" 
d="M85 426q1 31 27 31q20 0 24 -10q5 -12 5 -45v-117v-117v-136v-16q0 -6 -3 -12q-3 -5 -9 -7q-8 -2 -16 -2q-15 0 -20 8t-5 26v396zM217 684q21 0 21 -24q0 -48 -36 -84t-88 -36q-48 0 -85 35q-36 35 -38 83q0 26 22 26q20 0 21 -22q1 -33 23 -55q21 -21 59 -21q35 0 56 23
q21 22 21 54q0 22 22 22z" />
    <glyph glyph-name="Iogonek" unicode="&#x12e;" horiz-adv-x="262" 
d="M107 394q0 60 -0.5 122.5t-1.5 128.5q0 35 28 35t28 -28v-102.5t-1 -152.5v-32v-130v-100v-100q0 -34 -17 -39q-15 -12 -26 -21t-19 -16q-16 -14 -27 -34q-12 -21 -12 -43q0 -21 11 -34q10 -12 27 -12q12 0 26 3q13 3 21 3q9 0 15 -6t6 -15q0 -31 -64 -31q-38 0 -62 24
t-24 65q0 69 94 130q-4 5 -4 43v33v62v125v123z" />
    <glyph glyph-name="iogonek" unicode="&#x12f;" horiz-adv-x="229" 
d="M86 423q1 31 27 31q20 0 24 -10q5 -12 5 -45v-117v-117v-136q0 -27 -12 -34q-66 -57 -66 -115q0 -21 11 -34q10 -12 27 -12q12 0 26 3q13 3 21 3q9 0 15 -6t6 -15q0 -32 -62 -32q-37 0 -63 25q-27 25 -27 66q0 65 74 125q-4 7 -4 26v396zM111 612q-19 0 -31 12t-12 32
q6 45 48 45q21 0 32 -12q11 -13 11 -33q0 -45 -49 -45z" />
    <glyph glyph-name="Idotaccent" unicode="&#x130;" horiz-adv-x="262" 
d="M106 394v44t-1 70t-1 77v65t30 30q26 0 26 -28v-93.5t-1 -161.5v-162l1 -200q0 -22 -6 -31t-22 -9q-28 0 -28 27v43v45l1 285zM128 772q-18 0 -30 12q-11 11 -13 32q5 44 48 44q19 0 30 -12q11 -13 11 -31q0 -21 -13 -33q-14 -12 -34 -12h1z" />
    <glyph glyph-name="dotlessi" unicode="&#x131;" horiz-adv-x="229" 
d="M85 426q1 31 27 31q20 0 24 -10q5 -12 5 -45v-117v-117v-136v-16q0 -6 -3 -12q-3 -5 -9 -7q-8 -2 -16 -2q-15 0 -20 8t-5 26v396z" />
    <glyph glyph-name="IJ" unicode="&#x132;" horiz-adv-x="742" 
d="M106 394v44t-1 70t-1 77v65t30 30q26 0 26 -28v-93.5t-1 -161.5v-162l1 -200q0 -22 -6 -31t-22 -9q-28 0 -28 27v43v45l1 285zM582 649q0 30 26 30q29 0 29 -27q0 -47 3 -147q3 -101 3 -147v-72t-1 -49q-2 -122 -49 -184q-48 -63 -157 -63q-36 0 -72 18q-37 19 -54 34
q-20 18 -20 35q0 10 8 18q7 7 18 7q8 0 15 -4q6 -4 19 -15q11 -10 16 -13q33 -27 76 -27q34 0 60 9t42 28t27 42t15 58q4 36 6 68q1 16 1.5 36t0.5 44z" />
    <glyph glyph-name="ij" unicode="&#x133;" horiz-adv-x="441" 
d="M85 426q1 31 27 31q20 0 24 -10q5 -12 5 -45v-117v-117v-136v-16q0 -6 -3 -12q-3 -5 -9 -7q-8 -2 -16 -2q-15 0 -20 8t-5 26v396zM110 615q-19 0 -31 12t-12 32q6 45 48 45q21 0 32 -12q11 -13 11 -33q0 -45 -49 -45zM307 430q2 26 26 26q28 0 28 -24v-264
q0 -59 -1 -124.5t-3 -140.5q-1 -54 -41 -94q-39 -39 -100 -39q-23 0 -49 8q-24 7 -24 24q0 16 7 23q8 8 16 8q10 0 27 -6q16 -6 32 -6q36 0 57 27t24 72q2 26 3 109t1 223v35.5t-1 54.5t-1 54.5v35.5zM331 616q-19 0 -31 12t-12 32t14 32q13 12 35 12q21 0 32 -12
q11 -13 11 -33q0 -22 -13 -34q-14 -12 -36 -12v3z" />
    <glyph glyph-name="Jcircumflex" unicode="&#x134;" horiz-adv-x="480" 
d="M319 650q0 30 26 30q29 0 29 -27q0 -47 3 -147q3 -101 3 -147v-72t-1 -49q-2 -122 -49 -184q-48 -63 -157 -63q-36 0 -72 18q-37 19 -54 34q-20 17 -20 35q0 10 8 18q7 7 18 7q8 0 15 -4q6 -4 19 -15q11 -10 16 -13q33 -27 76 -27q34 0 60 9t42 28t27 42t15 58q4 36 6 68
q1 16 1.5 36t0.5 44zM453 721q-5 0 -9 3q-5 3 -6 6l-3 3q-1 1 -23 23.5t-67 67.5l-42 -42l-33 -34q-11 -12 -18 -18q-8 -6 -16 -6q-6 0 -13 7t-7 15t11 22l87 97q15 16 31 16q14 0 28 -14l88 -100q13 -14 13 -22t-6 -14t-14 -6z" />
    <glyph glyph-name="jcircumflex" unicode="&#x135;" horiz-adv-x="212" 
d="M81 428q2 26 26 26q28 0 28 -24v-264q0 -59 -1 -124.5t-3 -140.5q-1 -54 -41 -94q-39 -39 -100 -39q-23 0 -49 8q-24 7 -24 24q0 16 7 23q8 8 16 8q9 0 26 -6q16 -6 32 -6q36 0 57 27t24 72q2 26 3 109t1 223v35.5t-1 54.5t-1 54.5v35.5v-2zM215 533q-5 0 -9 3q-5 3 -6 6
l-3 3q-1 1 -23 23.5t-67 67.5l-42 -42l-33 -34q-11 -12 -18 -18q-8 -6 -16 -6q-6 0 -13 7t-7 15t11 22l87 97q15 16 31 16q14 0 28 -14l88 -100q13 -14 13 -22t-6 -14t-14 -6z" />
    <glyph glyph-name="Kcommaaccent" unicode="&#x136;" horiz-adv-x="597" 
d="M148 287q86 91 169.5 184.5t165.5 190.5q15 18 30 18q11 0 20 -9t9 -19q0 -8 -6 -15q-26 -31 -76 -86.5t-125 -136.5q-3 -3 -8.5 -9t-13.5 -15t-14 -15.5t-11 -11.5q37 -40 164 -194l105 -124q10 -10 10 -24q0 -12 -9 -21t-22 -9q-15 0 -27 15q-3 4 -8.5 10.5t-13.5 17.5
l-233 292q-20 -23 -57 -60q-19 -19 -31 -31.5t-17 -18.5v-198q0 -26 -28 -26q-27 0 -27 26v24v24v120.5t1 169.5t1 169.5v120.5q0 34 28 34q27 0 27 -29v-75.5t-1 -108.5t-1 -107v-70zM252 -196q0 6 15 21t18 32q0 2 -4 6q-2 2 -4.5 5t-5.5 7q-6 7 -6 18q0 16 10 26
q11 11 27 11t27 -12q11 -13 11 -28q0 -50 -55 -93q-12 -6 -18 -6q-14 0 -14 16z" />
    <glyph glyph-name="kcommaaccent" unicode="&#x137;" horiz-adv-x="453" 
d="M414 45q10 -11 10 -20q0 -8 -8 -19q-7 -10 -21 -10q-13 0 -34 25l-167 193l-61 -60v-114q0 -25 -4 -34q-4 -10 -22 -10q-20 0 -24 9q-4 8 -4 35l2 123v439v56t-1 36q-2 36 29 36q17 0 21 -10q5 -12 5 -36v-231v-231l214 219q23 23 35 23q11 0 20 -9t9 -21q0 -9 -20 -29
l-161 -157zM198 -194q0 6 15 21t18 32q0 2 -4 6q-2 2 -4.5 5t-5.5 7q-6 7 -6 18q0 16 10 26q11 11 27 11t27 -12q11 -13 11 -28q0 -50 -55 -93q-12 -6 -18 -6q-14 0 -14 16z" />
    <glyph glyph-name="kgreenlandic" unicode="&#x138;" horiz-adv-x="453" 
d="M414 44q10 -11 10 -20q0 -8 -8 -19q-7 -10 -21 -10q-13 0 -34 25l-167 188l-61 -1v-168q0 -25 -4 -34q-4 -10 -22 -10q-20 0 -24 9q-4 8 -4 35l2 123l-1 262q-2 36 29 36q17 0 21 -10q5 -12 5 -36l-1 -159h43q27 3 50 29q22 25 36 56q13 28 38 63q23 32 51 46
q19 10 37 10q10 0 18 -8q7 -7 7 -18q0 -13 -28 -25q-31 -13 -55 -49q-12 -18 -23.5 -36t-22.5 -37q-23 -38 -46 -51z" />
    <glyph glyph-name="Lacute" unicode="&#x139;" horiz-adv-x="487" 
d="M97 647q0 32 31 32q25 0 25 -33t-0.5 -90t-1.5 -138q-2 -155 -3 -207v-86v-54v-24h84t47 1l162 6q30 0 30 -24q0 -31 -31 -31h-118q-61 0 -101.5 -0.5t-60.5 -1.5q-39 -1 -53 8t-14 41v16v24q0 22 0.5 54t1.5 76q2 88 3 131v302zM106 746q-11 -8 -18 -8q-9 0 -16 6t-7 15
q0 7 8 18q2 2 12 13t28 31q37 40 59 68q10 12 21 12t20 -9t9 -19q0 -7 -11 -21q-25 -28 -50.5 -54.5t-52.5 -52.5z" />
    <glyph glyph-name="lacute" unicode="&#x13a;" horiz-adv-x="219" 
d="M120 769q-11 -8 -18 -8q-9 0 -16 6t-7 15q0 7 8 18l85 103q10 12 21 12t20 -9t9 -19q0 -7 -11 -21zM81 690q0 15 9 23q10 8 22 8q13 0 19 -6q5 -5 7 -14q1 -5 1 -30q0 -41 -3 -234q-3 -194 -3 -281v-20.5t1 -22.5t1.5 -25t1.5 -27q1 -29 3 -45q1 -11 -5 -17t-18 -6
q-29 0 -30 45q-2 35 -2.5 198.5t1.5 455.5z" />
    <glyph glyph-name="Lcommaaccent" unicode="&#x13b;" horiz-adv-x="487" 
d="M97 647q0 32 31 32q25 0 25 -33t-0.5 -90t-1.5 -138q-2 -155 -3 -207v-86v-54v-24h84t47 1l162 6q30 0 30 -24q0 -31 -31 -31h-118q-61 0 -101.5 -0.5t-60.5 -1.5q-39 -1 -53 8t-14 41v16v24q0 22 0.5 54t1.5 76q2 88 3 131v302zM220 -195q0 6 15 21t18 32q0 2 -4 6
q-2 2 -4.5 5t-5.5 7q-6 7 -6 18q0 16 10 26q11 11 27 11t27 -12q11 -13 11 -28q0 -50 -55 -93q-12 -6 -18 -6q-14 0 -14 16z" />
    <glyph glyph-name="lcommaaccent" unicode="&#x13c;" horiz-adv-x="219" 
d="M81 689q0 15 9 23q10 8 22 8q13 0 19 -6q5 -5 7 -14q1 -5 1 -30q0 -41 -3 -234q-3 -194 -3 -281v-20.5t1 -22.5t1.5 -25t1.5 -27q1 -29 3 -45q1 -11 -5 -17t-18 -6q-29 0 -30 45q-2 35 -2.5 198.5t1.5 455.5zM60 -195q0 6 15 21t18 32q0 2 -4 6q-2 2 -4.5 5t-5.5 7
q-6 7 -6 18q0 16 10 26q11 11 27 11t27 -12q11 -13 11 -28q0 -50 -55 -93q-12 -6 -18 -6q-14 0 -14 16z" />
    <glyph glyph-name="Lcaron" unicode="&#x13d;" horiz-adv-x="497" 
d="M429 592q-13 0 -26 11q-12 10 -12 29t13 32q14 14 33 14q22 0 36 -17t14 -45t-21 -61t-49 -49q-7 -4 -12 -4q-6 0 -13 5q-6 4 -6 12q0 11 10 18q37 25 37 51v5zM95 646q0 32 31 32q25 0 25 -33t-0.5 -90t-1.5 -138q-2 -155 -3 -207v-86v-54v-24h84t47 1l162 6
q30 0 30 -24q0 -31 -31 -31h-118q-61 0 -101.5 -0.5t-60.5 -1.5q-39 -1 -53 8t-14 41v16v24q0 22 0.5 54t1.5 76q2 88 3 131v302z" />
    <glyph glyph-name="lcaron" unicode="&#x13e;" horiz-adv-x="327" 
d="M260 638q-13 0 -26 11q-12 10 -12 29t13 32q14 14 33 14q22 0 36 -17t14 -45t-21 -61t-49 -49q-7 -4 -12 -4q-6 0 -13 5q-6 4 -6 12q0 10 10 17q37 25 37 51v5h-4zM79 689q0 15 9 23q10 8 22 8q13 0 19 -6q5 -5 7 -14q1 -5 1 -30q0 -41 -3 -234q-3 -194 -3 -281v-20.5
t1 -22.5t1.5 -25t1.5 -27q1 -29 3 -45q1 -11 -5 -17t-18 -6q-29 0 -30 45q-2 35 -2.5 198.5t1.5 455.5z" />
    <glyph glyph-name="Ldot" unicode="&#x13f;" horiz-adv-x="487" 
d="M97 647q0 32 31 32q25 0 25 -33t-0.5 -90t-1.5 -138q-2 -155 -3 -207v-86v-54v-24h84t47 1l162 6q30 0 30 -24q0 -31 -31 -31h-118q-61 0 -101.5 -0.5t-60.5 -1.5q-39 -1 -53 8t-14 41v16v24q0 22 0.5 54t1.5 76q2 88 3 131v302zM378 308q-18 0 -30 12t-12 32t14 32
q13 12 33 12t32 -13q12 -14 12 -33t-14 -30t-35 -11v-1z" />
    <glyph glyph-name="ldot" unicode="&#x140;" horiz-adv-x="336" 
d="M81 689q0 15 9 23q10 8 22 8q13 0 19 -6q5 -5 7 -14q1 -5 1 -30q0 -41 -3 -234q-3 -194 -3 -281v-20.5t1 -22.5t1.5 -25t1.5 -27q1 -29 3 -45q1 -11 -5 -17t-18 -6q-29 0 -30 45q-2 35 -2.5 198.5t1.5 455.5zM263 253q-18 0 -30 12t-12 32t14 32q13 12 33 12t32 -13
q12 -14 12 -33t-14 -30t-35 -11v-1z" />
    <glyph glyph-name="Lslash" unicode="&#x141;" horiz-adv-x="487" 
d="M97 650q0 32 31 32q25 0 25 -33l-2 -259v-39l92 53q10 7 21 7q9 0 15 -9t6 -18q0 -14 -28 -29l-107 -61v-80l-1 -165h82t46 1l162 5q30 0 30 -23q0 -31 -31 -31l-281 -1q-39 -2 -52 7t-12 40l3 185v32l-48 -27q-8 -5 -17 -5q-10 0 -16 8t-5 18q1 12 21 24l67 38v329z" />
    <glyph glyph-name="lslash" unicode="&#x142;" horiz-adv-x="233" 
d="M90 292l-33 -21q-22 -16 -36 -16q-9 0 -15 8q-6 7 -6 17q0 12 21 26l71 44v156v156q0 30 5 43q4 12 24 12q14 0 20 -9t6 -28v-52t-1 -89t-1 -93v-65l44 28q14 8 21 8q8 0 15 -7t7 -16q0 -14 -26 -31l-62 -39v-167v-18.5t1 -23.5t1.5 -26t1.5 -27t1.5 -22.5t0.5 -12.5
q0 -17 -6 -24t-19 -7q-31 0 -32 46z" />
    <glyph glyph-name="Nacute" unicode="&#x143;" horiz-adv-x="702" 
d="M139 38q0 -19 -1 -24q-2 -8 -7 -13q-6 -6 -18 -6q-29 0 -29 30v95.5t1 180.5v121v121v102q0 32 34 32q4 0 12 -2q7 -2 9 -4l9 -9q7 -7 8 -9t3 -4.5t5 -7.5q6 -9 7 -10l257 -365l132 -185q-3 97 -3 267l-2 273v10v11v10q0 6 2 10q1 2 2 3.5t3 3.5q3 4 8 6q6 2 11 2h9
q3 0 7 -2t5 -3t3 -5l3 -6q1 -2 1 -9v-8v-9v-10v-328q1 -33 1.5 -98t0.5 -164q0 -35 -33 -35q-3 0 -9 2q-3 1 -7 3q-2 1 -7 6q-4 4 -6 8q-1 3 -8 11q-3 4 -5.5 7t-4.5 5l-391 556q0 -66 1 -204t3 -352zM323 744q-11 -8 -18 -8q-9 0 -16 6t-7 15q0 7 8 18q2 2 12 13t28 31
q37 40 59 68q10 12 21 12t20 -9t9 -19q0 -7 -11 -21q-25 -28 -50.5 -54.5t-52.5 -52.5z" />
    <glyph glyph-name="nacute" unicode="&#x144;" horiz-adv-x="547" 
d="M85 412q0 22 6 33t24 11q16 0 21 -9q4 -9 6 -36v-53q21 50 68 77q46 27 104 27q79 0 123 -51q43 -50 43 -141v-135v-93q0 -19 -1 -24q-2 -8 -9 -14q-8 -6 -21 -6q-26 0 -26 28q0 14 0.5 41t1.5 66q2 78 0 119q-1 157 -123 157q-50 0 -84 -18q-35 -18 -51 -51
q-16 -31 -22 -66q-6 -33 -6 -75v-177q0 -28 -31 -28q-24 0 -24 27v35v86v149zM258 556q-11 -8 -18 -8q-9 0 -16 6t-7 15q0 7 8 18q2 2 12 13t28 31q37 40 59 68q10 12 21 12t20 -9t9 -19q0 -7 -11 -21q-25 -28 -50.5 -54.5t-52.5 -52.5z" />
    <glyph glyph-name="Ncommaaccent" unicode="&#x145;" horiz-adv-x="702" 
d="M139 38q0 -19 -1 -24q-2 -8 -7 -13q-6 -6 -18 -6q-29 0 -29 30v95.5t1 180.5v121v121v102q0 32 34 32q4 0 12 -2q7 -2 9 -4l9 -9q7 -7 8 -9t3 -4.5t5 -7.5q6 -9 7 -10l257 -365l132 -185q-3 97 -3 267l-2 273v10v11v10q0 6 2 10q1 2 2 3.5t3 3.5q3 4 8 6q6 2 11 2h9
q3 0 7 -2t5 -3t3 -5l3 -6q1 -2 1 -9v-8v-9v-10v-328q1 -33 1.5 -98t0.5 -164q0 -35 -33 -35q-3 0 -9 2q-3 1 -7 3q-2 1 -7 6q-4 4 -6 8q-1 3 -8 11q-3 4 -5.5 7t-4.5 5l-391 556q0 -66 1 -204t3 -352zM300 -197q0 6 15 21t18 32q0 2 -4 6q-2 2 -4.5 5t-5.5 7q-6 7 -6 18
q0 16 10 26q11 11 27 11t27 -12q11 -13 11 -28q0 -50 -55 -93q-12 -6 -18 -6q-14 0 -14 16z" />
    <glyph glyph-name="ncommaaccent" unicode="&#x146;" horiz-adv-x="547" 
d="M85 412q0 22 6 33t24 11q16 0 21 -9q4 -9 6 -36v-53q21 50 68 77q46 27 104 27q79 0 123 -51q43 -50 43 -141v-135v-93q0 -19 -1 -24q-2 -8 -9 -14q-8 -6 -21 -6q-26 0 -26 28q0 14 0.5 41t1.5 66q2 78 0 119q-1 157 -123 157q-50 0 -84 -18q-35 -18 -51 -51
q-16 -31 -22 -66q-6 -33 -6 -75v-177q0 -28 -31 -28q-24 0 -24 27v35v86v149zM232 -195q0 6 15 21t18 32q0 2 -4 6q-2 2 -4.5 5t-5.5 7q-6 7 -6 18q0 16 10 26q11 11 27 11t27 -12q11 -13 11 -28q0 -50 -55 -93q-12 -6 -18 -6q-14 0 -14 16z" />
    <glyph glyph-name="Ncaron" unicode="&#x147;" horiz-adv-x="702" 
d="M139 38q0 -19 -1 -24q-2 -8 -7 -13q-6 -6 -18 -6q-29 0 -29 30v95.5t1 180.5v121v121v102q0 32 34 32q4 0 12 -2q7 -2 9 -4l9 -9q7 -7 8 -9t3 -4.5t5 -7.5q6 -9 7 -10l257 -365l132 -185q-3 97 -3 267l-2 273v10v11v10q0 6 2 10q1 2 2 3.5t3 3.5q3 4 8 6q6 2 11 2h9
q3 0 7 -2t5 -3t3 -5l3 -6q1 -2 1 -9v-8v-9v-10v-328q1 -33 1.5 -98t0.5 -164q0 -35 -33 -35q-3 0 -9 2q-3 1 -7 3q-2 1 -7 6q-4 4 -6 8q-1 3 -8 11q-3 4 -5.5 7t-4.5 5l-391 556q0 -66 1 -204t3 -352zM239 883q7 0 18 -11q1 -1 23 -23.5t67 -67.5l42 42l33 35q10 12 18 18
q7 6 16 6q6 0 13 -7t7 -15t-11 -22l-87 -97q-15 -16 -31 -16q-14 0 -28 14l-88 100q-13 14 -13 23q0 8 6 14t14 6z" />
    <glyph glyph-name="ncaron" unicode="&#x148;" horiz-adv-x="547" 
d="M85 412q0 22 6 33t24 11q16 0 21 -9q4 -9 6 -36v-53q21 50 68 77q46 27 104 27q79 0 123 -51q43 -50 43 -141v-135v-93q0 -19 -1 -24q-2 -8 -9 -14q-8 -6 -21 -6q-26 0 -26 28q0 14 0.5 41t1.5 66q2 78 0 119q-1 157 -123 157q-50 0 -84 -18q-35 -18 -51 -51
q-16 -31 -22 -66q-6 -33 -6 -75v-177q0 -28 -31 -28q-24 0 -24 27v35v86v149zM174 695q7 0 18 -11q1 -1 23 -23.5t67 -67.5l42 42l33 35q10 12 18 18q7 6 16 6q6 0 13 -7t7 -15t-11 -22l-87 -97q-15 -16 -31 -16q-14 0 -28 14l-88 100q-13 14 -13 23q0 8 6 14t14 6z" />
    <glyph glyph-name="napostrophe" unicode="&#x149;" horiz-adv-x="547" 
d="M52 638q-13 0 -26 11q-12 10 -12 29t13 32q14 14 33 14q22 0 36 -17t14 -45t-21 -61t-49 -49q-7 -4 -12 -4q-6 0 -13 5q-6 4 -6 12q0 10 10 17q37 25 37 51v5h-4zM83 412q0 22 6 33t24 11q16 0 21 -9q4 -9 6 -36v-53q21 50 68 77q46 27 104 27q79 0 123 -51
q43 -50 43 -141v-135v-93q0 -19 -1 -24q-2 -8 -9 -14q-8 -6 -21 -6q-26 0 -26 28q0 14 0.5 41t1.5 66q2 78 0 119q-1 157 -123 157q-50 0 -84 -18q-35 -18 -51 -51q-16 -31 -22 -66q-6 -33 -6 -75v-177q0 -28 -31 -28q-24 0 -24 27v35v86v149z" />
    <glyph glyph-name="Eng" unicode="&#x14a;" horiz-adv-x="702" 
d="M140 36q0 -19 -1 -24q-2 -8 -7 -13q-6 -6 -18 -6q-29 0 -29 30v95.5t1 180.5v121v121v102q0 32 34 32q4 0 12 -2q7 -2 9 -4l9 -9q7 -7 8 -9t3 -4.5t5 -7.5q6 -9 7 -10l257 -365l129 -184v267l-2 273v10v11v10q0 6 2 10q1 2 2 3.5t3 3.5q3 4 8 6q6 2 11 2h9q3 0 7 -2t5 -3
t3 -5l3 -6q1 -2 1 -9v-8v-9v-10v-698q0 -64 -35 -111q-34 -46 -95 -46q-73 0 -73 28q0 16 7 23q8 8 16 8q12 0 25 -4t30 -4q36 0 56 30q20 31 20 83v70l-421 595q0 -66 1 -204t3 -352z" />
    <glyph glyph-name="eng" unicode="&#x14b;" horiz-adv-x="547" 
d="M423 247q0 157 -123 157q-50 0 -84 -18q-35 -18 -51 -51q-16 -31 -22 -66q-6 -33 -6 -75v-177q0 -28 -31 -28q-24 0 -24 27v35v86v149l-2 123q0 22 6 33t24 11q16 0 21 -9q4 -9 6 -36v-53q21 50 68 77q46 27 104 27q79 0 123 -51q43 -50 43 -141v-354q0 -62 -40 -103
q-41 -42 -102 -42q-71 0 -71 28q0 16 7 23q8 8 16 8q10 0 25 -3t31 -3q36 0 58 28t24 75v327v-4z" />
    <glyph glyph-name="Omacron" unicode="&#x14c;" horiz-adv-x="747" 
d="M379 687q131 0 224 -96t93 -241q0 -152 -90 -255t-230 -103q-126 0 -223 92q-96 91 -96 237q0 161 98 264q97 102 225 100zM642 348q-2 124 -84 207q-82 82 -192 82q-102 0 -180 -87t-78 -215q0 -125 80 -207q79 -81 194 -81q108 0 185 90q76 90 75 210v1zM268 796
q-26 0 -26 25q0 27 41 27h42h42h29t36 1t31 1h14q28 0 29 -22q1 -15 -9 -22t-31 -7h-51h-57h-21t-28 -1t-26.5 -1h-15.5z" />
    <glyph glyph-name="omacron" unicode="&#x14d;" horiz-adv-x="543" 
d="M293 460q16 0 21 -8q59 -8 101 -45q42 -38 60 -85q18 -48 18 -101q0 -100 -67 -166q-68 -66 -166 -66q-85 0 -150 62q-64 61 -64 158q0 112 68 183t180 71zM438 224q0 81 -43 128q-44 48 -127 54q-75 -4 -120 -59q-45 -54 -45 -144q0 -71 48 -116t107 -45q71 0 126 50
q54 49 54 132zM163 601q-26 0 -26 25q0 27 41 27h42h42h29t36 1t31 1h14q28 0 29 -22q1 -30 -40 -30h-51h-57h-21t-28 -1t-26.5 -1h-15.5h1z" />
    <glyph glyph-name="Obreve" unicode="&#x14e;" horiz-adv-x="747" 
d="M379 687q131 0 224 -96t93 -241q0 -152 -90 -255t-230 -103q-126 0 -223 92q-96 91 -96 237q0 161 98 264q97 102 225 100zM642 348q-2 124 -84 207q-82 82 -192 82q-102 0 -180 -87t-78 -215q0 -125 80 -207q79 -81 194 -81q108 0 185 90q76 90 75 210v1zM479 876
q21 0 21 -24q0 -48 -36 -84t-88 -36q-48 0 -85 35q-36 35 -38 83q0 26 22 26q20 0 21 -22q1 -33 23 -55q21 -21 59 -21q35 0 56 23q21 22 21 54q0 22 22 22z" />
    <glyph glyph-name="obreve" unicode="&#x14f;" horiz-adv-x="543" 
d="M293 460q16 0 21 -8q59 -8 101 -45q42 -38 60 -85q18 -48 18 -101q0 -100 -67 -166q-68 -66 -166 -66q-85 0 -150 62q-64 61 -64 158q0 112 68 183t180 71zM438 224q0 81 -43 128q-44 48 -127 54q-75 -4 -120 -59q-45 -54 -45 -144q0 -71 48 -116t107 -45q71 0 126 50
q54 49 54 132zM374 680q21 0 21 -24q0 -48 -36 -84t-88 -36q-48 0 -85 35q-36 35 -38 83q0 26 22 26q20 0 21 -22q1 -33 23 -55q21 -21 59 -21q35 0 56 23q21 22 21 54q0 22 22 22z" />
    <glyph glyph-name="Ohungarumlaut" unicode="&#x150;" horiz-adv-x="747" 
d="M379 687q131 0 224 -96t93 -241q0 -152 -90 -255t-230 -103q-126 0 -223 92q-96 91 -96 237q0 161 98 264q97 102 225 100zM642 348q-2 124 -84 207q-82 82 -192 82q-102 0 -180 -87t-78 -215q0 -125 80 -207q79 -81 194 -81q108 0 185 90q76 90 75 210v1zM319 741
q-9 -11 -17 -11q-9 0 -15 6t-6 15q0 8 6 16l76 111q9 15 22 15q12 0 20 -7q9 -8 9 -18q0 -9 -8 -20zM458 733q-7 -10 -15 -10q-9 0 -16 6t-7 16q0 7 6 16l85 112q9 15 21 15q11 0 20 -6t9 -17q0 -8 -8 -22z" />
    <glyph glyph-name="ohungarumlaut" unicode="&#x151;" horiz-adv-x="543" 
d="M293 460q16 0 21 -8q59 -8 101 -45q42 -38 60 -85q18 -48 18 -101q0 -100 -67 -166q-68 -66 -166 -66q-85 0 -150 62q-64 61 -64 158q0 112 68 183t180 71zM438 224q0 81 -43 128q-44 48 -127 54q-75 -4 -120 -59q-45 -54 -45 -144q0 -71 48 -116t107 -45q71 0 126 50
q54 49 54 132zM200 545q-9 -11 -17 -11q-9 0 -15 6t-6 15q0 8 6 16l76 111q9 15 22 15q12 0 20 -7q9 -8 9 -18q0 -9 -8 -20zM338 537q-7 -10 -15 -10q-9 0 -16 6t-7 16q0 7 6 16l85 112q9 15 21 15t21 -6t9 -17q0 -8 -8 -22z" />
    <glyph glyph-name="OE" unicode="&#x152;" horiz-adv-x="1070" 
d="M377 684q172 0 264 -141v33v34q0 37 12 52t50 15h17h38h47t74 1t74.5 1h47.5t25 -6q7 -6 7 -20t-6 -21t-25 -7h-301q-1 -52 -1.5 -88.5t-0.5 -57.5v-73v-39v-14h58h110.5t81.5 1q23 0 30 -4q8 -5 8 -18t-6 -19t-26 -6h-135h-121q-1 -2 -1 -8v-123v-123q82 0 297 3
q34 0 34 -25q0 -17 -9 -24q-8 -7 -29 -7h-132h-136q-59 0 -71 14q-12 13 -10 66v40.5t1 25.5q-48 -74 -111 -114q-62 -40 -154 -40q-128 0 -225 92q-96 91 -96 237q0 162 98 265q97 102 227 100zM642 354q0 128 -81 203t-198 75q-103 0 -181 -86t-78 -216q0 -126 81 -207
t197 -81q119 0 191 92q72 91 72 219z" />
    <glyph glyph-name="oe" unicode="&#x153;" horiz-adv-x="852" 
d="M299 453q103 -16 147 -113q25 54 73 86q49 33 105 33q79 0 133 -55q54 -56 54 -126q0 -38 -12 -51q-12 -14 -60 -15q-46 -1 -110 -3q-62 -2 -105 -3q-22 -1 -34.5 -1h-16.5q1 -62 44 -111q42 -48 109 -48q47 0 94 25t54 25q9 0 17 -9q8 -10 8 -18q0 -15 -28 -34
q-63 -42 -149 -42q-55 0 -103 33q-47 32 -73 84q-27 -53 -78 -84q-52 -32 -117 -32q-83 0 -147 62q-63 61 -63 158q0 112 67 180q67 69 174 69q16 0 22 -8zM418 224q0 79 -42 129q-42 49 -123 55q-74 -5 -117 -57q-44 -53 -44 -142q0 -71 48 -117q47 -46 106 -46
q73 0 123 48t50 131zM626 406q-62 0 -106 -47q-43 -46 -49 -108q124 2 195.5 4.5t93.5 6.5q0 63 -39 104t-95 41v-1z" />
    <glyph glyph-name="Racute" unicode="&#x154;" horiz-adv-x="600" 
d="M94 634q0 24 14 33q13 8 45 10q34 1 61.5 1.5t48.5 0.5q37 0 69 -3q91 -8 144 -60q53 -53 53 -138q0 -77 -42 -128t-111 -66l169 -237q12 -17 12 -23q0 -10 -9 -19t-19 -9q-14 0 -24 12l-182 262h-173v-232q0 -40 -26 -40q-19 0 -25 9q-6 8 -4 31q1 24 1.5 144t0.5 340
v56v57zM288 629q-54 0 -89.5 -0.5t-52.5 -1.5l1 -307h140q186 0 186 160q0 73 -50 111t-135 38zM272 747q-11 -8 -18 -8q-9 0 -16 6t-7 15q0 7 8 18q2 2 12 13t28 31q37 40 59 68q10 12 21 12t20 -9t9 -19q0 -7 -11 -21q-25 -28 -50.5 -54.5t-52.5 -52.5z" />
    <glyph glyph-name="racute" unicode="&#x155;" horiz-adv-x="347" 
d="M88 421q-1 31 27 31q25 0 25 -30l1 -85q27 59 71 90q43 30 89 30q38 0 38 -28q0 -26 -28 -26h-21q-60 0 -105 -55q-45 -56 -45 -132v-107.5t-1 -84.5q0 -28 -28 -28q-16 0 -22 10t-4 37q2 97 3.5 161.5t1.5 98.5v24t-1 36t-1 36.5v25.5v-4zM190 554q-11 -8 -18 -8
q-9 0 -16 6t-7 15q0 7 8 18q2 2 12 13t28 31q37 40 59 68q10 12 21 12t20 -9t9 -19q0 -7 -11 -21q-25 -28 -50.5 -54.5t-52.5 -52.5z" />
    <glyph glyph-name="Rcommaaccent" unicode="&#x156;" horiz-adv-x="600" 
d="M94 634q0 24 14 33q13 8 45 10q34 1 61.5 1.5t48.5 0.5q37 0 69 -3q91 -8 144 -60q53 -53 53 -138q0 -77 -42 -128t-111 -66l169 -237q12 -17 12 -23q0 -10 -9 -19t-19 -9q-14 0 -24 12l-182 262h-173v-232q0 -40 -26 -40q-19 0 -25 9q-6 8 -4 31q1 24 1.5 144t0.5 340
v56v57zM288 629q-54 0 -89.5 -0.5t-52.5 -1.5l1 -307h140q186 0 186 160q0 73 -50 111t-135 38zM264 -194q0 6 15 21t18 32q0 2 -4 6q-2 2 -4.5 5t-5.5 7q-6 7 -6 18q0 16 10 26q11 11 27 11t27 -12q11 -13 11 -28q0 -50 -55 -93q-12 -6 -18 -6q-14 0 -14 16z" />
    <glyph glyph-name="rcommaaccent" unicode="&#x157;" horiz-adv-x="347" 
d="M88 421q-1 31 27 31q25 0 25 -30l1 -85q27 59 71 90q43 30 89 30q38 0 38 -28q0 -26 -28 -26h-21q-60 0 -105 -55q-45 -56 -45 -132v-107.5t-1 -84.5q0 -28 -28 -28q-16 0 -22 10t-4 37q2 97 3.5 161.5t1.5 98.5v24t-1 36t-1 36.5v25.5v-4zM63 -197q0 6 15 21t18 32
q0 2 -4 6q-2 2 -4.5 5t-5.5 7q-6 7 -6 18q0 16 10 26q11 11 27 11t27 -12q11 -13 11 -28q0 -50 -55 -93q-12 -6 -18 -6q-14 0 -14 16z" />
    <glyph glyph-name="Rcaron" unicode="&#x158;" horiz-adv-x="600" 
d="M94 634q0 24 14 33q13 8 45 10q34 1 61.5 1.5t48.5 0.5q37 0 69 -3q91 -8 144 -60q53 -53 53 -138q0 -77 -42 -128t-111 -66l169 -237q12 -17 12 -23q0 -10 -9 -19t-19 -9q-14 0 -24 12l-182 262h-173v-232q0 -40 -26 -40q-19 0 -25 9q-6 8 -4 31q1 24 1.5 144t0.5 340
v56v57zM288 629q-54 0 -89.5 -0.5t-52.5 -1.5l1 -307h140q186 0 186 160q0 73 -50 111t-135 38zM188 886q7 0 18 -11q1 -1 23 -23.5t67 -67.5l42 42l33 35q10 12 18 18q7 6 16 6q6 0 13 -7t7 -15t-11 -22l-87 -97q-15 -16 -31 -16q-14 0 -28 14l-88 100q-13 14 -13 23
q0 8 6 14t14 6z" />
    <glyph glyph-name="rcaron" unicode="&#x159;" horiz-adv-x="347" 
d="M88 421q-1 31 27 31q25 0 25 -30l1 -85q27 59 71 90q43 30 89 30q38 0 38 -28q0 -26 -28 -26h-21q-60 0 -105 -55q-45 -56 -45 -132v-107.5t-1 -84.5q0 -28 -28 -28q-16 0 -22 10t-4 37q2 97 3.5 161.5t1.5 98.5v24t-1 36t-1 36.5v25.5v-4zM107 693q7 0 18 -11
q1 -1 23 -23.5t67 -67.5l42 42l33 35q10 12 18 18q7 6 15 6q6 0 13 -7t7 -15t-11 -22l-87 -97q-15 -16 -31 -16q-14 0 -28 14l-88 100q-13 14 -13 23q0 8 6 14t14 6z" />
    <glyph glyph-name="Sacute" unicode="&#x15a;" horiz-adv-x="558" 
d="M460 642q23 -11 23 -29q0 -11 -7 -18q-8 -8 -18 -8t-28 9q-67 32 -143 32q-69 0 -118 -39t-49 -100q0 -23 9 -41q8 -16 20 -28q10 -10 35 -21q12 -5 21.5 -8t16.5 -5t18 -4.5t28 -6.5l9 -3l8 -2q54 -12 86 -24q33 -12 66 -33q34 -22 50 -52q17 -32 17 -75q0 -89 -64 -144
t-171 -55q-101 0 -180 42q-33 16 -33 35q0 10 8 20q7 9 20 9q7 0 25 -8q77 -44 159 -44q79 0 129 38t50 104q0 62 -46 92q-48 31 -132 47q-17 4 -32 7.5t-27 6.5q-22 5 -54 20q-30 13 -48 30t-30 43q-12 27 -12 60q0 84 69 140q70 56 158 56q90 0 169 -38zM265 743
q-11 -8 -18 -8q-9 0 -16 6t-7 15q0 7 8 18q2 2 12 13t28 31q37 40 59 68q10 12 21 12t20 -9t9 -19q0 -7 -11 -21q-25 -28 -50.5 -54.5t-52.5 -52.5z" />
    <glyph glyph-name="sacute" unicode="&#x15b;" horiz-adv-x="453" 
d="M232 451q81 0 132 -25q23 -12 23 -25q0 -26 -25 -26q-3 0 -45 14t-88 14q-47 0 -81 -24t-34 -60q0 -23 17 -37q16 -14 39 -18q22 -5 57 -9h4h3h3q37 -5 62 -12q27 -8 50 -21q25 -14 38 -37t13 -57q0 -64 -49 -100q-50 -36 -126 -36q-56 0 -114 18t-58 37q0 32 25 32
q1 0 54 -17t97 -17q50 0 84 22q35 23 35 60q0 39 -30 56q-31 17 -90 26q-17 2 -28.5 4t-19.5 4q-15 3 -42 12q-29 10 -41 19q-14 10 -24 30q-11 20 -11 45q0 58 53 97q52 39 120 39zM212 550q-11 -8 -18 -8q-9 0 -16 6t-7 15q0 7 8 18q2 2 12 13t28 31q37 40 59 68
q10 12 21 12t20 -9t9 -19q0 -7 -11 -21q-25 -28 -50.5 -54.5t-52.5 -52.5z" />
    <glyph glyph-name="Scircumflex" unicode="&#x15c;" horiz-adv-x="558" 
d="M460 642q23 -11 23 -29q0 -11 -7 -18q-8 -8 -18 -8t-28 9q-67 32 -143 32q-69 0 -118 -39t-49 -100q0 -23 9 -41q8 -16 20 -28q10 -10 35 -21q12 -5 21.5 -8t16.5 -5t18 -4.5t28 -6.5l9 -3l8 -2q54 -12 86 -24q33 -12 66 -33q34 -22 50 -52q17 -32 17 -75q0 -89 -64 -144
t-171 -55q-101 0 -180 42q-33 16 -33 35q0 10 8 20q7 9 20 9q7 0 25 -8q77 -44 159 -44q79 0 129 38t50 104q0 62 -46 92q-48 31 -132 47q-17 4 -32 7.5t-27 6.5q-22 5 -54 20q-30 13 -48 30t-30 43q-12 27 -12 60q0 84 69 140q70 56 158 56q90 0 169 -38zM395 720
q-5 0 -9 3q-5 3 -6 6l-3 3q-1 1 -23 23.5t-67 67.5l-42 -42l-33 -34q-11 -12 -18 -18q-8 -6 -16 -6q-6 0 -13 7t-7 15t11 22l87 97q15 16 31 16q14 0 28 -14l88 -100q13 -14 13 -22t-6 -14t-14 -6z" />
    <glyph glyph-name="scircumflex" unicode="&#x15d;" horiz-adv-x="453" 
d="M232 451q81 0 132 -25q23 -12 23 -25q0 -26 -25 -26q-3 0 -45 14t-88 14q-47 0 -81 -24t-34 -60q0 -23 17 -37q16 -14 39 -18q22 -5 57 -9h4h3h3q37 -5 62 -12q27 -8 50 -21q25 -14 38 -37t13 -57q0 -64 -49 -100q-50 -36 -126 -36q-56 0 -114 18t-58 37q0 32 25 32
q1 0 54 -17t97 -17q50 0 84 22q35 23 35 60q0 39 -30 56q-31 17 -90 26q-17 2 -28.5 4t-19.5 4q-15 3 -42 12q-29 10 -41 19q-14 10 -24 30q-11 20 -11 45q0 58 53 97q52 39 120 39zM342 527q-5 0 -9 3q-5 3 -6 6l-3 3q-1 1 -23 23.5t-67 67.5l-42 -42l-33 -34
q-11 -12 -18 -18q-8 -6 -16 -6q-6 0 -13 7t-7 15t11 22l87 97q15 16 31 16q14 0 28 -14l88 -100q13 -14 13 -22t-6 -14t-14 -6z" />
    <glyph glyph-name="Scedilla" unicode="&#x15e;" horiz-adv-x="558" 
d="M263 -9q-98 1 -174 42q-33 16 -33 35q0 10 8 20q7 9 20 9q7 0 25 -8q77 -44 159 -44q79 0 129 38t50 104q0 62 -46 92q-48 31 -132 47q-17 4 -32 7.5t-27 6.5q-22 5 -54 20q-30 13 -48 30t-30 43q-12 27 -12 60q0 84 69 140q70 56 158 56q90 0 169 -38q23 -11 23 -29
q0 -11 -7 -18q-8 -8 -18 -8t-28 9q-67 32 -143 32q-69 0 -118 -39t-49 -100q0 -23 9 -41q8 -16 20 -28q10 -10 35 -21q12 -5 21.5 -8t16.5 -5t18 -4.5t28 -6.5l9 -3l8 -2q54 -12 86 -24q33 -12 66 -33q34 -22 50 -52q17 -32 17 -75q0 -81 -54 -135t-145 -63l-17 -52
q29 0 54 -19q26 -20 26 -57q0 -42 -26 -66t-66 -24q-27 0 -52 14q-19 10 -19 24q0 8 6 14t15 6q4 0 23 -8t34 -8q42 0 42 45q0 39 -52 39h-9q-14 0 -21 12q-8 12 -3 27z" />
    <glyph glyph-name="scedilla" unicode="&#x15f;" horiz-adv-x="453" 
d="M210 -12q-55 4 -103 21q-48 16 -48 33q0 32 25 32q1 0 54 -17t97 -17q50 0 84 22q35 23 35 60q0 39 -30 56q-31 17 -90 26q-17 2 -28.5 4t-19.5 4q-15 3 -42 12q-29 10 -41 19q-14 10 -24 30q-11 20 -11 45q0 58 53 97q52 39 120 39q81 0 132 -25q23 -12 23 -25
q0 -26 -25 -26q-3 0 -45 14t-88 14q-47 0 -81 -24t-34 -60q0 -23 17 -37q16 -14 39 -18q22 -5 57 -9h4h3h3q37 -5 62 -12q27 -8 50 -21q25 -14 38 -37t13 -57q0 -61 -44 -96q-43 -34 -113 -39l-17 -52q29 0 54 -19q26 -20 26 -57q0 -42 -26 -66t-66 -24q-22 0 -52 14
q-19 9 -19 23q0 7 6 15q6 7 15 7q3 0 21 -8t33 -8q42 0 42 45q0 39 -52 39h-9q-14 0 -21 12q-8 12 -3 27z" />
    <glyph glyph-name="Scaron" unicode="&#x160;" horiz-adv-x="558" 
d="M460 642q23 -11 23 -29q0 -11 -7 -18q-8 -8 -18 -8t-28 9q-67 32 -143 32q-69 0 -118 -39t-49 -100q0 -23 9 -41q8 -16 20 -28q10 -10 35 -21q12 -5 21.5 -8t16.5 -5t18 -4.5t28 -6.5l9 -3l8 -2q54 -12 86 -24q33 -12 66 -33q34 -22 50 -52q17 -32 17 -75q0 -89 -64 -144
t-171 -55q-101 0 -180 42q-33 16 -33 35q0 10 8 20q7 9 20 9q7 0 25 -8q77 -44 159 -44q79 0 129 38t50 104q0 62 -46 92q-48 31 -132 47q-17 4 -32 7.5t-27 6.5q-22 5 -54 20q-30 13 -48 30t-30 43q-12 27 -12 60q0 84 69 140q70 56 158 56q90 0 169 -38zM182 882
q7 0 18 -11q1 -1 23 -23.5t67 -67.5l42 42l33 35q10 12 18 18q7 6 15 6q6 0 13 -7t7 -15t-11 -22l-87 -97q-15 -16 -31 -16q-14 0 -28 14l-88 100q-13 14 -13 23q0 8 6 14t14 6z" />
    <glyph glyph-name="scaron" unicode="&#x161;" horiz-adv-x="453" 
d="M232 451q81 0 132 -25q23 -12 23 -25q0 -26 -25 -26q-3 0 -45 14t-88 14q-47 0 -81 -24t-34 -60q0 -23 17 -37q16 -14 39 -18q22 -5 57 -9h4h3h3q37 -5 62 -12q27 -8 50 -21q25 -14 38 -37t13 -57q0 -64 -49 -100q-50 -36 -126 -36q-56 0 -114 18t-58 37q0 32 25 32
q1 0 54 -17t97 -17q50 0 84 22q35 23 35 60q0 39 -30 56q-31 17 -90 26q-17 2 -28.5 4t-19.5 4q-15 3 -42 12q-29 10 -41 19q-14 10 -24 30q-11 20 -11 45q0 58 53 97q52 39 120 39zM128 689q7 0 18 -11q1 -1 23 -23.5t67 -67.5l42 42l33 35q10 12 18 18q7 6 16 6q6 0 13 -7
t7 -15t-11 -22l-87 -97q-15 -16 -31 -16q-14 0 -28 14l-88 100q-13 14 -13 23q0 8 6 14t14 6z" />
    <glyph glyph-name="uni0162" unicode="&#x162;" 
d="M281 681h49t79 1t71.5 1h27.5q35 0 35 -24q0 -16 -9 -22t-32 -6h-196v-70v-105q0 -29 0.5 -72.5t1.5 -102.5t1.5 -118.5t1.5 -122.5q0 -34 -17 -39l-18 -55q29 0 54 -19q26 -20 26 -57q0 -42 -26 -66t-66 -24q-27 0 -52 14q-19 10 -19 24q0 8 6 14t15 6q4 0 23 -8t34 -8
q42 0 42 45q0 39 -52 39h-9q-13 0 -19 12q-6 11 -1 27l28 65q-5 7 -5 23l1 384v105v105h-105t-105 -1q-27 0 -27 26q0 10 8 18t21 8h33h75h127z" />
    <glyph glyph-name="uni0163" unicode="&#x163;" horiz-adv-x="345" 
d="M48 402q-27 0 -27 23q0 27 31 27h72l1 92q0 47 29 47q8 0 14 -2q4 -1 6 -8q2 -8 2 -11v-18v-18t-1 -31t-1 -31.5v-19.5l115 1q28 0 28 -25t-31 -25h-111v-221q0 -74 16 -105t58 -31q15 0 30 6t23 6q10 0 16 -9t6 -19q0 -16 -17 -24q-26 -10 -63 -10l-20 -51q29 0 54 -19
q26 -20 26 -57q0 -42 -26 -66t-66 -24q-27 0 -52 14q-19 10 -19 24q0 8 6 14t15 6q4 0 23 -8t34 -8q42 0 42 45q0 39 -52 39h-9q-14 0 -21 12q-8 12 -3 27l25 55q-83 21 -83 168q0 19 0.5 48t1.5 69t1.5 69t0.5 48h-77z" />
    <glyph glyph-name="Tcaron" unicode="&#x164;" 
d="M280 678h49t79 1t71.5 1h27.5q35 0 35 -24q0 -16 -9 -22t-32 -6h-196v-70v-105q0 -29 0.5 -72.5t1.5 -102.5t1.5 -118.5t1.5 -122.5q0 -21 -6 -30t-23 -9q-14 0 -20 8q-6 7 -6 27l1 384v105v105h-105t-105 -1q-27 0 -27 26q0 10 8 18t21 8h33h75h127h-3zM172 887
q7 0 18 -11q1 -1 23 -23.5t67 -67.5l42 42l33 35q10 12 18 18q7 6 16 6q6 0 13 -7t7 -15t-11 -22l-87 -97q-15 -16 -31 -16q-14 0 -28 14l-88 100q-13 14 -13 23q0 8 6 14t14 6z" />
    <glyph glyph-name="tcaron" unicode="&#x165;" horiz-adv-x="460" 
d="M393 608q-13 0 -26 11q-12 10 -12 29t13 32q14 14 33 14q22 0 36 -17t14 -45t-21 -61t-49 -49q-7 -4 -12 -4q-6 0 -13 5q-6 4 -6 12q0 10 10 17q37 25 37 51v5h-4zM43 400q-27 0 -27 23q0 27 31 27h72l1 92q0 47 29 47q8 0 14 -2q4 -1 6 -8q2 -8 2 -11v-18v-18t-1 -31
t-1 -31.5v-19.5l115 1q28 0 28 -25t-31 -25h-111v-221q0 -74 16 -105t58 -31q15 0 30 6t23 6q10 0 16 -9t6 -19q0 -16 -17 -24q-26 -10 -54 -10q-72 0 -102 40t-30 133q0 19 0.5 48t1.5 69t1.5 69t0.5 48h-77v-1z" />
    <glyph glyph-name="Tbar" unicode="&#x166;" horiz-adv-x="560" 
d="M280 677h48.5t77.5 1t70.5 1h27.5q35 0 35 -24q0 -16 -9 -22t-32 -6h-193v-274h112q29 0 29 -23q0 -14 -6 -20t-25 -6h-109l2 -268q0 -22 -6 -31t-23 -9q-14 0 -20 8q-6 7 -6 27l1 273h-113q-28 0 -28 23q0 26 36 26h105l-1 274h-103.5t-104.5 -1q-27 0 -27 26q0 10 8 18
t21 8h33h75h126z" />
    <glyph glyph-name="tbar" unicode="&#x167;" horiz-adv-x="345" 
d="M47 400q-27 0 -27 23q0 27 31 27h72l1 92q0 47 29 47q8 0 14 -2q4 -1 6 -8q2 -8 2 -11v-18v-18t-1 -31t-1 -31.5v-19.5l115 1q28 0 28 -25t-31 -25h-111v-139l103 1q31 0 31 -22q0 -14 -7 -20q-8 -6 -28 -6l-98 -1v-34q0 -74 16 -105t58 -31q15 0 30 6t23 6q10 0 16 -9
t6 -19q0 -16 -17 -24q-26 -10 -54 -10q-72 0 -102 40t-30 133v48h-66q-26 0 -26 22q0 26 36 26h56v138h-76z" />
    <glyph glyph-name="Utilde" unicode="&#x168;" horiz-adv-x="676" 
d="M88 276v213v153q0 37 25 37q28 0 28 -29q-1 -30 -1 -124v-253q0 -222 199 -222q85 0 142 62q57 61 57 159v64.5t-1 118.5t-1 122.5v75.5q0 27 27 27t27 -33l1 -345q1 -148 -68 -228q-69 -79 -195 -79q-114 0 -177 72t-63 204v5zM243 786q-1 -19 -24 -19q-10 0 -16 8
q-6 7 -4 18q1 33 26 54q24 21 58 21t68 -31t59 -33q30 0 32 45q1 9 9 15q7 6 15 6q22 0 22 -20q0 -44 -22 -65q-23 -21 -60 -21q-35 2 -69 31t-55 31q-32 0 -36 -39z" />
    <glyph glyph-name="utilde" unicode="&#x169;" horiz-adv-x="555" 
d="M104 453q24 0 24 -29q-3 -204 -3 -216q0 -70 30 -118t93 -48q92 0 129 61t39 171l1 146q0 35 28 35q15 0 21 -7q6 -8 6 -27v-12t-1 -30t-1 -43v-51v-102q0 -32 1.5 -71t5.5 -85q2 -29 -26 -29q-25 0 -28 30q-3 27 -3 81q-19 -50 -62 -84q-42 -33 -107 -33q-89 0 -132 57
q-44 58 -44 155v107v106q0 38 32 38zM174 589q-1 -19 -24 -19q-10 0 -16 8q-6 7 -4 18q1 33 26 54q24 21 58 21t68 -31t59 -33q30 0 32 45q1 9 9 15q7 6 15 6q22 0 22 -20q0 -44 -22 -65q-23 -21 -60 -21q-35 2 -69 31t-55 31q-32 0 -36 -39z" />
    <glyph glyph-name="Umacron" unicode="&#x16a;" horiz-adv-x="676" 
d="M88 276v213v153q0 37 25 37q28 0 28 -29q-1 -30 -1 -124v-253q0 -222 199 -222q85 0 142 62q57 61 57 159v64.5t-1 118.5t-1 122.5v75.5q0 27 27 27t27 -33l1 -345q1 -148 -68 -228q-69 -79 -195 -79q-114 0 -177 72t-63 204v5zM237 798q-26 0 -26 25q0 27 41 27h42h42
h29t36 1t31 1h14q28 0 29 -22q1 -15 -9 -22t-31 -7h-51h-57h-21t-28 -1t-26.5 -1h-15.5z" />
    <glyph glyph-name="umacron" unicode="&#x16b;" horiz-adv-x="555" 
d="M104 453q24 0 24 -29q-3 -204 -3 -216q0 -70 30 -118t93 -48q92 0 129 61t39 171l1 146q0 35 28 35q15 0 21 -7q6 -8 6 -27v-12t-1 -30t-1 -43v-51v-102q0 -32 1.5 -71t5.5 -85q2 -29 -26 -29q-25 0 -28 30q-3 27 -3 81q-19 -50 -62 -84q-42 -33 -107 -33q-89 0 -132 57
q-44 58 -44 155v107v106q0 38 32 38zM168 601q-26 0 -26 25q0 27 41 27h42h42h29t36 1t31 1h14q28 0 29 -22q1 -15 -9 -22t-31 -7h-51h-57h-21t-28 -1t-26.5 -1h-15.5z" />
    <glyph glyph-name="Ubreve" unicode="&#x16c;" horiz-adv-x="676" 
d="M88 276v213v153q0 37 25 37q28 0 28 -29q-1 -30 -1 -124v-253q0 -222 199 -222q85 0 142 62q57 61 57 159v64.5t-1 118.5t-1 122.5v75.5q0 27 27 27t27 -33l1 -345q1 -148 -68 -228q-69 -79 -195 -79q-114 0 -177 72t-63 204v5zM448 878q21 0 21 -24q0 -48 -36 -84
t-88 -36q-48 0 -85 35q-36 35 -38 83q0 26 22 26q20 0 21 -22q1 -33 23 -55q21 -21 59 -21q35 0 56 23q21 22 21 54q0 22 22 22z" />
    <glyph glyph-name="ubreve" unicode="&#x16d;" horiz-adv-x="555" 
d="M104 453q24 0 24 -29q-3 -204 -3 -216q0 -70 30 -118t93 -48q92 0 129 61t39 171l1 146q0 35 28 35q15 0 21 -7q6 -8 6 -27v-12t-1 -30t-1 -43v-51v-102q0 -32 1.5 -71t5.5 -85q2 -29 -26 -29q-25 0 -28 30q-3 27 -3 81q-19 -50 -62 -84q-42 -33 -107 -33q-89 0 -132 57
q-44 58 -44 155v107v106q0 38 32 38zM379 681q21 0 21 -24q0 -48 -36 -84t-88 -36q-48 0 -85 35q-36 35 -38 83q0 26 22 26q20 0 21 -22q1 -33 23 -55q21 -21 59 -21q35 0 56 23q21 22 21 54q0 22 22 22z" />
    <glyph glyph-name="Uring" unicode="&#x16e;" horiz-adv-x="676" 
d="M88 276v213v153q0 37 25 37q28 0 28 -29q-1 -30 -1 -124v-253q0 -222 199 -222q85 0 142 62q57 61 57 159v64.5t-1 118.5t-1 122.5v75.5q0 27 27 27t27 -33l1 -345q1 -148 -68 -228q-69 -79 -195 -79q-114 0 -177 72t-63 204v5zM342 903q42 0 72 -27t30 -69
q0 -45 -30 -76t-75 -31q-40 0 -72 29q-31 28 -31 72q0 45 33 74q34 29 74 29zM401 805q-1 27 -19 43q-17 16 -45 16q-24 0 -43 -17q-18 -17 -18 -44q0 -32 18 -48q17 -16 47 -16q27 0 45 19q18 20 17 48z" />
    <glyph glyph-name="uring" unicode="&#x16f;" horiz-adv-x="555" 
d="M104 453q24 0 24 -29q-3 -204 -3 -216q0 -70 30 -118t93 -48q92 0 129 61t39 171l1 146q0 35 28 35q15 0 21 -7q6 -8 6 -27v-12t-1 -30t-1 -43v-51v-102q0 -32 1.5 -71t5.5 -85q2 -29 -26 -29q-25 0 -28 30q-3 27 -3 81q-19 -50 -62 -84q-42 -33 -107 -33q-89 0 -132 57
q-44 58 -44 155v107v106q0 38 32 38zM273 726q42 0 72 -27t30 -69q0 -45 -30 -76t-75 -31q-40 0 -72 29q-31 28 -31 72q0 45 33 74q34 29 74 29zM332 628q-1 27 -19 43q-17 16 -45 16q-24 0 -43 -17q-18 -17 -18 -44q0 -32 18 -48q17 -16 47 -16q27 0 45 19q18 20 17 48z
" />
    <glyph glyph-name="Uhungarumlaut" unicode="&#x170;" horiz-adv-x="676" 
d="M88 276v213v153q0 37 25 37q28 0 28 -29q-1 -30 -1 -124v-253q0 -222 199 -222q85 0 142 62q57 61 57 159v64.5t-1 118.5t-1 122.5v75.5q0 27 27 27t27 -33l1 -345q1 -148 -68 -228q-69 -79 -195 -79q-114 0 -177 72t-63 204v5zM278 743q-9 -11 -17 -11q-9 0 -15 6t-6 15
q0 8 6 16l76 111q9 15 22 15q12 0 20 -7q9 -8 9 -18q0 -9 -8 -20zM417 735q-7 -10 -15 -10q-9 0 -16 6t-7 16q0 7 6 16l85 112q9 15 21 15q11 0 20 -6t9 -17q0 -8 -8 -22z" />
    <glyph glyph-name="uhungarumlaut" unicode="&#x171;" horiz-adv-x="555" 
d="M104 453q24 0 24 -29q-3 -204 -3 -216q0 -70 30 -118t93 -48q92 0 129 61t39 171l1 146q0 35 28 35q15 0 21 -7q6 -8 6 -27v-12t-1 -30t-1 -43v-51v-102q0 -32 1.5 -71t5.5 -85q2 -29 -26 -29q-25 0 -28 30q-3 27 -3 81q-19 -50 -62 -84q-42 -33 -107 -33q-89 0 -132 57
q-44 58 -44 155v107v106q0 38 32 38zM203 546q-9 -11 -17 -11q-9 0 -15 6t-6 15q0 8 6 16l76 111q9 15 22 15q12 0 20 -7q9 -8 9 -18q0 -9 -8 -20zM342 538q-7 -10 -15 -10q-9 0 -16 6t-7 16q0 7 6 16l85 112q9 15 21 15q11 0 20 -6t9 -17q0 -8 -8 -22z" />
    <glyph glyph-name="Uogonek" unicode="&#x172;" horiz-adv-x="676" 
d="M307 -118q0 -21 11 -34q10 -12 27 -12q12 0 27 3t22 3q9 0 15 -6t6 -15q0 -32 -63 -32q-37 0 -63 25q-27 25 -27 66q0 70 71 117q-119 3 -182 74q-63 70 -63 203v213v153q0 37 25 37q28 0 28 -29q-1 -30 -1 -124v-253q0 -222 199 -222q85 0 142 62q57 61 57 159v64.5
t-1 118.5t-1 122.5v75.5q0 27 27 27t27 -33l1 -345q1 -127 -53 -207t-148 -96q-37 -19 -60 -50q-22 -29 -22 -64z" />
    <glyph glyph-name="uogonek" unicode="&#x173;" horiz-adv-x="555" 
d="M372 -121q0 -21 11 -34q10 -12 27 -12q12 0 26 3q13 3 21 3q9 0 15 -6t6 -15q0 -32 -62 -32q-37 0 -63 25q-27 25 -27 66q0 40 27 72q26 31 74 63q-4 7 -4 17l-5 81q-19 -50 -62 -84q-42 -33 -107 -33q-89 0 -132 57q-44 58 -44 155v107v106q0 38 32 38q24 0 24 -29
q-3 -204 -3 -216q0 -70 30 -118t93 -48q92 0 129 61t39 171l1 146q0 35 28 35q15 0 21 -7q6 -8 6 -27v-12t-1 -30t-1 -43v-51v-102q0 -32 1.5 -71t5.5 -85q1 -23 -15 -30q-44 -35 -66 -60t-22 -57z" />
    <glyph glyph-name="Wcircumflex" unicode="&#x174;" horiz-adv-x="835" 
d="M44 655q-3 13 5 23q7 9 21 9t20 -6t9 -21q4 -23 51 -261q46 -239 60 -315q23 63 63.5 186.5t98.5 310.5q6 19 9 27q3 7 11 15q7 7 20 7q25 0 33 -23l172 -507q42 188 71 327t46 233q4 30 30 30q12 0 20 -9q7 -9 6 -22l-138 -619q-2 -7 -3 -12t-2 -8q-2 -6 -9 -12
q-8 -6 -19 -6q-26 0 -36 33q-17 52 -40.5 121.5t-53.5 157.5q-60 175 -75 222q-44 -147 -159 -468l-6 -18q-5 -15 -7 -19q-2 -3 -3.5 -6.5t-3.5 -8.5q-4 -8 -11 -13q-5 -4 -15 -4q-9 0 -15 3t-12 9t-9 12t-6 20q-2 7 -3 13t-2 11q-2 12 -6 32q-2 11 -3.5 20.5t-3.5 17.5
l-105 513v5zM524 730q-5 0 -9 3q-6 4 -8 6l-2 3q-1 1 -23 23.5t-67 67.5l-42 -42l-33 -34q-11 -12 -18 -18q-8 -6 -15 -6q-6 0 -13 7t-7 15t11 22l87 97q15 16 31 16q14 0 28 -14l88 -100q13 -14 13 -22t-6 -14t-14 -6z" />
    <glyph glyph-name="wcircumflex" unicode="&#x175;" horiz-adv-x="743" 
d="M38 425q-2 8 -2 11q0 11 11 17q10 6 21 6q17 0 23 -19q82 -308 105 -384q37 91 73 185t71 194q7 19 29 19q25 0 34 -29l142 -364l83 300l20 72q4 21 23 21q10 0 21 -6q10 -6 10 -16q0 -9 -1 -11q-5 -16 -17 -55.5t-31 -104.5t-31.5 -107.5t-19.5 -62.5q-20 -65 -24 -75
q-9 -19 -30 -19q-26 0 -39 39q-11 24 -30 72.5t-48 121.5t-43 110t-15 39l-122 -316q-17 -41 -27 -54q-11 -14 -30 -14q-29 0 -40 38q-35 114 -69 237q-35 123 -45 156zM476 534q-5 0 -9 3q-6 4 -8 6l-2 3q-1 1 -23 23.5t-67 67.5l-42 -42l-33 -34q-11 -12 -18 -18
q-8 -6 -15 -6q-6 0 -13 7t-7 15t11 22l87 97q15 16 31 16q14 0 28 -14l88 -100q13 -14 13 -22t-6 -14t-14 -6z" />
    <glyph glyph-name="Ycircumflex" unicode="&#x176;" horiz-adv-x="591" 
d="M266 275l-225 343q-15 22 -15 33q0 10 9 18q10 8 20 8q6 0 8 -1l6 -3q3 -2 6 -6q2 -3 5 -6l6 -8l6 -9q172 -278 204 -324l209 333q1 1 3 5t3 5t3 5q1 2 3 4l3 3l3 3q2 2 4 2h6q13 0 21 -7q9 -8 9 -18t-13 -29l-229 -351v-126v-126q0 -12 -8 -18t-18 -6q-28 0 -28 29v66
v38t1 51t1 50.5v37.5zM402 723q-5 0 -9 3q-6 4 -8 6l-2 3q-1 1 -23 23.5t-67 67.5l-42 -42l-33 -34q-11 -12 -18 -18q-8 -6 -16 -6q-6 0 -13 7t-7 15t11 22l87 97q15 16 31 16q14 0 28 -14l88 -100q13 -14 13 -22t-6 -14t-14 -6v-4z" />
    <glyph glyph-name="ycircumflex" unicode="&#x177;" horiz-adv-x="483" 
d="M241 66q32 67 70 157t83 205l6 15q1 4 8 9t17 5q13 0 20 -7q8 -8 8 -19q0 -9 -4 -18q-26 -66 -84.5 -194.5t-149.5 -323.5q-66 -118 -141 -118q-58 0 -58 29q0 15 8 21q7 6 26 6q38 0 57 11q17 10 45 53q8 14 23.5 43t38.5 75l-46 98l-120 275q-16 35 -16 44q0 10 9 18
q10 8 20 8q13 0 22 -15q58 -140 98 -233.5t63 -144.5zM353 536q-5 0 -9 3q-6 4 -8 6l-2 3q-1 1 -23 23.5t-67 67.5l-42 -42l-33 -34q-11 -12 -18 -18q-8 -6 -15 -6q-6 0 -13 7t-7 15t11 22l87 97q15 16 31 16q14 0 28 -14l88 -100q13 -14 13 -22t-6 -14t-14 -6z" />
    <glyph glyph-name="Ydieresis" unicode="&#x178;" horiz-adv-x="591" 
d="M266 275l-225 343q-15 22 -15 33q0 10 9 18q10 8 20 8q6 0 8 -1l6 -3q3 -2 6 -6q2 -3 5 -6l6 -8l6 -9q172 -278 204 -324l209 333q1 1 3 5t3 5t3 5q1 2 3 4l3 3l3 3q2 2 4 2h6q13 0 21 -7q9 -8 9 -18t-13 -29l-229 -351v-126v-126q0 -12 -8 -18t-18 -6q-28 0 -28 29v66
v38t1 51t1 50.5v37.5zM211 765q-16 0 -28 12t-12 31q0 17 13 29t33 12q19 0 31 -12t12 -30q0 -19 -13 -31q-14 -12 -34 -12zM362 768q-16 0 -28 12t-12 29t13 29t33 12q19 0 30 -12q11 -13 11 -31q0 -20 -13 -30t-33 -10z" />
    <glyph glyph-name="Zacute" unicode="&#x179;" horiz-adv-x="537" 
d="M63 623q-27 0 -27 24q0 28 31 28h213h37.5t55.5 1t56 1h39q30 0 30 -26q0 -13 -20 -42l-52 -81l-232 -342l-95 -138q103 0 223 3t156 3q14 0 22 -9q7 -8 7 -19q0 -26 -43 -26q-29 -1 -122.5 -1h-251.5h-18q-2 0 -6 0.5t-9 1.5q-11 1 -15 9q-4 7 -4 18q0 13 3 21
q6 14 20 35.5t36 52.5l58 82l195 279l83 129q-34 -1 -79.5 -1h-103.5h-183zM247 745q-11 -8 -18 -8q-9 0 -16 6t-7 15q0 7 8 18q2 2 12 13t28 31q37 40 59 68q10 12 21 12t20 -9t9 -19q0 -7 -11 -21q-25 -28 -50.5 -54.5t-52.5 -52.5z" />
    <glyph glyph-name="zacute" unicode="&#x17a;" horiz-adv-x="442" 
d="M270 407q-13 0 -36 -0.5t-57 -1.5q-68 -2 -108 0q-24 0 -24 25q0 16 12 22t38 6h34t47 -1t47 -1h34h19.5t27.5 1t28 1h20q44 0 44 -30q-1 -14 -5 -19q-4 -6 -7.5 -12t-8.5 -12l-10 -12t-11 -13q-13 -14 -17 -20l-215 -264l-18 -24l218 5q18 1 31.5 1.5t21.5 0.5
q28 0 28 -26q0 -28 -29 -30h-20h-27h-36t-66 -1t-74.5 -1h-59.5q-25 0 -36 8q-10 7 -10 30q0 9 4 17t17 26q11 15 20 24q7 7 30 36l216 264l-57 -1zM202 560q-11 -8 -18 -8q-9 0 -16 6t-7 15q0 7 8 18q2 2 12 13t28 31q37 40 59 68q10 12 21 12t20 -9t9 -19q0 -7 -11 -21
q-25 -28 -50.5 -54.5t-52.5 -52.5z" />
    <glyph glyph-name="Zdotaccent" unicode="&#x17b;" horiz-adv-x="537" 
d="M63 623q-27 0 -27 24q0 28 31 28h213h37.5t55.5 1t56 1h39q30 0 30 -26q0 -13 -20 -42l-52 -81l-232 -342l-95 -138q103 0 223 3t156 3q14 0 22 -9q7 -8 7 -19q0 -26 -43 -26q-29 -1 -122.5 -1h-251.5h-18q-2 0 -6 0.5t-9 1.5q-11 1 -15 9q-4 7 -4 18q0 13 3 21
q6 14 20 35.5t36 52.5l58 82l195 279l83 129q-34 -1 -79.5 -1h-103.5h-183zM266 770q-18 0 -30 12q-11 11 -13 32q5 44 48 44q19 0 30 -12q11 -13 11 -31q0 -21 -13 -33q-14 -12 -34 -12h1z" />
    <glyph glyph-name="zdotaccent" unicode="&#x17c;" horiz-adv-x="442" 
d="M270 407q-13 0 -36 -0.5t-57 -1.5q-68 -2 -108 0q-24 0 -24 25q0 16 12 22t38 6h34t47 -1t47 -1h34h19.5t27.5 1t28 1h20q44 0 44 -30q-1 -14 -5 -19q-4 -6 -7.5 -12t-8.5 -12l-10 -12t-11 -13q-13 -14 -17 -20l-215 -264l-18 -24l218 5q18 1 31.5 1.5t21.5 0.5
q28 0 28 -26q0 -28 -29 -30h-20h-27h-36t-66 -1t-74.5 -1h-59.5q-25 0 -36 8q-10 7 -10 30q0 9 4 17t17 26q11 15 20 24q7 7 30 36l216 264l-57 -1zM221 585q-18 0 -30 12q-11 11 -13 32q5 44 48 44q19 0 30 -12q11 -13 11 -31q0 -21 -13 -33q-14 -12 -34 -12h1z" />
    <glyph glyph-name="Zcaron" unicode="&#x17d;" horiz-adv-x="537" 
d="M63 623q-27 0 -27 24q0 28 31 28h213h37.5t55.5 1t56 1h39q30 0 30 -26q0 -13 -20 -42l-52 -81l-232 -342l-95 -138q103 0 223 3t156 3q14 0 22 -9q7 -8 7 -19q0 -26 -43 -26q-29 -1 -122.5 -1h-251.5h-18q-2 0 -6 0.5t-9 1.5q-11 1 -15 9q-4 7 -4 18q0 13 3 21
q6 14 20 35.5t36 52.5l58 82l195 279l83 129q-34 -1 -79.5 -1h-103.5h-183zM163 884q7 0 18 -11q1 -1 23 -23.5t67 -67.5l42 42l33 35q10 12 18 18q7 6 16 6q6 0 13 -7t7 -15t-11 -22l-87 -97q-15 -16 -31 -16q-14 0 -28 14l-88 100q-13 14 -13 23q0 8 6 14t14 6z" />
    <glyph glyph-name="zcaron" unicode="&#x17e;" horiz-adv-x="442" 
d="M270 407q-13 0 -36 -0.5t-57 -1.5q-68 -2 -108 0q-24 0 -24 25q0 16 12 22t38 6h34t47 -1t47 -1h34h19.5t27.5 1t28 1h20q44 0 44 -30q-1 -14 -5 -19q-4 -6 -7.5 -12t-8.5 -12l-10 -12t-11 -13q-13 -14 -17 -20l-215 -264l-18 -24l218 5q18 1 31.5 1.5t21.5 0.5
q28 0 28 -26q0 -28 -29 -30h-20h-27h-36t-66 -1t-74.5 -1h-59.5q-25 0 -36 8q-10 7 -10 30q0 9 4 17t17 26q11 15 20 24q7 7 30 36l216 264l-57 -1zM118 699q7 0 18 -11q1 -1 23 -23.5t67 -67.5l42 42l33 35q10 12 18 18q7 6 16 6q6 0 13 -7t7 -15t-11 -22l-87 -97
q-15 -16 -31 -16q-14 0 -28 14l-88 100q-13 14 -13 23q0 8 6 14t14 6z" />
    <glyph glyph-name="florin" unicode="&#x192;" horiz-adv-x="415" 
d="M223 395l-48 -399q-14 -107 -31 -145q-38 -84 -141 -84q-10 0 -31 6q-24 7 -24 27q0 27 27 27q11 0 23 -4t21 -4q21 0 35 7q16 8 26 22q5 8 9.5 15t8.5 14q7 13 12 38q4 24 6 39q1 8 2 17.5t3 22.5l48 404h-75q-21 0 -33 5q-10 4 -10 18q0 29 41 29h83q6 49 12 81
q6 33 21 74q15 42 36 66t58 42t87 18q55 0 55 -30q0 -22 -22 -22q-11 0 -27 3q-18 3 -30 2q-26 -2 -47 -12t-34 -31q-7 -11 -12.5 -20.5t-10.5 -19.5q-9 -20 -15 -51q-3 -16 -5 -28.5t-4 -21.5t-3.5 -21.5t-3.5 -29.5h119q17 0 23 -7q6 -8 6 -21q0 -24 -30 -24z" />
    <glyph glyph-name="Ohorn" unicode="&#x1a0;" horiz-adv-x="747" 
d="M641 609q-6 -5 -15.5 -10.5t-20.5 -8.5q92 -97 92 -240q0 -152 -90 -255t-230 -103q-126 0 -223 92q-96 91 -96 237q0 161 98 264q97 102 225 100l-1 2q115 0 201 -74q8 2 18.5 4.5t24.5 19.5q8 10 12 17t6 15q0 2 -4 6l-10 12q-6 7 -6 18q0 16 10 26q11 11 27 11t27 -12
q11 -13 11 -28q0 -22 -12 -44q-10 -20 -34 -41l-2 -2q-1 -1 -2 -1.5t-3 -2.5q-2 0 -2 -2h-1zM568 137q76 90 75 210v1q-2 124 -84 207q-82 82 -192 82q-102 0 -180 -87t-78 -215q0 -125 80 -207q79 -81 194 -81q108 0 185 90z" />
    <glyph glyph-name="ohorn" unicode="&#x1a1;" horiz-adv-x="543" 
d="M451 421q-5 -4 -13.5 -9t-18.5 -9q38 -35 56 -81q18 -48 18 -101q0 -100 -67 -166q-68 -66 -166 -66q-85 0 -150 62q-64 61 -64 158q0 112 68 183t180 71l-1 -3q16 0 21 -8q43 -5 77 -27q8 2 18.5 4.5t24.5 19.5q15 18 18 33q0 2 -4 6l-10 12q-6 7 -6 18q0 16 10 26
q11 11 27 11t27 -12q11 -13 11 -28q0 -23 -12 -44q-10 -21 -34 -42q-1 0 -2 -1q-3 -3 -5 -4l-2 -2zM438 224q0 81 -43 128q-44 48 -127 54q-75 -4 -120 -59q-45 -54 -45 -144q0 -71 48 -116t107 -45q71 0 126 50q54 49 54 132z" />
    <glyph glyph-name="Uhorn" unicode="&#x1af;" horiz-adv-x="676" 
d="M691 768q11 -13 11 -28q0 -25 -11 -44q-13 -23 -35 -41l-2 -2q-1 -1 -1.5 -2t-2.5 -2q-1 -1 -1.5 -1t-1.5 -1q-9 -7 -24.5 -15.5t-32.5 -7.5l1 -322q1 -148 -68 -228q-69 -79 -195 -79q-114 0 -177 72t-63 204v5v213v153q0 37 25 37q28 0 28 -29q-1 -30 -1 -124v-253
q0 -222 199 -222q85 0 142 62q57 61 57 159v64.5t-1 118.5t-1 122.5v75.5q0 27 27 27q25 0 27 -29q7 1 16.5 4.5t23.5 18.5q14 19 17 33q0 2 -4 6l-10 12q-6 7 -6 18q0 16 10 26q11 11 27 11t27 -12z" />
    <glyph glyph-name="uhorn" unicode="&#x1b0;" horiz-adv-x="555" 
d="M574 545q11 -13 11 -28q0 -22 -12 -44q-10 -20 -34 -41l-2 -2q-1 -1 -2 -1.5t-3 -2.5l-2 -2h-1q-9 -7 -24.5 -15t-32.5 -8v-10t-1 -12q-1 -20 -1 -43v-51v-102q0 -32 1.5 -71t5.5 -85q2 -29 -26 -29q-25 0 -28 30q-3 27 -3 81q-19 -50 -62 -84q-42 -33 -107 -33
q-89 0 -132 57q-44 58 -44 155v107v106q0 38 32 38l-3 -2q24 0 24 -29q-3 -204 -3 -216q0 -70 30 -118t93 -48q92 0 129 61t39 171l1 146q0 35 28 35q15 0 21 -7q6 -6 6 -20q8 2 17.5 5t22.5 18q8 11 12 18t6 15q0 2 -4 6l-10 12q-6 7 -6 18q0 16 10 26q11 11 27 11t27 -12z
" />
    <glyph glyph-name="AEacute" unicode="&#x1fc;" horiz-adv-x="901" 
d="M17 18q0 13 20 39q45 63 97 139.5t113 168.5q121 183 177 261q16 24 30 33q13 9 35 9q2 0 35.5 0.5t99.5 1.5t116 1.5t85 0.5q22 0 30 -6t8 -20q0 -25 -25 -25h-154h-154q-1 -52 -1.5 -88t-0.5 -56v-95v-32h58h30.5t52.5 1t60 1h54q18 0 26 -5t8 -18q0 -25 -32 -25h-139
h-118v-77v-89v-89q106 0 301 3q33 0 33 -24q0 -30 -33 -30h-123h-133q-68 0 -84 9t-16 50l2 140l-278 2q-8 -10 -36 -51.5t-77 -116.5q-20 -32 -36 -32q-10 0 -20 8q-9 7 -9 18zM223 239l250 1v63t1 45l1 84v87v51.5t1 37.5zM531 741q-11 -8 -18 -8q-9 0 -16 6t-7 15
q0 7 8 18q2 2 12 13t28 31q37 40 59 68q10 12 21 12t20 -9t9 -19q0 -7 -11 -21q-25 -28 -50.5 -54.5t-52.5 -52.5z" />
    <glyph glyph-name="aeacute" unicode="&#x1fd;" horiz-adv-x="827" 
d="M437 204q-1 -64 42 -112t117 -48q66 0 121 37q3 3 6 5q6 4 9 5q6 2 9 2q9 0 18 -9t9 -18q0 -28 -57 -52t-125 -24q-57 0 -105 33q-47 32 -73 84q-56 -116 -177 -116q-76 0 -129 35q-52 34 -52 98q0 68 48 101q49 34 131 35q37 1 156 -3q0 62 -41 106q-40 43 -105 43
q-47 0 -113 -27q-14 -6 -27 0t-13 20q0 18 21 29q59 30 138 29q60 -2 104 -31q45 -30 68 -83q28 52 75 84q46 31 102 31q78 0 132 -57t54 -126v-17t-1 -12q-1 -7 -8 -19q-6 -10 -21 -13t-42 -3q-23 -1 -53 -1h-67h-105zM602 401q-66 0 -111 -45t-51 -106h118h76t48 1
q49 0 49 6q0 61 -39 103t-91 42zM232 39q60 0 105 42q44 42 46 104v21q-56 3 -152 3q-66 1 -97 -20q-30 -21 -30 -66q0 -41 37 -63t93 -22zM407 552q-11 -8 -18 -8q-9 0 -16 6t-7 15q0 7 8 18q2 2 12 13t28 31q37 40 59 68q10 12 21 12t20 -9t9 -19q0 -7 -11 -21
q-25 -28 -50.5 -54.5t-52.5 -52.5z" />
    <glyph glyph-name="Oslashacute" unicode="&#x1fe;" horiz-adv-x="747" 
d="M380 685q83 0 155 -42l28 42q8 14 21 14q10 0 17 -7q8 -8 8 -16t-6 -18l-28 -43q57 -47 90 -115q33 -69 33 -152q0 -152 -90 -255t-230 -103q-94 0 -173 51l-35 -54q-11 -15 -21 -15q-8 0 -18 8q-9 7 -9 17q0 7 8 20l35 54q-108 96 -108 250q0 161 98 264q97 102 225 100
zM644 346q-2 136 -102 221l-309 -477q67 -45 150 -45q108 0 185 90q76 90 75 210zM111 332q0 -130 86 -213l308 476q-66 39 -136 39q-102 0 -180 -87t-78 -215zM354 749q-11 -8 -18 -8q-9 0 -16 6t-7 15q0 7 8 18q2 2 12 13t28 31q37 40 59 68q10 12 21 12t20 -9t9 -19
q0 -7 -11 -21q-25 -28 -50.5 -54.5t-52.5 -52.5z" />
    <glyph glyph-name="oslashacute" unicode="&#x1ff;" horiz-adv-x="543" 
d="M292 463q16 0 22 -8q35 -6 68 -23l21 34q10 18 22 18q7 0 15 -6q7 -6 7 -13q0 -9 -15 -33l-15 -24q77 -68 77 -183q0 -101 -67 -167q-68 -66 -165 -66q-39 0 -88 23l-23 -38q-8 -14 -18 -14q-11 0 -18 6t-7 16q0 7 9 21l19 30q-90 66 -90 178q0 110 68 180q67 69 179 69
h-1zM102 213q0 -78 63 -129l190 306q-35 19 -87 21q-74 -5 -120 -58t-46 -142v2zM438 229q0 86 -50 134l-185 -301q30 -15 57 -15q72 0 125 50t53 132zM247 560q-11 -8 -18 -8q-9 0 -16 6t-7 15q0 7 8 18q2 2 12 13t28 31q37 40 59 68q10 12 21 12t20 -9t9 -19q0 -7 -11 -21
q-25 -28 -50.5 -54.5t-52.5 -52.5z" />
    <glyph glyph-name="uni0218" unicode="&#x218;" horiz-adv-x="558" 
d="M460 642q23 -11 23 -29q0 -11 -7 -18q-8 -8 -18 -8t-28 9q-67 32 -143 32q-69 0 -118 -39t-49 -100q0 -23 9 -41q8 -16 20 -28q10 -10 35 -21q12 -5 21.5 -8t16.5 -5t18 -4.5t28 -6.5l9 -3l8 -2q54 -12 86 -24q33 -12 66 -33q34 -22 50 -52q17 -32 17 -75q0 -89 -64 -144
t-171 -55q-101 0 -180 42q-33 16 -33 35q0 10 8 20q7 9 20 9q7 0 25 -8q77 -44 159 -44q79 0 129 38t50 104q0 62 -46 92q-48 31 -132 47q-17 4 -32 7.5t-27 6.5q-22 5 -54 20q-30 13 -48 30t-30 43q-12 27 -12 60q0 84 69 140q70 56 158 56q90 0 169 -38zM235 -198
q0 6 15 21t18 32q0 2 -4 6q-2 2 -4.5 5t-5.5 7q-6 7 -6 18q0 16 10 26q11 11 27 11t27 -12q11 -13 11 -28q0 -50 -55 -93q-12 -6 -18 -6q-14 0 -14 16z" />
    <glyph glyph-name="uni0219" unicode="&#x219;" horiz-adv-x="453" 
d="M232 451q81 0 132 -25q23 -12 23 -25q0 -26 -25 -26q-3 0 -45 14t-88 14q-47 0 -81 -24t-34 -60q0 -23 17 -37q16 -14 39 -18q22 -5 57 -9h4h3h3q37 -5 62 -12q27 -8 50 -21q25 -14 38 -37t13 -57q0 -64 -49 -100q-50 -36 -126 -36q-56 0 -114 18t-58 37q0 32 25 32
q1 0 54 -17t97 -17q50 0 84 22q35 23 35 60q0 39 -30 56q-31 17 -90 26q-17 2 -28.5 4t-19.5 4q-15 3 -42 12q-29 10 -41 19q-14 10 -24 30q-11 20 -11 45q0 58 53 97q52 39 120 39zM182 -201q0 6 15 21t18 32q0 2 -4 6q-2 2 -4.5 5t-5.5 7q-6 7 -6 18q0 16 10 26
q11 11 27 11t27 -12q11 -13 11 -28q0 -50 -55 -93q-12 -6 -18 -6q-14 0 -14 16z" />
    <glyph glyph-name="uni021A" unicode="&#x21a;" 
d="M280 678h49t79 1t71.5 1h27.5q35 0 35 -24q0 -16 -9 -22t-32 -6h-196v-70v-105q0 -29 0.5 -72.5t1.5 -102.5t1.5 -118.5t1.5 -122.5q0 -21 -6 -30t-23 -9q-14 0 -20 8q-6 7 -6 27l1 384v105v105h-105t-105 -1q-27 0 -27 26q0 10 8 18t21 8h33h75h127h-3zM231 -193
q0 6 15 21t18 32q0 2 -4 6q-2 2 -4.5 5t-5.5 7q-6 7 -6 18q0 16 10 26q11 11 27 11t27 -12q11 -13 11 -28q0 -50 -55 -93q-12 -6 -18 -6q-14 0 -14 16z" />
    <glyph glyph-name="uni021B" unicode="&#x21b;" horiz-adv-x="345" 
d="M45 400q-27 0 -27 23q0 27 31 27h72l1 92q0 47 29 47q8 0 14 -2q4 -1 6 -8q2 -8 2 -11v-18v-18t-1 -31t-1 -31.5v-19.5l115 1q28 0 28 -25t-31 -25h-111v-221q0 -74 16 -105t58 -31q15 0 30 6t23 6q10 0 16 -9t6 -19q0 -16 -17 -24q-26 -10 -54 -10q-72 0 -102 40
t-30 133q0 19 0.5 48t1.5 69t1.5 69t0.5 48h-77v-1zM161 -194q0 6 15 21t18 32q0 2 -4 6q-2 2 -4.5 5t-5.5 7q-6 7 -6 18q0 16 10 26q11 11 27 11t27 -12q11 -13 11 -28q0 -50 -55 -93q-12 -6 -18 -6q-14 0 -14 16z" />
    <glyph glyph-name="dotlessj" unicode="&#x237;" horiz-adv-x="212" 
d="M81 428q2 26 26 26q28 0 28 -24v-264q0 -59 -1 -124.5t-3 -140.5q-1 -54 -41 -94q-39 -39 -100 -39q-23 0 -49 8q-24 7 -24 24q0 16 7 23q8 8 16 8q9 0 26 -6q16 -6 32 -6q36 0 57 27t24 72q2 26 3 109t1 223v35.5t-1 54.5t-1 54.5v35.5v-2z" />
    <glyph glyph-name="circumflex" unicode="&#x2c6;" horiz-adv-x="335" 
d="M275 535q-5 0 -9 3q-5 3 -6 6l-3 3q-1 1 -23 23.5t-67 67.5l-42 -42l-33 -34q-11 -12 -18 -18q-8 -6 -16 -6q-6 0 -13 7t-7 15t11 22l87 97q15 16 31 16q14 0 28 -14l88 -100q13 -14 13 -22t-6 -14t-14 -6z" />
    <glyph glyph-name="caron" unicode="&#x2c7;" horiz-adv-x="328" 
d="M57 697q7 0 18 -11q1 -1 23 -23.5t67 -67.5l42 42l33 35q10 12 18 18q7 6 16 6q6 0 13 -7t7 -15t-11 -22l-87 -97q-15 -16 -31 -16q-14 0 -28 14l-88 100q-13 14 -13 23q0 8 6 14t14 6z" />
    <glyph glyph-name="breve" unicode="&#x2d8;" horiz-adv-x="334" 
d="M272 683q21 0 21 -24q0 -48 -36 -84t-88 -36q-48 0 -85 35q-36 35 -38 83q0 26 22 26q20 0 21 -22q1 -33 23 -55q21 -21 59 -21q35 0 56 23q21 22 21 54q0 22 22 22z" />
    <glyph glyph-name="dotaccent" unicode="&#x2d9;" horiz-adv-x="167" 
d="M81 583q-18 0 -30 12q-11 11 -13 32q5 44 48 44q19 0 30 -12q11 -13 11 -31q0 -21 -13 -33q-14 -12 -34 -12h1z" />
    <glyph glyph-name="ring" unicode="&#x2da;" horiz-adv-x="289" 
d="M145 728q42 0 72 -27t30 -69q0 -45 -30 -76t-75 -31q-40 0 -72 29q-31 28 -31 72q0 45 33 74q34 29 74 29zM204 630q-1 27 -19 43q-17 16 -45 16q-24 0 -43 -17q-18 -17 -18 -44q0 -32 18 -48q17 -16 47 -16q27 0 45 19q18 20 17 48z" />
    <glyph glyph-name="ogonek" unicode="&#x2db;" horiz-adv-x="232" 
d="M86 -121q0 -21 11 -34q10 -12 27 -12q12 0 26 3q13 3 21 3q9 0 15 -6t6 -15q0 -32 -62 -32q-37 0 -63 25q-27 25 -27 66q0 40 27 72t74 62l46 -2q-66 -54 -80 -72q-21 -27 -21 -54v-4z" />
    <glyph glyph-name="tilde" unicode="&#x2dc;" horiz-adv-x="367" 
d="M83 591q-1 -19 -24 -19q-10 0 -16 8q-6 7 -4 18q1 33 26 54q24 21 58 21t68 -31t59 -33q30 0 32 45q1 9 9 15q7 6 15 6q22 0 22 -20q0 -44 -22 -65q-23 -21 -60 -21q-35 2 -69 31t-55 31q-32 0 -36 -39z" />
    <glyph glyph-name="hungarumlaut" unicode="&#x2dd;" horiz-adv-x="357" 
d="M73 548q-9 -11 -17 -11q-9 0 -15 6t-6 15q0 8 6 16l76 111q9 15 22 15q12 0 20 -7q9 -8 9 -18q0 -9 -8 -20zM211 540q-7 -10 -15 -10q-9 0 -16 6t-7 16q0 7 6 16l85 112q9 15 21 15t21 -6t9 -17q0 -8 -8 -22z" />
    <glyph glyph-name="hookabovecomb" unicode="&#x309;" horiz-adv-x="260" 
d="M179 854q14 -11 20.5 -26t8.5 -33q2 -14 -2 -31.5t-15 -31.5q-5 -8 -8 -11.5t-11 -12.5q-12 -14 -25 -20t-22 1q-6 3 -6 9q-2 7 2 11q2 2 5.5 5t8.5 6q5 4 9.5 9t6.5 8q21 27 18 50v3q-1 19 -15 29q-10 10 -28 8q-6 0 -12.5 -1t-12.5 -3q-7 -2 -12 -3t-9 -2q-10 0 -15 4
q-6 4 -8 13q-2 28 60 34q18 2 33 -1t29 -14z" />
    <glyph glyph-name="dotbelowcomb" unicode="&#x323;" horiz-adv-x="167" 
d="M81 -158q-18 0 -30 12q-11 11 -13 32q5 44 48 44q19 0 30 -12q11 -13 11 -31q0 -21 -13 -33q-14 -12 -34 -12h1z" />
    <glyph glyph-name="pi" unicode="&#x3c0;" horiz-adv-x="644" 
d="M329 629h-124v-73q0 -52 1 -181t3 -339q0 -21 -6 -30t-23 -9q-14 0 -20 8q-6 7 -6 27v80t1 112t1 112v80v107v107q-7 -1 -19 -1h-29h-29t-20 -1q-27 0 -27 24q0 10 8 18t21 8h62h62q105 2 202.5 3t190.5 1q28 0 28 -25q0 -15 -6 -21t-19 -6l-83 1l-1 -73q0 -43 3 -196
q2 -77 2.5 -157.5t1.5 -167.5q0 -21 -6 -30t-23 -9q-14 0 -20 8q-6 7 -6 27v383v214z" />
    <glyph glyph-name="Wgrave" unicode="&#x1e80;" horiz-adv-x="835" 
d="M44 655q-3 13 5 23q7 9 21 9t20 -6t9 -21q4 -23 51 -261q46 -239 60 -315q23 63 63.5 186.5t98.5 310.5q6 19 9 27q3 7 11 15q7 7 20 7q25 0 33 -23l172 -507q42 188 71 327t46 233q4 30 30 30q12 0 20 -9q7 -9 6 -22l-138 -619q-2 -7 -3 -12t-2 -8q-2 -6 -9 -12
q-8 -6 -19 -6q-26 0 -36 33q-17 52 -40.5 121.5t-53.5 157.5q-60 175 -75 222q-44 -147 -159 -468l-6 -18q-5 -15 -7 -19q-2 -3 -3.5 -6.5t-3.5 -8.5q-4 -8 -11 -13q-5 -4 -15 -4q-9 0 -15 3t-12 9t-9 12t-6 20q-2 7 -3 13t-2 11q-2 12 -6 32q-2 11 -3.5 20.5t-3.5 17.5
l-105 513v5zM442 749q-28 28 -53 55t-48 53q-11 14 -11 23q0 10 9 18q10 8 18 8q14 0 24 -13q11 -15 34.5 -42.5t58.5 -69.5q9 -11 9 -18t-7 -13q-8 -6 -15 -6q-6 0 -17 8z" />
    <glyph glyph-name="wgrave" unicode="&#x1e81;" horiz-adv-x="743" 
d="M38 425q-2 8 -2 11q0 11 11 17q10 6 21 6q17 0 23 -19q82 -308 105 -384q37 91 73 185t71 194q7 19 29 19q25 0 34 -29l142 -364l83 300l20 72q4 21 23 21q10 0 21 -6q10 -6 10 -16q0 -9 -1 -11q-5 -16 -17 -55.5t-31 -104.5t-31.5 -107.5t-19.5 -62.5q-20 -65 -24 -75
q-9 -19 -30 -19q-26 0 -39 39q-11 24 -30 72.5t-48 121.5t-43 110t-15 39l-122 -316q-17 -41 -27 -54q-11 -14 -30 -14q-29 0 -40 38q-35 114 -69 237q-35 123 -45 156zM394 553q-28 28 -53 55t-48 53q-11 14 -11 23q0 10 9 18q10 8 18 8q14 0 24 -13q11 -15 34.5 -42.5
t58.5 -69.5q9 -11 9 -18t-7 -13q-8 -6 -15 -6q-6 0 -17 8z" />
    <glyph glyph-name="Wacute" unicode="&#x1e82;" horiz-adv-x="835" 
d="M44 655q-3 13 5 23q7 9 21 9t20 -6t9 -21q4 -23 51 -261q46 -239 60 -315q23 63 63.5 186.5t98.5 310.5q6 19 9 27q3 7 11 15q7 7 20 7q25 0 33 -23l172 -507q42 188 71 327t46 233q4 30 30 30q12 0 20 -9q7 -9 6 -22l-138 -619q-2 -7 -3 -12t-2 -8q-2 -6 -9 -12
q-8 -6 -19 -6q-26 0 -36 33q-17 52 -40.5 121.5t-53.5 157.5q-60 175 -75 222q-44 -147 -159 -468l-6 -18q-5 -15 -7 -19q-2 -3 -3.5 -6.5t-3.5 -8.5q-4 -8 -11 -13q-5 -4 -15 -4q-9 0 -15 3t-12 9t-9 12t-6 20q-2 7 -3 13t-2 11q-2 12 -6 32q-2 11 -3.5 20.5t-3.5 17.5
l-105 513v5zM394 753q-11 -8 -18 -8q-9 0 -16 6t-7 15q0 7 8 18q2 2 12 13t28 31q37 40 59 68q10 12 21 12t20 -9t9 -19q0 -7 -11 -21q-25 -28 -50.5 -54.5t-52.5 -52.5z" />
    <glyph glyph-name="wacute" unicode="&#x1e83;" horiz-adv-x="743" 
d="M38 425q-2 8 -2 11q0 11 11 17q10 6 21 6q17 0 23 -19q82 -308 105 -384q37 91 73 185t71 194q7 19 29 19q25 0 34 -29l142 -364l83 300l20 72q4 21 23 21q10 0 21 -6q10 -6 10 -16q0 -9 -1 -11q-5 -16 -17 -55.5t-31 -104.5t-31.5 -107.5t-19.5 -62.5q-20 -65 -24 -75
q-9 -19 -30 -19q-26 0 -39 39q-11 24 -30 72.5t-48 121.5t-43 110t-15 39l-122 -316q-17 -41 -27 -54q-11 -14 -30 -14q-29 0 -40 38q-35 114 -69 237q-35 123 -45 156zM346 557q-11 -8 -18 -8q-9 0 -16 6t-7 15q0 7 8 18q2 2 12 13t28 31q37 40 59 68q10 12 21 12t20 -9
t9 -19q0 -7 -11 -21q-25 -28 -50.5 -54.5t-52.5 -52.5z" />
    <glyph glyph-name="Wdieresis" unicode="&#x1e84;" horiz-adv-x="835" 
d="M44 655q-3 13 5 23q7 9 21 9t20 -6t9 -21q4 -23 51 -261q46 -239 60 -315q23 63 63.5 186.5t98.5 310.5q6 19 9 27q3 7 11 15q7 7 20 7q25 0 33 -23l172 -507q42 188 71 327t46 233q4 30 30 30q12 0 20 -9q7 -9 6 -22l-138 -619q-2 -7 -3 -12t-2 -8q-2 -6 -9 -12
q-8 -6 -19 -6q-26 0 -36 33q-17 52 -40.5 121.5t-53.5 157.5q-60 175 -75 222q-44 -147 -159 -468l-6 -18q-5 -15 -7 -19q-2 -3 -3.5 -6.5t-3.5 -8.5q-4 -8 -11 -13q-5 -4 -15 -4q-9 0 -15 3t-12 9t-9 12t-6 20q-2 7 -3 13t-2 11q-2 12 -6 32q-2 11 -3.5 20.5t-3.5 17.5
l-105 513v5zM334 772q-16 0 -28 12t-12 31q0 17 13 29t33 12q19 0 31 -12t12 -30q0 -19 -13 -31q-14 -12 -34 -12zM485 775q-16 0 -28 12t-12 29t13 29t33 12q19 0 30 -12q11 -13 11 -31q0 -20 -13 -30t-33 -10z" />
    <glyph glyph-name="wdieresis" unicode="&#x1e85;" horiz-adv-x="743" 
d="M38 425q-2 8 -2 11q0 11 11 17q10 6 21 6q17 0 23 -19q82 -308 105 -384q37 91 73 185t71 194q7 19 29 19q25 0 34 -29l142 -364l83 300l20 72q4 21 23 21q10 0 21 -6q10 -6 10 -16q0 -9 -1 -11q-5 -16 -17 -55.5t-31 -104.5t-31.5 -107.5t-19.5 -62.5q-20 -65 -24 -75
q-9 -19 -30 -19q-26 0 -39 39q-11 24 -30 72.5t-48 121.5t-43 110t-15 39l-122 -316q-17 -41 -27 -54q-11 -14 -30 -14q-29 0 -40 38q-35 114 -69 237q-35 123 -45 156zM286 576q-16 0 -28 12t-12 31q0 17 13 29t33 12q19 0 31 -12t12 -30q0 -19 -13 -31q-14 -12 -34 -12z
M437 579q-16 0 -28 12t-12 29t13 29t33 12q19 0 30 -12q11 -13 11 -31q0 -20 -13 -30t-33 -10z" />
    <glyph glyph-name="uni1E9E" unicode="&#x1e9e;" horiz-adv-x="663" 
d="M500 612q-20 10 -67 17q-25 4 -45 6t-36 2q-95 0 -150 -69q-55 -68 -55 -181v-170v-173v-14t-1 -11q-2 -9 -9 -15q-8 -6 -21 -6q-17 0 -21 9q-5 10 -5 36v40v95v198q0 146 73 228t189 82q49 0 107 -13q61 -14 77 -24q20 -11 20 -32q0 -15 -7 -23q-11 -17 -51 -69
q-20 -26 -39 -50.5t-36 -47.5l-35 -44q41 -8 77 -21q37 -14 71 -36q34 -23 54 -60q20 -38 20 -84q-1 -76 -57 -133t-141 -57q-55 0 -103 17q-46 16 -46 36q0 12 8 20t21 8q3 0 42 -14t81 -14q59 0 98 39t39 93q0 74 -46 111q-47 37 -138 51q-3 0 -7 1q-8 2 -7 2l-6 2
q-3 1 -7 3l-6 3q-3 2 -5 5q-2 4 -3 7t-1 9q0 11 8 25z" />
    <glyph glyph-name="uni1EA0" unicode="&#x1ea0;" horiz-adv-x="629" 
d="M31 22q0 11 14 42q108 256 111 261q7 17 39 99t90 232q10 24 34 24q22 0 33 -24q16 -38 66 -171q49 -134 72 -189q1 -2 2 -5t3 -8t3 -8t2 -5l95 -229q6 -17 6 -22q0 -8 -9 -15q-8 -7 -20 -7q-15 0 -21 6q-5 5 -13 26q-14 36 -30 78q-8 21 -14.5 37.5t-11.5 28.5t-7 19
t-3 9h-76h-132h-107q-5 -12 -30 -78q-13 -33 -21 -54t-12 -29l-2.5 -5t-3.5 -8t-3.5 -8l-2.5 -5l-2 -4t-3 -5q-3 -5 -8 -7q-3 -1 -10 -1q-30 0 -30 25h2zM319 606q-26 -71 -61.5 -160.5t-80.5 -198.5q73 -1 141.5 -1t134.5 2q-8 19 -63 171q-28 76 -45.5 123t-25.5 66v-2z
M313 -158q-18 0 -30 12q-11 11 -13 32q5 44 48 44q19 0 30 -12q11 -13 11 -31q0 -21 -13 -33q-14 -12 -34 -12h1z" />
    <glyph glyph-name="uni1EA1" unicode="&#x1ea1;" 
d="M486 170q0 -34 1.5 -72.5t3.5 -82.5q0 -10 -9 -16t-19 -6q-11 0 -16 4q-6 4 -9 18q-3 13 -3 23v35v14q-53 -95 -174 -95q-92 0 -150 64t-58 153q0 103 65 176q64 72 159 72q103 0 159 -87v47q0 37 28 37q14 0 20 -7q6 -8 6 -15v-27l-1 -78zM107 208q0 -72 47 -121
q46 -48 113 -48q75 0 123 50q48 49 48 129q0 86 -49 135t-117 49q-70 0 -118 -56t-48 -138h1zM280 -158q-18 0 -30 12q-11 11 -13 32q5 44 48 44q19 0 30 -12q11 -13 11 -31q0 -21 -13 -33q-14 -12 -34 -12h1z" />
    <glyph glyph-name="uni1EA2" unicode="&#x1ea2;" horiz-adv-x="629" 
d="M31 22q0 11 14 42q108 256 111 261q7 17 39 99t90 232q10 24 34 24q22 0 33 -24q16 -38 66 -171q49 -134 72 -189q1 -2 2 -5t3 -8t3 -8t2 -5l95 -229q6 -17 6 -22q0 -8 -9 -15q-8 -7 -20 -7q-15 0 -21 6q-5 5 -13 26q-14 36 -30 78q-8 21 -14.5 37.5t-11.5 28.5t-7 19
t-3 9h-76h-132h-107q-5 -12 -30 -78q-13 -33 -21 -54t-12 -29l-2.5 -5t-3.5 -8t-3.5 -8l-2.5 -5l-2 -4t-3 -5q-3 -5 -8 -7q-3 -1 -10 -1q-30 0 -30 25h2zM319 606q-26 -71 -61.5 -160.5t-80.5 -198.5q73 -1 141.5 -1t134.5 2q-8 19 -63 171q-28 76 -45.5 123t-25.5 66v-2z
M365 914q14 -11 20.5 -26t8.5 -33q2 -14 -2 -31.5t-15 -31.5q-5 -8 -8 -11.5t-11 -12.5q-12 -14 -25 -20t-22 1q-6 3 -6 9q-2 7 2 11q2 2 5.5 5t8.5 6q5 4 9.5 9t6.5 8q21 27 18 50v3q-1 19 -15 29q-10 10 -28 8q-6 0 -12.5 -1t-12.5 -3q-7 -2 -12 -3t-9 -2q-10 0 -15 4
q-6 4 -8 13q-2 28 60 34q18 2 33 -1t29 -14z" />
    <glyph glyph-name="uni1EA3" unicode="&#x1ea3;" 
d="M486 170q0 -34 1.5 -72.5t3.5 -82.5q0 -10 -9 -16t-19 -6q-11 0 -16 4q-6 4 -9 18q-3 13 -3 23v35v14q-53 -95 -174 -95q-92 0 -150 64t-58 153q0 103 65 176q64 72 159 72q103 0 159 -87v47q0 37 28 37q14 0 20 -7q6 -8 6 -15v-27l-1 -78zM107 208q0 -72 47 -121
q46 -48 113 -48q75 0 123 50q48 49 48 129q0 86 -49 135t-117 49q-70 0 -118 -56t-48 -138h1zM328 721q14 -11 20.5 -26t8.5 -33q2 -14 -2 -31.5t-15 -31.5q-5 -8 -8 -11.5t-11 -12.5q-12 -14 -25 -20t-22 1q-6 3 -6 9q-2 7 2 11q2 2 5.5 5t8.5 6q5 4 9.5 9t6.5 8
q21 27 18 50v3q-1 19 -15 29q-10 10 -28 8q-6 0 -12.5 -1t-12.5 -3q-7 -2 -12 -3t-9 -2q-10 0 -15 4q-6 4 -8 13q-2 28 60 34q18 2 33 -1t29 -14z" />
    <glyph glyph-name="uni1EA4" unicode="&#x1ea4;" horiz-adv-x="629" 
d="M31 22q0 11 14 42q108 256 111 261q7 17 39 99t90 232q10 24 34 24q22 0 33 -24q16 -38 66 -171q49 -134 72 -189q1 -2 2 -5t3 -8t3 -8t2 -5l95 -229q6 -17 6 -22q0 -8 -9 -15q-8 -7 -20 -7q-15 0 -21 6q-5 5 -13 26q-14 36 -30 78q-8 21 -14.5 37.5t-11.5 28.5t-7 19
t-3 9h-76h-132h-107q-5 -12 -30 -78q-13 -33 -21 -54t-12 -29l-2.5 -5t-3.5 -8t-3.5 -8l-2.5 -5l-2 -4t-3 -5q-3 -5 -8 -7q-3 -1 -10 -1q-30 0 -30 25h2zM319 606q-26 -71 -61.5 -160.5t-80.5 -198.5q73 -1 141.5 -1t134.5 2q-8 19 -63 171q-28 76 -45.5 123t-25.5 66v-2z
M427 723q-5 0 -9 3q-5 3 -6 6l-3 3q-1 1 -23 23.5t-67 67.5l-42 -42l-33 -34q-11 -12 -18 -18q-8 -6 -16 -6q-6 0 -13 7t-7 15t11 22l87 97q15 16 31 16q14 0 28 -14l88 -100q13 -14 13 -22t-6 -14t-14 -6zM468 809q-11 -8 -18 -8q-9 0 -16 6t-7 15q0 7 8 18q2 2 12 13
t28 31q37 40 59 68q10 12 21 12t20 -9t9 -19q0 -7 -11 -21q-25 -28 -50.5 -54.5t-52.5 -52.5z" />
    <glyph glyph-name="uni1EA5" unicode="&#x1ea5;" 
d="M486 170q0 -34 1.5 -72.5t3.5 -82.5q0 -10 -9 -16t-19 -6q-11 0 -16 4q-6 4 -9 18q-3 13 -3 23v35v14q-53 -95 -174 -95q-92 0 -150 64t-58 153q0 103 65 176q64 72 159 72q103 0 159 -87v47q0 37 28 37q14 0 20 -7q6 -8 6 -15v-27l-1 -78zM107 208q0 -72 47 -121
q46 -48 113 -48q75 0 123 50q48 49 48 129q0 86 -49 135t-117 49q-70 0 -118 -56t-48 -138h1zM385 530q-5 0 -9 3q-6 4 -8 6l-2 3q-1 1 -23 23.5t-67 67.5l-42 -42l-33 -34q-11 -12 -18 -18q-8 -6 -16 -6q-6 0 -13 7t-7 15t11 22l87 97q15 16 31 16q14 0 28 -14l88 -100
q13 -14 13 -22t-6 -14t-14 -6v-4zM425 616q-11 -8 -18 -8q-9 0 -16 6t-7 15q0 7 8 18q2 2 12 13t28 31q37 40 59 68q10 12 21 12t20 -9t9 -19q0 -7 -11 -21q-25 -28 -50.5 -54.5t-52.5 -52.5z" />
    <glyph glyph-name="uni1EA6" unicode="&#x1ea6;" horiz-adv-x="629" 
d="M31 22q0 11 14 42q108 256 111 261q7 17 39 99t90 232q10 24 34 24q22 0 33 -24q16 -38 66 -171q49 -134 72 -189q1 -2 2 -5t3 -8t3 -8t2 -5l95 -229q6 -17 6 -22q0 -8 -9 -15q-8 -7 -20 -7q-15 0 -21 6q-5 5 -13 26q-14 36 -30 78q-8 21 -14.5 37.5t-11.5 28.5t-7 19
t-3 9h-76h-132h-107q-5 -12 -30 -78q-13 -33 -21 -54t-12 -29l-2.5 -5t-3.5 -8t-3.5 -8l-2.5 -5l-2 -4t-3 -5q-3 -5 -8 -7q-3 -1 -10 -1q-30 0 -30 25h2zM319 606q-26 -71 -61.5 -160.5t-80.5 -198.5q73 -1 141.5 -1t134.5 2q-8 19 -63 171q-28 76 -45.5 123t-25.5 66v-2z
M427 723q-5 0 -9 3q-5 3 -6 6l-3 3q-1 1 -23 23.5t-67 67.5l-42 -42l-33 -34q-11 -12 -18 -18q-8 -6 -16 -6q-6 0 -13 7t-7 15t11 22l87 97q15 16 31 16q14 0 28 -14l88 -100q13 -14 13 -22t-6 -14t-14 -6zM489 807q-28 28 -53 55t-48 53q-11 14 -11 23q0 10 9 18q10 8 18 8
q14 0 24 -13q11 -15 34.5 -42.5t58.5 -69.5q9 -11 9 -18t-7 -13q-8 -6 -15 -6q-6 0 -17 8z" />
    <glyph glyph-name="uni1EA7" unicode="&#x1ea7;" 
d="M486 170q0 -34 1.5 -72.5t3.5 -82.5q0 -10 -9 -16t-19 -6q-11 0 -16 4q-6 4 -9 18q-3 13 -3 23v35v14q-53 -95 -174 -95q-92 0 -150 64t-58 153q0 103 65 176q64 72 159 72q103 0 159 -87v47q0 37 28 37q14 0 20 -7q6 -8 6 -15v-27l-1 -78zM107 208q0 -72 47 -121
q46 -48 113 -48q75 0 123 50q48 49 48 129q0 86 -49 135t-117 49q-70 0 -118 -56t-48 -138h1zM385 530q-5 0 -9 3q-6 4 -8 6l-2 3q-1 1 -23 23.5t-67 67.5l-42 -42l-33 -34q-11 -12 -18 -18q-8 -6 -16 -6q-6 0 -13 7t-7 15t11 22l87 97q15 16 31 16q14 0 28 -14l88 -100
q13 -14 13 -22t-6 -14t-14 -6v-4zM445 614q-28 28 -53 55t-48 53q-11 14 -11 23q0 10 9 18q10 8 18 8q14 0 24 -13q11 -15 34.5 -42.5t58.5 -69.5q9 -11 9 -18t-7 -13q-8 -6 -15 -6q-6 0 -17 8z" />
    <glyph glyph-name="uni1EA8" unicode="&#x1ea8;" horiz-adv-x="629" 
d="M31 22q0 11 14 42q108 256 111 261q7 17 39 99t90 232q10 24 34 24q22 0 33 -24q16 -38 66 -171q49 -134 72 -189q1 -2 2 -5t3 -8t3 -8t2 -5l95 -229q6 -17 6 -22q0 -8 -9 -15q-8 -7 -20 -7q-15 0 -21 6q-5 5 -13 26q-14 36 -30 78q-8 21 -14.5 37.5t-11.5 28.5t-7 19
t-3 9h-76h-132h-107q-5 -12 -30 -78q-13 -33 -21 -54t-12 -29l-2.5 -5t-3.5 -8t-3.5 -8l-2.5 -5l-2 -4t-3 -5q-3 -5 -8 -7q-3 -1 -10 -1q-30 0 -30 25h2zM319 606q-26 -71 -61.5 -160.5t-80.5 -198.5q73 -1 141.5 -1t134.5 2q-8 19 -63 171q-28 76 -45.5 123t-25.5 66v-2z
M427 723q-5 0 -9 3q-5 3 -6 6l-3 3q-1 1 -23 23.5t-67 67.5l-42 -42l-33 -34q-11 -12 -18 -18q-8 -6 -16 -6q-6 0 -13 7t-7 15t11 22l87 97q15 16 31 16q14 0 28 -14l88 -100q13 -14 13 -22t-6 -14t-14 -6zM514 961q14 -11 20.5 -26t8.5 -33q2 -14 -2 -31.5t-15 -31.5
q-5 -8 -8 -11.5t-11 -12.5q-12 -14 -25 -20t-22 1q-6 3 -6 9q-2 7 2 11q2 2 5.5 5t8.5 6q5 4 9.5 9t6.5 8q21 27 18 50v3q-1 19 -15 29q-10 10 -28 8q-6 0 -12.5 -1t-12.5 -3q-7 -2 -12 -3t-9 -2q-10 0 -15 4q-6 4 -8 13q-2 28 60 34q18 2 33 -1t29 -14z" />
    <glyph glyph-name="uni1EA9" unicode="&#x1ea9;" 
d="M486 170q0 -34 1.5 -72.5t3.5 -82.5q0 -10 -9 -16t-19 -6q-11 0 -16 4q-6 4 -9 18q-3 13 -3 23v35v14q-53 -95 -174 -95q-92 0 -150 64t-58 153q0 103 65 176q64 72 159 72q103 0 159 -87v47q0 37 28 37q14 0 20 -7q6 -8 6 -15v-27l-1 -78zM107 208q0 -72 47 -121
q46 -48 113 -48q75 0 123 50q48 49 48 129q0 86 -49 135t-117 49q-70 0 -118 -56t-48 -138h1zM385 530q-5 0 -9 3q-6 4 -8 6l-2 3q-1 1 -23 23.5t-67 67.5l-42 -42l-33 -34q-11 -12 -18 -18q-8 -6 -16 -6q-6 0 -13 7t-7 15t11 22l87 97q15 16 31 16q14 0 28 -14l88 -100
q13 -14 13 -22t-6 -14t-14 -6v-4zM470 770q14 -11 20.5 -26t8.5 -33q2 -14 -2 -31.5t-15 -31.5q-5 -8 -8 -11.5t-11 -12.5q-12 -14 -25 -20t-22 1q-6 3 -6 9q-2 7 2 11q2 2 5.5 5t8.5 6q5 4 9.5 9t6.5 8q21 27 18 50v3q-1 19 -15 29q-10 10 -28 8q-6 0 -12.5 -1t-12.5 -3
q-7 -2 -12 -3t-9 -2q-10 0 -15 4q-6 4 -8 13q-2 28 60 34q18 2 33 -1t29 -14z" />
    <glyph glyph-name="uni1EAA" unicode="&#x1eaa;" horiz-adv-x="629" 
d="M31 22q0 11 14 42q108 256 111 261q7 17 39 99t90 232q10 24 34 24q22 0 33 -24q16 -38 66 -171q49 -134 72 -189q1 -2 2 -5t3 -8t3 -8t2 -5l95 -229q6 -17 6 -22q0 -8 -9 -15q-8 -7 -20 -7q-15 0 -21 6q-5 5 -13 26q-14 36 -30 78q-8 21 -14.5 37.5t-11.5 28.5t-7 19
t-3 9h-76h-132h-107q-5 -12 -30 -78q-13 -33 -21 -54t-12 -29l-2.5 -5t-3.5 -8t-3.5 -8l-2.5 -5l-2 -4t-3 -5q-3 -5 -8 -7q-3 -1 -10 -1q-30 0 -30 25h2zM319 606q-26 -71 -61.5 -160.5t-80.5 -198.5q73 -1 141.5 -1t134.5 2q-8 19 -63 171q-28 76 -45.5 123t-25.5 66v-2z
M427 723q-5 0 -9 3q-5 3 -6 6l-3 3q-1 1 -23 23.5t-67 67.5l-42 -42l-33 -34q-11 -12 -18 -18q-8 -6 -16 -6q-6 0 -13 7t-7 15t11 22l87 97q15 16 31 16q14 0 28 -14l88 -100q13 -14 13 -22t-6 -14t-14 -6zM219 915q-1 -19 -24 -19q-10 0 -16 8q-6 7 -4 18q1 33 26 54
q24 21 58 21t68 -31t59 -33q30 0 32 45q1 9 9 15q7 6 15 6q22 0 22 -20q0 -44 -22 -65q-23 -21 -60 -21q-35 2 -69 31t-55 31q-32 0 -36 -39z" />
    <glyph glyph-name="uni1EAB" unicode="&#x1eab;" 
d="M486 170q0 -34 1.5 -72.5t3.5 -82.5q0 -10 -9 -16t-19 -6q-11 0 -16 4q-6 4 -9 18q-3 13 -3 23v35v14q-53 -95 -174 -95q-92 0 -150 64t-58 153q0 103 65 176q64 72 159 72q103 0 159 -87v47q0 37 28 37q14 0 20 -7q6 -8 6 -15v-27l-1 -78zM107 208q0 -72 47 -121
q46 -48 113 -48q75 0 123 50q48 49 48 129q0 86 -49 135t-117 49q-70 0 -118 -56t-48 -138h1zM385 530q-5 0 -9 3q-6 4 -8 6l-2 3q-1 1 -23 23.5t-67 67.5l-42 -42l-33 -34q-11 -12 -18 -18q-8 -6 -16 -6q-6 0 -13 7t-7 15t11 22l87 97q15 16 31 16q14 0 28 -14l88 -100
q13 -14 13 -22t-6 -14t-14 -6v-4zM176 722q-1 -19 -24 -19q-10 0 -16 8q-6 7 -4 18q1 33 26 54q24 21 58 21t68 -31t59 -33q30 0 32 45q1 9 9 15q7 6 15 6q22 0 22 -20q0 -44 -22 -65q-23 -21 -60 -21q-35 2 -69 31t-55 31q-32 0 -36 -39z" />
    <glyph glyph-name="uni1EAC" unicode="&#x1eac;" horiz-adv-x="629" 
d="M31 22q0 11 14 42q108 256 111 261q7 17 39 99t90 232q10 24 34 24q22 0 33 -24q16 -38 66 -171q49 -134 72 -189q1 -2 2 -5t3 -8t3 -8t2 -5l95 -229q6 -17 6 -22q0 -8 -9 -15q-8 -7 -20 -7q-15 0 -21 6q-5 5 -13 26q-14 36 -30 78q-8 21 -14.5 37.5t-11.5 28.5t-7 19
t-3 9h-76h-132h-107q-5 -12 -30 -78q-13 -33 -21 -54t-12 -29l-2.5 -5t-3.5 -8t-3.5 -8l-2.5 -5l-2 -4t-3 -5q-3 -5 -8 -7q-3 -1 -10 -1q-30 0 -30 25h2zM319 606q-26 -71 -61.5 -160.5t-80.5 -198.5q73 -1 141.5 -1t134.5 2q-8 19 -63 171q-28 76 -45.5 123t-25.5 66v-2z
M313 -158q-18 0 -30 12q-11 11 -13 32q5 44 48 44q19 0 30 -12q11 -13 11 -31q0 -21 -13 -33q-14 -12 -34 -12h1zM422 734q-5 0 -9 3q-5 3 -6 6l-3 3q-1 1 -23 23.5t-67 67.5l-42 -42l-33 -34q-11 -12 -18 -18q-8 -6 -16 -6q-6 0 -13 7t-7 15t11 22l87 97q15 16 31 16
q14 0 28 -14l88 -100q13 -14 13 -22t-6 -14t-14 -6z" />
    <glyph glyph-name="uni1EAD" unicode="&#x1ead;" 
d="M486 170q0 -34 1.5 -72.5t3.5 -82.5q0 -10 -9 -16t-19 -6q-11 0 -16 4q-6 4 -9 18q-3 13 -3 23v35v14q-53 -95 -174 -95q-92 0 -150 64t-58 153q0 103 65 176q64 72 159 72q103 0 159 -87v47q0 37 28 37q14 0 20 -7q6 -8 6 -15v-27l-1 -78zM107 208q0 -72 47 -121
q46 -48 113 -48q75 0 123 50q48 49 48 129q0 86 -49 135t-117 49q-70 0 -118 -56t-48 -138h1zM280 -158q-18 0 -30 12q-11 11 -13 32q5 44 48 44q19 0 30 -12q11 -13 11 -31q0 -21 -13 -33q-14 -12 -34 -12h1zM390 535q-5 0 -9 3q-5 3 -6 6l-3 3q-1 1 -23 23.5t-67 67.5
l-42 -42l-33 -34q-11 -12 -18 -18q-8 -6 -16 -6q-6 0 -13 7t-7 15t11 22l87 97q15 16 31 16q14 0 28 -14l88 -100q13 -14 13 -22t-6 -14t-14 -6z" />
    <glyph glyph-name="uni1EAE" unicode="&#x1eae;" horiz-adv-x="629" 
d="M31 22q0 11 14 42q108 256 111 261q7 17 39 99t90 232q10 24 34 24q22 0 33 -24q16 -38 66 -171q49 -134 72 -189q1 -2 2 -5t3 -8t3 -8t2 -5l95 -229q6 -17 6 -22q0 -8 -9 -15q-8 -7 -20 -7q-15 0 -21 6q-5 5 -13 26q-14 36 -30 78q-8 21 -14.5 37.5t-11.5 28.5t-7 19
t-3 9h-76h-132h-107q-5 -12 -30 -78q-13 -33 -21 -54t-12 -29l-2.5 -5t-3.5 -8t-3.5 -8l-2.5 -5l-2 -4t-3 -5q-3 -5 -8 -7q-3 -1 -10 -1q-30 0 -30 25h2zM319 606q-26 -71 -61.5 -160.5t-80.5 -198.5q73 -1 141.5 -1t134.5 2q-8 19 -63 171q-28 76 -45.5 123t-25.5 66v-2z
M424 871q21 0 21 -24q0 -48 -36 -84t-88 -36q-48 0 -85 35q-36 35 -38 83q0 26 22 26q20 0 21 -22q1 -33 23 -55q21 -21 59 -21q35 0 56 23q21 22 21 54q0 22 22 22zM342 879q-11 -8 -18 -8q-9 0 -16 6t-7 15q0 7 8 18q2 2 12 13t28 31q37 40 59 68q10 12 21 12t20 -9t9 -19
q0 -7 -11 -21q-25 -28 -50.5 -54.5t-52.5 -52.5z" />
    <glyph glyph-name="uni1EAF" unicode="&#x1eaf;" 
d="M486 170q0 -34 1.5 -72.5t3.5 -82.5q0 -10 -9 -16t-19 -6q-11 0 -16 4q-6 4 -9 18q-3 13 -3 23v35v14q-53 -95 -174 -95q-92 0 -150 64t-58 153q0 103 65 176q64 72 159 72q103 0 159 -87v47q0 37 28 37q14 0 20 -7q6 -8 6 -15v-27l-1 -78zM107 208q0 -72 47 -121
q46 -48 113 -48q75 0 123 50q48 49 48 129q0 86 -49 135t-117 49q-70 0 -118 -56t-48 -138h1zM381 678q21 0 21 -24q0 -48 -36 -84t-88 -36q-48 0 -85 35q-36 35 -38 83q0 26 22 26q20 0 21 -22q1 -33 23 -55q21 -21 59 -21q35 0 56 23q21 22 21 54q0 22 22 22zM304 688
q-11 -8 -18 -8q-9 0 -16 6t-7 15q0 7 8 18q2 2 12 13t28 31q37 40 59 68q10 12 21 12t20 -9t9 -19q0 -7 -11 -21q-25 -28 -50.5 -54.5t-52.5 -52.5z" />
    <glyph glyph-name="uni1EB0" unicode="&#x1eb0;" horiz-adv-x="629" 
d="M31 22q0 11 14 42q108 256 111 261q7 17 39 99t90 232q10 24 34 24q22 0 33 -24q16 -38 66 -171q49 -134 72 -189q1 -2 2 -5t3 -8t3 -8t2 -5l95 -229q6 -17 6 -22q0 -8 -9 -15q-8 -7 -20 -7q-15 0 -21 6q-5 5 -13 26q-14 36 -30 78q-8 21 -14.5 37.5t-11.5 28.5t-7 19
t-3 9h-76h-132h-107q-5 -12 -30 -78q-13 -33 -21 -54t-12 -29l-2.5 -5t-3.5 -8t-3.5 -8l-2.5 -5l-2 -4t-3 -5q-3 -5 -8 -7q-3 -1 -10 -1q-30 0 -30 25h2zM319 606q-26 -71 -61.5 -160.5t-80.5 -198.5q73 -1 141.5 -1t134.5 2q-8 19 -63 171q-28 76 -45.5 123t-25.5 66v-2z
M424 871q21 0 21 -24q0 -48 -36 -84t-88 -36q-48 0 -85 35q-36 35 -38 83q0 26 22 26q20 0 21 -22q1 -33 23 -55q21 -21 59 -21q35 0 56 23q21 22 21 54q0 22 22 22zM300 876q-28 28 -53 55t-48 53q-11 14 -11 23q0 10 9 18q10 8 18 8q14 0 24 -13q11 -15 34.5 -42.5
t58.5 -69.5q9 -11 9 -18t-7 -13q-8 -6 -15 -6q-6 0 -17 8z" />
    <glyph glyph-name="uni1EB1" unicode="&#x1eb1;" 
d="M486 170q0 -34 1.5 -72.5t3.5 -82.5q0 -10 -9 -16t-19 -6q-11 0 -16 4q-6 4 -9 18q-3 13 -3 23v35v14q-53 -95 -174 -95q-92 0 -150 64t-58 153q0 103 65 176q64 72 159 72q103 0 159 -87v47q0 37 28 37q14 0 20 -7q6 -8 6 -15v-27l-1 -78zM107 208q0 -72 47 -121
q46 -48 113 -48q75 0 123 50q48 49 48 129q0 86 -49 135t-117 49q-70 0 -118 -56t-48 -138h1zM381 678q21 0 21 -24q0 -48 -36 -84t-88 -36q-48 0 -85 35q-36 35 -38 83q0 26 22 26q20 0 21 -22q1 -33 23 -55q21 -21 59 -21q35 0 56 23q21 22 21 54q0 22 22 22zM267 685
q-28 28 -53 55t-48 53q-11 14 -11 23q0 10 9 18q10 8 18 8q14 0 24 -13q11 -15 34.5 -42.5t58.5 -69.5q9 -11 9 -18t-7 -13q-8 -6 -15 -6q-6 0 -17 8z" />
    <glyph glyph-name="uni1EB2" unicode="&#x1eb2;" horiz-adv-x="629" 
d="M31 22q0 11 14 42q108 256 111 261q7 17 39 99t90 232q10 24 34 24q22 0 33 -24q16 -38 66 -171q49 -134 72 -189q1 -2 2 -5t3 -8t3 -8t2 -5l95 -229q6 -17 6 -22q0 -8 -9 -15q-8 -7 -20 -7q-15 0 -21 6q-5 5 -13 26q-14 36 -30 78q-8 21 -14.5 37.5t-11.5 28.5t-7 19
t-3 9h-76h-132h-107q-5 -12 -30 -78q-13 -33 -21 -54t-12 -29l-2.5 -5t-3.5 -8t-3.5 -8l-2.5 -5l-2 -4t-3 -5q-3 -5 -8 -7q-3 -1 -10 -1q-30 0 -30 25h2zM319 606q-26 -71 -61.5 -160.5t-80.5 -198.5q73 -1 141.5 -1t134.5 2q-8 19 -63 171q-28 76 -45.5 123t-25.5 66v-2z
M424 871q21 0 21 -24q0 -48 -36 -84t-88 -36q-48 0 -85 35q-36 35 -38 83q0 26 22 26q20 0 21 -22q1 -33 23 -55q21 -21 59 -21q35 0 56 23q21 22 21 54q0 22 22 22zM366 1046q14 -11 20.5 -26t8.5 -33q2 -14 -2 -31.5t-15 -31.5q-5 -8 -8 -11.5t-11 -12.5q-12 -14 -25 -20
t-22 1q-6 3 -6 9q-2 7 2 11q2 2 5.5 5t8.5 6q5 4 9.5 9t6.5 8q21 27 18 50v3q-1 19 -15 29q-10 10 -28 8q-6 0 -12.5 -1t-12.5 -3q-7 -2 -12 -3t-9 -2q-10 0 -15 4q-6 4 -8 13q-2 28 60 34q18 2 33 -1t29 -14z" />
    <glyph glyph-name="uni1EB3" unicode="&#x1eb3;" 
d="M486 170q0 -34 1.5 -72.5t3.5 -82.5q0 -10 -9 -16t-19 -6q-11 0 -16 4q-6 4 -9 18q-3 13 -3 23v35v14q-53 -95 -174 -95q-92 0 -150 64t-58 153q0 103 65 176q64 72 159 72q103 0 159 -87v47q0 37 28 37q14 0 20 -7q6 -8 6 -15v-27l-1 -78zM107 208q0 -72 47 -121
q46 -48 113 -48q75 0 123 50q48 49 48 129q0 86 -49 135t-117 49q-70 0 -118 -56t-48 -138h1zM381 678q21 0 21 -24q0 -48 -36 -84t-88 -36q-48 0 -85 35q-36 35 -38 83q0 26 22 26q20 0 21 -22q1 -33 23 -55q21 -21 59 -21q35 0 56 23q21 22 21 54q0 22 22 22zM325 854
q14 -11 20.5 -26t8.5 -33q2 -14 -2 -31.5t-15 -31.5q-5 -8 -8 -11.5t-11 -12.5q-12 -14 -25 -20t-22 1q-6 3 -6 9q-2 7 2 11q2 2 5.5 5t8.5 6q5 4 9.5 9t6.5 8q21 27 18 50v3q-1 19 -15 29q-10 10 -28 8q-6 0 -12.5 -1t-12.5 -3q-7 -2 -12 -3t-9 -2q-10 0 -15 4q-6 4 -8 13
q-2 28 60 34q18 2 33 -1t29 -14z" />
    <glyph glyph-name="uni1EB4" unicode="&#x1eb4;" horiz-adv-x="629" 
d="M31 22q0 11 14 42q108 256 111 261q7 17 39 99t90 232q10 24 34 24q22 0 33 -24q16 -38 66 -171q49 -134 72 -189q1 -2 2 -5t3 -8t3 -8t2 -5l95 -229q6 -17 6 -22q0 -8 -9 -15q-8 -7 -20 -7q-15 0 -21 6q-5 5 -13 26q-14 36 -30 78q-8 21 -14.5 37.5t-11.5 28.5t-7 19
t-3 9h-76h-132h-107q-5 -12 -30 -78q-13 -33 -21 -54t-12 -29l-2.5 -5t-3.5 -8t-3.5 -8l-2.5 -5l-2 -4t-3 -5q-3 -5 -8 -7q-3 -1 -10 -1q-30 0 -30 25h2zM319 606q-26 -71 -61.5 -160.5t-80.5 -198.5q73 -1 141.5 -1t134.5 2q-8 19 -63 171q-28 76 -45.5 123t-25.5 66v-2z
M424 871q21 0 21 -24q0 -48 -36 -84t-88 -36q-48 0 -85 35q-36 35 -38 83q0 26 22 26q20 0 21 -22q1 -33 23 -55q21 -21 59 -21q35 0 56 23q21 22 21 54q0 22 22 22zM219 904q-1 -19 -24 -19q-10 0 -16 8q-6 7 -4 18q1 33 26 54q24 21 58 21t68 -31t59 -33q30 0 32 45
q1 9 9 15q7 6 15 6q22 0 22 -20q0 -44 -22 -65q-23 -21 -60 -21q-35 2 -69 31t-55 31q-32 0 -36 -39z" />
    <glyph glyph-name="uni1EB5" unicode="&#x1eb5;" 
d="M486 170q0 -34 1.5 -72.5t3.5 -82.5q0 -10 -9 -16t-19 -6q-11 0 -16 4q-6 4 -9 18q-3 13 -3 23v35v14q-53 -95 -174 -95q-92 0 -150 64t-58 153q0 103 65 176q64 72 159 72q103 0 159 -87v47q0 37 28 37q14 0 20 -7q6 -8 6 -15v-27l-1 -78zM107 208q0 -72 47 -121
q46 -48 113 -48q75 0 123 50q48 49 48 129q0 86 -49 135t-117 49q-70 0 -118 -56t-48 -138h1zM381 678q21 0 21 -24q0 -48 -36 -84t-88 -36q-48 0 -85 35q-36 35 -38 83q0 26 22 26q20 0 21 -22q1 -33 23 -55q21 -21 59 -21q35 0 56 23q21 22 21 54q0 22 22 22zM177 712
q-1 -19 -24 -19q-10 0 -16 8q-6 7 -4 18q1 33 26 54q24 21 58 21t68 -31t59 -33q30 0 32 45q1 9 9 15q7 6 15 6q22 0 22 -20q0 -44 -22 -65q-23 -21 -60 -21q-35 2 -69 31t-55 31q-32 0 -36 -39z" />
    <glyph glyph-name="uni1EB6" unicode="&#x1eb6;" horiz-adv-x="629" 
d="M31 22q0 11 14 42q108 256 111 261q7 17 39 99t90 232q10 24 34 24q22 0 33 -24q16 -38 66 -171q49 -134 72 -189q1 -2 2 -5t3 -8t3 -8t2 -5l95 -229q6 -17 6 -22q0 -8 -9 -15q-8 -7 -20 -7q-15 0 -21 6q-5 5 -13 26q-14 36 -30 78q-8 21 -14.5 37.5t-11.5 28.5t-7 19
t-3 9h-76h-132h-107q-5 -12 -30 -78q-13 -33 -21 -54t-12 -29l-2.5 -5t-3.5 -8t-3.5 -8l-2.5 -5l-2 -4t-3 -5q-3 -5 -8 -7q-3 -1 -10 -1q-30 0 -30 25h2zM319 606q-26 -71 -61.5 -160.5t-80.5 -198.5q73 -1 141.5 -1t134.5 2q-8 19 -63 171q-28 76 -45.5 123t-25.5 66v-2z
M313 -158q-18 0 -30 12q-11 11 -13 32q5 44 48 44q19 0 30 -12q11 -13 11 -31q0 -21 -13 -33q-14 -12 -34 -12h1zM417 882q21 0 21 -24q0 -48 -36 -84t-88 -36q-48 0 -85 35q-36 35 -38 83q0 26 22 26q20 0 21 -22q1 -33 23 -55q21 -21 59 -21q35 0 56 23q21 22 21 54
q0 22 22 22z" />
    <glyph glyph-name="uni1EB7" unicode="&#x1eb7;" 
d="M486 170q0 -34 1.5 -72.5t3.5 -82.5q0 -10 -9 -16t-19 -6q-11 0 -16 4q-6 4 -9 18q-3 13 -3 23v35v14q-53 -95 -174 -95q-92 0 -150 64t-58 153q0 103 65 176q64 72 159 72q103 0 159 -87v47q0 37 28 37q14 0 20 -7q6 -8 6 -15v-27l-1 -78zM107 208q0 -72 47 -121
q46 -48 113 -48q75 0 123 50q48 49 48 129q0 86 -49 135t-117 49q-70 0 -118 -56t-48 -138h1zM280 -158q-18 0 -30 12q-11 11 -13 32q5 44 48 44q19 0 30 -12q11 -13 11 -31q0 -21 -13 -33q-14 -12 -34 -12h1zM384 683q21 0 21 -24q0 -48 -36 -84t-88 -36q-48 0 -85 35
q-36 35 -38 83q0 26 22 26q20 0 21 -22q1 -33 23 -55q21 -21 59 -21q35 0 56 23q21 22 21 54q0 22 22 22z" />
    <glyph glyph-name="uni1EB8" unicode="&#x1eb8;" horiz-adv-x="539" 
d="M102 641q0 14 9 22t19 9q5 1 13.5 1h19.5h52h46.5t71.5 1t71 1h46q25 0 34 -6t9 -20q0 -23 -23 -25h-126h-126h-61q-1 -26 -1 -63v-85v-99v-25h58q113 0 188 3q21 0 30 -6t9 -19q0 -25 -36 -25h-132h-118v-80v-36.5t-1 -52.5t-1 -52.5v-36.5q69 0 143.5 0.5t156.5 1.5h12
h12q25 0 25 -24q0 -17 -9 -24q-8 -7 -36 -7h-256q-69 0 -85 9t-16 49q0 7 0.5 18t1.5 26v3v11v17v24v30v39v46v54v61v132v134v-6zM298 -158q-18 0 -30 12q-11 11 -13 32q5 44 48 44q19 0 30 -12q11 -13 11 -31q0 -21 -13 -33q-14 -12 -34 -12h1z" />
    <glyph glyph-name="uni1EB9" unicode="&#x1eb9;" horiz-adv-x="507" 
d="M106 212q0 -65 45 -113t118 -48q67 0 122 37q3 3 6 5q6 4 9 5q6 2 9 2q10 0 19 -9t9 -18q0 -16 -23 -33q-63 -45 -161 -45q-86 0 -147 63q-61 62 -64 150q0 101 64 177q65 77 156 77q79 0 134 -55q56 -56 56 -123v-17.5t-1 -12.5q-2 -11 -9 -21q-8 -11 -22 -15
q-15 -5 -42 -6q-12 -1 -44 -1h-86h-147zM275 412q-68 0 -114 -46t-52 -108q266 4 283 6q12 1 12 12q0 58 -39 96q-40 38 -91 38zM252 -158q-18 0 -30 12q-11 11 -13 32q5 44 48 44q19 0 30 -12q11 -13 11 -31q0 -21 -13 -33q-14 -12 -34 -12h1z" />
    <glyph glyph-name="uni1EBA" unicode="&#x1eba;" horiz-adv-x="539" 
d="M102 641q0 14 9 22t19 9q5 1 13.5 1h19.5h52h46.5t71.5 1t71 1h46q25 0 34 -6t9 -20q0 -23 -23 -25h-126h-126h-61q-1 -26 -1 -63v-85v-99v-25h58q113 0 188 3q21 0 30 -6t9 -19q0 -25 -36 -25h-132h-118v-80v-36.5t-1 -52.5t-1 -52.5v-36.5q69 0 143.5 0.5t156.5 1.5h12
h12q25 0 25 -24q0 -17 -9 -24q-8 -7 -36 -7h-256q-69 0 -85 9t-16 49q0 7 0.5 18t1.5 26v3v11v17v24v30v39v46v54v61v132v134v-6zM357 909q14 -11 20.5 -26t8.5 -33q2 -14 -2 -31.5t-15 -31.5q-5 -8 -8 -11.5t-11 -12.5q-12 -14 -25 -20t-22 1q-6 3 -6 9q-2 7 2 11
q2 2 5.5 5t8.5 6q5 4 9.5 9t6.5 8q21 27 18 50v3q-1 19 -15 29q-10 10 -28 8q-6 0 -12.5 -1t-12.5 -3q-7 -2 -12 -3t-9 -2q-10 0 -15 4q-6 4 -8 13q-2 28 60 34q18 2 33 -1t29 -14z" />
    <glyph glyph-name="uni1EBB" unicode="&#x1ebb;" horiz-adv-x="507" 
d="M106 212q0 -65 45 -113t118 -48q67 0 122 37q3 3 6 5q6 4 9 5q6 2 9 2q10 0 19 -9t9 -18q0 -16 -23 -33q-63 -45 -161 -45q-86 0 -147 63q-61 62 -64 150q0 101 64 177q65 77 156 77q79 0 134 -55q56 -56 56 -123v-17.5t-1 -12.5q-2 -11 -9 -21q-8 -11 -22 -15
q-15 -5 -42 -6q-12 -1 -44 -1h-86h-147zM275 412q-68 0 -114 -46t-52 -108q266 4 283 6q12 1 12 12q0 58 -39 96q-40 38 -91 38zM319 726q14 -11 20.5 -26t8.5 -33q2 -14 -2 -31.5t-15 -31.5q-5 -8 -8 -11.5t-11 -12.5q-12 -14 -25 -20t-22 1q-6 3 -6 9q-2 7 2 11q2 2 5.5 5
t8.5 6q5 4 9.5 9t6.5 8q21 27 18 50v3q-1 19 -15 29q-10 10 -28 8q-6 0 -12.5 -1t-12.5 -3q-7 -2 -12 -3t-9 -2q-10 0 -15 4q-6 4 -8 13q-2 28 60 34q18 2 33 -1t29 -14z" />
    <glyph glyph-name="uni1EBC" unicode="&#x1ebc;" horiz-adv-x="539" 
d="M102 641q0 14 9 22t19 9q5 1 13.5 1h19.5h52h46.5t71.5 1t71 1h46q25 0 34 -6t9 -20q0 -23 -23 -25h-126h-126h-61q-1 -26 -1 -63v-85v-99v-25h58q113 0 188 3q21 0 30 -6t9 -19q0 -25 -36 -25h-132h-118v-80v-36.5t-1 -52.5t-1 -52.5v-36.5q69 0 143.5 0.5t156.5 1.5h12
h12q25 0 25 -24q0 -17 -9 -24q-8 -7 -36 -7h-256q-69 0 -85 9t-16 49q0 7 0.5 18t1.5 26v3v11v17v24v30v39v46v54v61v132v134v-6zM201 757q-1 -19 -24 -19q-10 0 -16 8q-6 7 -4 18q1 33 26 54q24 21 58 21t68 -31t59 -33q30 0 32 45q1 9 9 15q7 6 15 6q22 0 22 -20
q0 -44 -22 -65q-23 -21 -60 -21q-35 2 -69 31t-55 31q-32 0 -36 -39z" />
    <glyph glyph-name="uni1EBD" unicode="&#x1ebd;" horiz-adv-x="507" 
d="M106 212q0 -65 45 -113t118 -48q67 0 122 37q3 3 6 5q6 4 9 5q6 2 9 2q10 0 19 -9t9 -18q0 -16 -23 -33q-63 -45 -161 -45q-86 0 -147 63q-61 62 -64 150q0 101 64 177q65 77 156 77q79 0 134 -55q56 -56 56 -123v-17.5t-1 -12.5q-2 -11 -9 -21q-8 -11 -22 -15
q-15 -5 -42 -6q-12 -1 -44 -1h-86h-147zM275 412q-68 0 -114 -46t-52 -108q266 4 283 6q12 1 12 12q0 58 -39 96q-40 38 -91 38zM153 574q-1 -19 -24 -19q-10 0 -16 8q-6 7 -4 18q1 33 26 54q24 21 58 21t68 -31t59 -33q30 0 32 45q1 9 9 15q7 6 15 6q22 0 22 -20
q0 -44 -22 -65q-23 -21 -60 -21q-35 2 -69 31t-55 31q-32 0 -36 -39z" />
    <glyph glyph-name="uni1EBE" unicode="&#x1ebe;" horiz-adv-x="539" 
d="M102 641q0 14 9 22t19 9q5 1 13.5 1h19.5h52h46.5t71.5 1t71 1h46q25 0 34 -6t9 -20q0 -23 -23 -25h-126h-126h-61q-1 -26 -1 -63v-85v-99v-25h58q113 0 188 3q21 0 30 -6t9 -19q0 -25 -36 -25h-132h-118v-80v-36.5t-1 -52.5t-1 -52.5v-36.5q69 0 143.5 0.5t156.5 1.5h12
h12q25 0 25 -24q0 -17 -9 -24q-8 -7 -36 -7h-256q-69 0 -85 9t-16 49q0 7 0.5 18t1.5 26v3v11v17v24v30v39v46v54v61v132v134v-6zM410 719q-5 0 -9 3q-5 3 -6 6l-3 3q-1 1 -23 23.5t-67 67.5l-42 -42l-33 -34q-11 -12 -18 -18q-8 -6 -15 -6q-6 0 -13 7t-7 15t11 22l87 97
q15 16 31 16q14 0 28 -14l88 -100q13 -14 13 -22t-6 -14t-14 -6zM452 805q-11 -8 -18 -8q-9 0 -16 6t-7 15q0 7 8 18q2 2 12 13t28 31q37 40 59 68q10 12 21 12t20 -9t9 -19q0 -7 -11 -21q-25 -28 -50.5 -54.5t-52.5 -52.5z" />
    <glyph glyph-name="uni1EBF" unicode="&#x1ebf;" horiz-adv-x="507" 
d="M106 212q0 -65 45 -113t118 -48q67 0 122 37q3 3 6 5q6 4 9 5q6 2 9 2q10 0 19 -9t9 -18q0 -16 -23 -33q-63 -45 -161 -45q-86 0 -147 63q-61 62 -64 150q0 101 64 177q65 77 156 77q79 0 134 -55q56 -56 56 -123v-17.5t-1 -12.5q-2 -11 -9 -21q-8 -11 -22 -15
q-15 -5 -42 -6q-12 -1 -44 -1h-86h-147zM275 412q-68 0 -114 -46t-52 -108q266 4 283 6q12 1 12 12q0 58 -39 96q-40 38 -91 38zM373 538q-5 0 -9 3q-6 4 -8 6l-2 3q-1 1 -23 23.5t-67 67.5l-42 -42l-33 -34q-11 -12 -18 -18q-8 -6 -16 -6q-6 0 -13 7t-7 15t11 22l87 97
q15 16 31 16q14 0 28 -14l88 -100q13 -14 13 -22t-6 -14t-14 -6v-4zM412 625q-11 -8 -18 -8q-9 0 -16 6t-7 15q0 7 8 18q2 2 12 13t28 31q37 40 59 68q10 12 21 12t20 -9t9 -19q0 -7 -11 -21q-25 -28 -50.5 -54.5t-52.5 -52.5z" />
    <glyph glyph-name="uni1EC0" unicode="&#x1ec0;" horiz-adv-x="539" 
d="M102 641q0 14 9 22t19 9q5 1 13.5 1h19.5h52h46.5t71.5 1t71 1h46q25 0 34 -6t9 -20q0 -23 -23 -25h-126h-126h-61q-1 -26 -1 -63v-85v-99v-25h58q113 0 188 3q21 0 30 -6t9 -19q0 -25 -36 -25h-132h-118v-80v-36.5t-1 -52.5t-1 -52.5v-36.5q69 0 143.5 0.5t156.5 1.5h12
h12q25 0 25 -24q0 -17 -9 -24q-8 -7 -36 -7h-256q-69 0 -85 9t-16 49q0 7 0.5 18t1.5 26v3v11v17v24v30v39v46v54v61v132v134v-6zM410 719q-5 0 -9 3q-5 3 -6 6l-3 3q-1 1 -23 23.5t-67 67.5l-42 -42l-33 -34q-11 -12 -18 -18q-8 -6 -15 -6q-6 0 -13 7t-7 15t11 22l87 97
q15 16 31 16q14 0 28 -14l88 -100q13 -14 13 -22t-6 -14t-14 -6zM472 803q-28 28 -53 55t-48 53q-11 14 -11 23q0 10 9 18q10 8 18 8q14 0 24 -13q11 -15 34.5 -42.5t58.5 -69.5q9 -11 9 -18t-7 -13q-8 -6 -15 -6q-6 0 -17 8z" />
    <glyph glyph-name="uni1EC1" unicode="&#x1ec1;" horiz-adv-x="507" 
d="M106 212q0 -65 45 -113t118 -48q67 0 122 37q3 3 6 5q6 4 9 5q6 2 9 2q10 0 19 -9t9 -18q0 -16 -23 -33q-63 -45 -161 -45q-86 0 -147 63q-61 62 -64 150q0 101 64 177q65 77 156 77q79 0 134 -55q56 -56 56 -123v-17.5t-1 -12.5q-2 -11 -9 -21q-8 -11 -22 -15
q-15 -5 -42 -6q-12 -1 -44 -1h-86h-147zM275 412q-68 0 -114 -46t-52 -108q266 4 283 6q12 1 12 12q0 58 -39 96q-40 38 -91 38zM373 538q-5 0 -9 3q-6 4 -8 6l-2 3q-1 1 -23 23.5t-67 67.5l-42 -42l-33 -34q-11 -12 -18 -18q-8 -6 -16 -6q-6 0 -13 7t-7 15t11 22l87 97
q15 16 31 16q14 0 28 -14l88 -100q13 -14 13 -22t-6 -14t-14 -6v-4zM433 622q-28 28 -53 55t-48 53q-11 14 -11 23q0 10 9 18q10 8 18 8q14 0 24 -13q11 -15 34.5 -42.5t58.5 -69.5q9 -11 9 -18t-7 -13q-8 -6 -15 -6q-6 0 -17 8z" />
    <glyph glyph-name="uni1EC2" unicode="&#x1ec2;" horiz-adv-x="539" 
d="M102 641q0 14 9 22t19 9q5 1 13.5 1h19.5h52h46.5t71.5 1t71 1h46q25 0 34 -6t9 -20q0 -23 -23 -25h-126h-126h-61q-1 -26 -1 -63v-85v-99v-25h58q113 0 188 3q21 0 30 -6t9 -19q0 -25 -36 -25h-132h-118v-80v-36.5t-1 -52.5t-1 -52.5v-36.5q69 0 143.5 0.5t156.5 1.5h12
h12q25 0 25 -24q0 -17 -9 -24q-8 -7 -36 -7h-256q-69 0 -85 9t-16 49q0 7 0.5 18t1.5 26v3v11v17v24v30v39v46v54v61v132v134v-6zM410 719q-5 0 -9 3q-5 3 -6 6l-3 3q-1 1 -23 23.5t-67 67.5l-42 -42l-33 -34q-11 -12 -18 -18q-8 -6 -15 -6q-6 0 -13 7t-7 15t11 22l87 97
q15 16 31 16q14 0 28 -14l88 -100q13 -14 13 -22t-6 -14t-14 -6zM498 958q14 -11 20.5 -26t8.5 -33q2 -14 -2 -31.5t-15 -31.5q-5 -8 -8 -11.5t-11 -12.5q-12 -14 -25 -20t-22 1q-6 3 -6 9q-2 7 2 11q2 2 5.5 5t8.5 6q5 4 9.5 9t6.5 8q21 27 18 50v3q-1 19 -15 29
q-10 10 -28 8q-6 0 -12.5 -1t-12.5 -3q-7 -2 -12 -3t-9 -2q-10 0 -15 4q-6 4 -8 13q-2 28 60 34q18 2 33 -1t29 -14z" />
    <glyph glyph-name="uni1EC3" unicode="&#x1ec3;" horiz-adv-x="507" 
d="M106 212q0 -65 45 -113t118 -48q67 0 122 37q3 3 6 5q6 4 9 5q6 2 9 2q10 0 19 -9t9 -18q0 -16 -23 -33q-63 -45 -161 -45q-86 0 -147 63q-61 62 -64 150q0 101 64 177q65 77 156 77q79 0 134 -55q56 -56 56 -123v-17.5t-1 -12.5q-2 -11 -9 -21q-8 -11 -22 -15
q-15 -5 -42 -6q-12 -1 -44 -1h-86h-147zM275 412q-68 0 -114 -46t-52 -108q266 4 283 6q12 1 12 12q0 58 -39 96q-40 38 -91 38zM373 538q-5 0 -9 3q-6 4 -8 6l-2 3q-1 1 -23 23.5t-67 67.5l-42 -42l-33 -34q-11 -12 -18 -18q-8 -6 -16 -6q-6 0 -13 7t-7 15t11 22l87 97
q15 16 31 16q14 0 28 -14l88 -100q13 -14 13 -22t-6 -14t-14 -6v-4zM458 777q14 -11 20.5 -26t8.5 -33q2 -14 -2 -31.5t-15 -31.5q-5 -8 -8 -11.5t-11 -12.5q-12 -14 -25 -20t-22 1q-6 3 -6 9q-2 7 2 11q2 2 5.5 5t8.5 6q5 4 9.5 9t6.5 8q21 27 18 50v3q-1 19 -15 29
q-10 10 -28 8q-6 0 -12.5 -1t-12.5 -3q-7 -2 -12 -3t-9 -2q-10 0 -15 4q-6 4 -8 13q-2 28 60 34q18 2 33 -1t29 -14z" />
    </font>
</defs>
</svg>
